<ttFont>
          <CharString index="0">
            232 callgsubr
            -20 14 -15 41 hvcurveto
            return
          </CharString>
          <CharString index="1">
            rmoveto
            -107 callsubr
            return
          </CharString>
          <CharString index="2">
            -22 -115 -27 -116 -20 vvcurveto
            -24 25 -18 14 28 33 174 140 33 vhcurveto
            21 90 26 -94 callgsubr
          </CharString>
          <CharString index="3">
            -102 callsubr
            endchar
          </CharString>
          <CharString index="4">
            -103 callgsubr
            0 1 vlineto
            return
          </CharString>
          <CharString index="5">
            hlineto
            -99 callgsubr
            return
          </CharString>
          <CharString index="6">
            -87 callgsubr
            1 -5 3 -6 vhcurveto
            1 -3 1 -3 2 -2 rrcurveto
            -75 38 160 -204 36 hhcurveto
            16 10 -15 callgsubr
            -13 18 -12 18 return
          </CharString>
          <CharString index="7">
            146 callsubr
            0 1 vlineto
            return
          </CharString>
          <CharString index="8">
            -36 callgsubr
            14 hhcurveto
            29 40 37 callgsubr
            93 26 121 7 53 -61 callgsubr
          </CharString>
          <CharString index="9">
            -23 -121 -29 -126 -21 -77 callsubr
            return
          </CharString>
          <CharString index="10">
            16 19 20 -13 14 return
          </CharString>
          <CharString index="11">
            4 hlineto
            -18 -53 -15 -56 -15 -46 rrcurveto
            30 -39 -40 22 -40 hhcurveto
            -44 -29 -29 -43 -72 87 -73 48 30 28 25 49 26 hvcurveto
            33 -28 36 -30 34 -20 rrcurveto
            -22 36 35 -8 37 hhcurveto
            30 34 11 21 14 -19 2 -34 -71 -65 56 54 -63 hvcurveto
            12 29 12 35 12 40 10 32 11 35 11 32 rrcurveto
            83 16 74 43 60 vvcurveto
            46 -36 25 -37 -56 -40 -54 -71 -30 vhcurveto
            -1 -10 -10 0 -11 hhcurveto
            -77 -45 67 callgsubr
            51 13 -37 108 callsubr
            7 6 hvcurveto
            10 7 2 14 17 vvcurveto
            96 23 48 13 31 vhcurveto
            165 -107 callgsubr
          </CharString>
          <CharString index="12">
            hlineto
            45 callsubr
            7 18 14 12 339 callgsubr
            hvcurveto
            -52 -13 271 callsubr
            -7 -8 -11 -3 hvcurveto
            -3 -5 -2 -5 -5 vvcurveto
            return
          </CharString>
          <CharString index="13">
            -41 -14 -13 -21 -20 14 -15 41 101 callsubr
            31 40 18 47 42 vvcurveto
            73 -37 64 -85 -69 -56 -59 -53 -24 22 -27 15 12 7 7 9 4 vhcurveto
            6 9 3 13 8 16 rrcurveto
            18 7 19 13 26 hhcurveto
            33 15 -26 -37 -51 -33 -49 -56 -36 hvcurveto
            4 -19 -20 2 -21 hhcurveto
            -47 -33 -9 -23 -22 36 -43 27 31 29 7 13 27 hvcurveto
            27 -11 16 -19 -30 vvcurveto
            -74 -103 -41 -112 -117 -64 46 96 42 8 15 -3 21 vhcurveto
            10 -1 -6 5 -13 hhcurveto
            -43 -23 -58 -52 -120 109 -76 154 165 128 73 108 34 -11 27 -19 21 hvcurveto
            69 11 74 18 66 23 -5 -21 rcurveline
            -29 -128 -29 -124 -33 vvcurveto
            -15 26 -21 14 33 35 196 callsubr
            20 89 31 126 6 38 rrcurveto
            return
          </CharString>
          <CharString index="14">
            -68 callsubr
            27 -73 callsubr
            return
          </CharString>
          <CharString index="15">
            -40 -14 -13 -21 -20 14 -15 40 101 callsubr
            34 41 22 49 45 vvcurveto
            81 -46 50 -86 -74 -92 -60 -62 -19 23 -25 13 10 9 6 6 5 vhcurveto
            8 9 0 10 9 18 rrcurveto
            21 10 48 21 33 hhcurveto
            42 20 -19 -41 -55 -42 -55 -54 -37 hvcurveto
            4 -21 -22 3 -22 hhcurveto
            -47 -28 -11 -21 -21 35 -41 29 28 28 8 13 27 hvcurveto
            28 -14 16 -25 -31 vvcurveto
            -64 -57 -41 -85 -87 -49 37 75 17 -11 17 -16 -27 -15 -24 -34 -81 76 -78 127 133 91 71 105 35 -14 29 -22 22 vhcurveto
            70 11 76 18 68 24 -5 -21 rcurveline
            -29 -128 -29 -124 -33 vvcurveto
            -15 26 -21 15 33 35 196 callsubr
            20 89 30 126 6 38 rrcurveto
            return
          </CharString>
          <CharString index="16">
            rmoveto
            -59 -44 29 46 39 34 28 54 61 44 -42 -62 -9 -1 -10 -1 -9 hvcurveto
            -5 -26 -30 -5 -32 hhcurveto
            -270 -122 rmoveto
            -1 vlineto
            -34 71 -95 50 -65 vhcurveto
            61 callsubr
            -105 -64 -63 -76 -74 68 -66 111 25 23 3 6 22 hvcurveto
            11 callsubr
            return
          </CharString>
          <CharString index="17">
            rcurveline
            -98 callsubr
            return
          </CharString>
          <CharString index="18">
            -64 callgsubr
            92 294 callsubr
            -88 -84 -59 -105 -18 hvcurveto
            28 -22 -24 21 -35 hhcurveto
            -29 -20 -15 -29 -38 43 -26 47 -5 hvcurveto
            -78 53 75 -80 106 hhcurveto
            return
          </CharString>
          <CharString index="19">
            55 -138 11 139 vvcurveto
            58 57 28 96 58 55 -7 -15 53 vhcurveto
            -23 -119 -23 -107 -32 vvcurveto
            -14 29 -24 15 21 33 182 361 callgsubr
            303 callsubr
            5 37 -92 callgsubr
          </CharString>
          <CharString index="20">
            -23 -8 -74 -180 hhcurveto
            -80 -84 14 37 55 153 154 64 hvcurveto
            45 16 -59 357 callsubr
            12 6 3 17 19 vvcurveto
            17 0 17 1 15 vhcurveto
            4 67 21 39 13 24 rrcurveto
            191 -104 callsubr
          </CharString>
          <CharString index="21">
            -12 -15 -27 -20 -24 44 -58 20 12 8 9 16 27 -31 77 -26 hvcurveto
            return
          </CharString>
          <CharString index="22">
            -85 callgsubr
            117 -106 callgsubr
            return
          </CharString>
          <CharString index="23">
            386 -88 callgsubr
            return
          </CharString>
          <CharString index="24">
            -34 callsubr
            -67 497 -78 callsubr
            return
          </CharString>
          <CharString index="25">
            rmoveto
            29 5 38 8 44 5 rrcurveto
            131 15 96 -1 34 vvcurveto
            23 -87 6 -114 -154 -53 -13 -24 -11 vhcurveto
            -2 -6 -2 -7 -10 -181 -119 -249 -115 vvcurveto
            -48 54 -42 61 136 188 302 callsubr
            -11 vhcurveto
            -25 -125 -49 -156 hhcurveto
            -15 -12 10 17 34 27 81 27 92 hvcurveto
            123 149 18 51 9 -13 5 -21 hvcurveto
            -59 -39 -10 -96 hhcurveto
            -8 -8 0 1 -6 hvcurveto
            20 74 17 75 56 vvcurveto
            endchar
          </CharString>
          <CharString index="26">
            -40 -14 -13 -21 -20 14 -15 40 hvcurveto
            return
          </CharString>
          <CharString index="27">
            rmoveto
            -57 -15 -38 -30 -42 -68 76 48 38 68 15 80 4 vhcurveto
            2 -21 5 -20 -45 vvcurveto
            -185 -17 callgsubr
            return
          </CharString>
          <CharString index="28">
            rmoveto
            -33 -79 -76 -26 -50 hhcurveto
            -21 146 callgsubr
            56 47 20 -96 -46 17 hvcurveto
            -278 412 29 callgsubr
            -15 -79 -15 -88 -16 -84 rrcurveto
            61 -17 -34 61 0 callsubr
            40 74 22 31 82 hvcurveto
            -13 -58 -10 -45 -13 379 callgsubr
            return
          </CharString>
          <CharString index="29">
            rmoveto
            -41 -14 -13 -21 -20 14 -15 41 -69 callsubr
            return
          </CharString>
          <CharString index="30">
            vvcurveto
            -24 25 -18 14 28 33 -93 callsubr
            return
          </CharString>
          <CharString index="31">
            rmoveto
            -9 -2 -6 -7 -2 -9 rrcurveto
            -129 -33 -97 -89 -58 hhcurveto
            -24 -23 14 24 83 133 209 82 27 10 -43 -50 hvcurveto
            -46 176 rmoveto
            -132 -158 -256 -119 -57 75 -64 60 54 63 52 61 48 hvcurveto
            -65 3 16 -48 24 hhcurveto
            23 -1 57 62 11 hvcurveto
            14 77 8 42 30 vvcurveto
            8 -5 9 -7 9 vhcurveto
            13 20 12 29 22 vvcurveto
            374 callsubr
            vhcurveto
            return
          </CharString>
          <CharString index="32">
            -17 -76 -15 -64 -16 270 callgsubr
            36 30 134 121 27 vhcurveto
            61 80 72 54 42 hhcurveto
            22 10 -13 -22 hvcurveto
            -127 -124 -68 -35 vvcurveto
            -13 17 -10 14 38 122 137 103 58 -45 55 -61 -47 -57 -35 -44 -61 vhcurveto
            19 82 20 96 3 35 rrcurveto
            302 -70 callsubr
          </CharString>
          <CharString index="33">
            rmoveto
            -27 -9 27 36 89 69 136 63 40 41 -79 -103 14 hvcurveto
            -60 -52 -77 -46 -62 hhcurveto
            return
          </CharString>
          <CharString index="34">
            -49 callsubr
            39 rrcurveto
            return
          </CharString>
          <CharString index="35">
            rmoveto
            -14 -3 -8 -20 -5 hvcurveto
            -147 -40 -130 -241 -80 hhcurveto
            -18 -16 15 22 hvcurveto
            128 108 168 29 vvcurveto
            28 -21 26 -24 -50 -98 -253 -127 -53 58 -63 55 56 71 70 86 53 vhcurveto
            -14 -46 -9 -43 -25 vvcurveto
            -28 15 -14 16 13 13 14 28 8 vhcurveto
            63 214 49 145 19 vvcurveto
            32 -33 44 -23 vhcurveto
            return
          </CharString>
          <CharString index="36">
            -36 -18 8 -27 hhcurveto
            -15 -8 -9 -15 -16 13 -14 21 -9 hvcurveto
            5 -6 4 -7 -7 -26 callgsubr
            8 -2 9 -4 9 vhcurveto
            return
          </CharString>
          <CharString index="37">
            hlineto
            40 14 16 19 20 -14 14 -40 hvcurveto
            endchar
          </CharString>
          <CharString index="38">
            hvcurveto
            284 callsubr
            -52 -3 -77 -8 -73 vhcurveto
            -114 -12 -91 -30 373 callgsubr
            73 39 99 115 21 vhcurveto
            1 23 23 0 23 return
          </CharString>
          <CharString index="39">
            -73 callgsubr
            32 vhcurveto
            21 90 return
          </CharString>
          <CharString index="40">
            2 hlineto
            -7 -31 -4 -31 -27 vvcurveto
            -11 0 -11 1 -11 vhcurveto
            11 -23 -28 7 -26 hhcurveto
            -70 -113 -83 -32 -22 hvcurveto
            -27 -25 -14 -26 5 -11 11 -7 16 11 46 23 38 16 39 33 49 17 33 14 38 -1 33 -17 29 -3 6 -11 16 -3 rrcurveto
            1 2 0 1 385 callsubr
            1 2 0 1 1 hvcurveto
            11 5 2 20 2 29 rrcurveto
            21 0 17 2 37 vhcurveto
            2 27 5 30 8 29 rrcurveto
            85 17 76 45 57 384 callsubr
            -61 -47 -58 -70 -28 vhcurveto
            -1 -8 -7 0 -8 hhcurveto
            -77 -45 67 callgsubr
            51 13 -37 108 callsubr
            7 6 hvcurveto
            10 7 2 14 17 vvcurveto
            96 23 48 13 31 vhcurveto
            144 -104 callsubr
          </CharString>
          <CharString index="41">
            -27 12 -65 callgsubr
            return
          </CharString>
          <CharString index="42">
            -71 callsubr
            8 hlineto
            return
          </CharString>
          <CharString index="43">
            -73 callgsubr
            33 return
          </CharString>
          <CharString index="44">
            rmoveto
            43 -46 40 -19 -16 -4 -8 -22 vhcurveto
            -126 -84 -196 -161 vvcurveto
            -94 69 -101 87 175 153 272 313 81 -60 42 -23 -14 -4 -6 -15 vhcurveto
            -31 9 -31 -74 vvcurveto
            -252 -142 -214 -86 -46 -30 51 75 vhcurveto
            109 81 218 87 vvcurveto
            return
          </CharString>
          <CharString index="45">
            rmoveto
            -10 -55 -10 -54 -11 -56 rrcurveto
            29 -29 -44 22 -54 300 callsubr
            56 -53 77 -6 hvcurveto
            -32 -63 -69 -17 -67 -55 callgsubr
            178 -300 rmoveto
            112 callsubr
            45 -50 -33 -20 -40 -22 -45 hvcurveto
            return
          </CharString>
          <CharString index="46">
            rmoveto
            -82 72 -115 93 189 184 266 187 127 -80 125 -116 -142 -200 -256 -252 vhcurveto
            348 423 rmoveto
            47 51 -61 -118 -147 -173 -215 -102 -40 -40 47 77 196 177 221 80 hvcurveto
            return
          </CharString>
          <CharString index="47">
            rmoveto
            -18 -51 -23 -67 -74 hvcurveto
            60 -77 -13 64 -36 hhcurveto
            -18 -13 -16 -21 -55 129 -111 21 22 26 33 29 39 hvcurveto
            43 32 49 19 30 vvcurveto
            16 -10 10 -19 vhcurveto
            return
          </CharString>
          <CharString index="48">
            vvcurveto
            -82 80 -42 110 -2 vhcurveto
            -86 callgsubr
          </CharString>
          <CharString index="49">
            42 20 58 29 48 vhcurveto
            36 -58 49 -65 43 -45 rrcurveto
            -23 -40 -45 -18 -49 hhcurveto
            -31 -12 23 38 hvcurveto
            return
          </CharString>
          <CharString index="50">
            -52 callsubr
            322 73 rmoveto
            -18 -36 -33 -33 -47 hvcurveto
            -44 53 -51 79 -36 65 -82 callgsubr
            123 183 128 51 16 -5 7 -16 hvcurveto
            return
          </CharString>
          <CharString index="51">
            44 callgsubr
            47 21 15 19 23 return
          </CharString>
          <CharString index="52">
            -73 callsubr
            117 -104 callsubr
          </CharString>
          <CharString index="53">
            645 -106 callsubr
            return
          </CharString>
          <CharString index="54">
            -20 -73 -20 -125 -19 -82 rrcurveto
            98 -15 -50 104 -71 hhcurveto
            return
          </CharString>
          <CharString index="55">
            rmoveto
            -58 callsubr
            return
          </CharString>
          <CharString index="56">
            -1 -3 -1 -2 -3 vvcurveto
            -19 return
          </CharString>
          <CharString index="57">
            -91 callsubr
            529 313 -106 callsubr
            31 hlineto
            -15 -85 -17 -84 -17 -90 rrcurveto
            -98 callsubr
            116 -102 callsubr
            endchar
          </CharString>
          <CharString index="58">
            126 4 return
          </CharString>
          <CharString index="59">
            rmoveto
            23 -37 41 -25 -14 -6 -20 -23 -1 vhcurveto
            -6 -62 -11 -256 -80 -212 -71 156 -110 302 -23 54 rrcurveto
            31 -12 -33 28 -14 hhcurveto
            -13 -4 -8 -24 hvcurveto
            -4 -119 -128 -421 -70 vvcurveto
            -24 34 -38 16 19 19 110 379 98 vhcurveto
            40 -102 111 -282 26 -60 rrcurveto
            -27 12 27 -18 16 hhcurveto
            82 92 486 156 hvcurveto
            return
          </CharString>
          <CharString index="60">
            44 -84 callgsubr
            return
          </CharString>
          <CharString index="61">
            2 30 rrcurveto
            -83 -42 callsubr
            return
          </CharString>
          <CharString index="62">
            75 callgsubr
            -135 205 callgsubr
            290 116 callgsubr
            hvcurveto
            -129 242 -44 -92 vvcurveto
            -29 -31 -21 -47 -10 vhcurveto
            87 -38 -51 80 -87 hhcurveto
            -63 -50 -38 -60 -90 99 -53 115 13 12 0 1 12 hvcurveto
            -93 38 40 -101 35 hhcurveto
            14 7 7 15 23 -39 82 -31 76 hvcurveto
            76 16 52 38 63 vvcurveto
            return
          </CharString>
          <CharString index="63">
            rmoveto
            34 -29 -11 25 -26 hhcurveto
            -19 -42 -29 -27 -47 hvcurveto
            -49 -28 -20 -21 -30 vvcurveto
            -19 15 -13 16 34 40 54 36 70 vhcurveto
            -45 35 44 -58 35 hhcurveto
            14 11 9 11 26 -37 36 -34 39 hvcurveto
            return
          </CharString>
          <CharString index="64">
            hlineto
            -53 callsubr
            return
          </CharString>
          <CharString index="65">
            hmoveto
            -15 -84 -12 -74 -13 -85 rrcurveto
            -44 -30 callgsubr
            75 62 33 36 57 vhcurveto
            -15 -98 58 callsubr
            142 28 vhcurveto
            return
          </CharString>
          <CharString index="66">
            -52 callsubr
            -44 38 callgsubr
            return
          </CharString>
          <CharString index="67">
            45 callsubr
            6 124 callgsubr
            24 hhcurveto
            40 21 173 callsubr
            return
          </CharString>
          <CharString index="68">
            -54 callgsubr
            23 50 63 callsubr
            return
          </CharString>
          <CharString index="69">
            vhcurveto
            13 12 19 47 callgsubr
            return
          </CharString>
          <CharString index="70">
            -84 12 callsubr
            return
          </CharString>
          <CharString index="71">
            hhcurveto
            -105 -114 -175 -82 -45 55 -43 42 return
          </CharString>
          <CharString index="72">
            -100 callgsubr
            -426 hmoveto
            -97 callgsubr
            -61 -35 -50 -40 -40 hvcurveto
            -42 -76 -3 -8 -84 hvcurveto
            15 61 9 64 59 162 callsubr
            -438 17 callsubr
            98 332 -51 callgsubr
            return
          </CharString>
          <CharString index="73">
            rmoveto
            -26 -38 50 34 32 53 17 72 8 hvcurveto
            -79 -12 -20 -62 -29 hhcurveto
            return
          </CharString>
          <CharString index="74">
            -15 -84 -12 -74 -13 -85 rrcurveto
            -44 123 callsubr
            189 callgsubr
            119 32 callgsubr
            46 76 60 30 43 hhcurveto
            34 11 -20 -32 hvcurveto
            return
          </CharString>
          <CharString index="75">
            65 -38 147 -6 -49 vvcurveto
            -36 -38 -31 -72 -79 -35 31 39 -15 vhcurveto
            21 -8 -13 13 -19 hhcurveto
            return
          </CharString>
          <CharString index="76">
            -106 callsubr
            18 hlineto
            -13 -72 -13 -71 -14 -75 rrcurveto
            -92 -74 -140 -84 -98 150 callsubr
            -5 -6 -2 -3 -8 vhcurveto
            -11 -28 -54 -26 -55 5 callgsubr
            return
          </CharString>
          <CharString index="77">
            rmoveto
            270 callsubr
            vhcurveto
            45 -81 70 -100 44 -54 rrcurveto
            -21 -38 -45 -17 -49 hhcurveto
            351 callsubr
            hvcurveto
            -129 291 0 callgsubr
            return
          </CharString>
          <CharString index="78">
            -88 callgsubr
            81 413 rmoveto
            24 callsubr
            -63 -11 -56 -14 -38 -21 -45 -19 -56 -26 -58 -24 4 22 5 21 5 20 149 callgsubr
            -148 -351 rmoveto
            -30 -78 -75 -22 -51 hhcurveto
            -20 146 callgsubr
            55 48 18 -101 -44 18 hvcurveto
            -267 415 -14 callsubr
            46 70 20 28 78 hvcurveto
            -13 -56 -9 -42 -13 231 callgsubr
            28 24 82 93 22 vhcurveto
            44 17 44 19 41 18 rrcurveto
            -62 12 62 -78 62 hhcurveto
            130 callgsubr
            hvcurveto
            70 10 76 11 64 16 -7 -37 -90 callsubr
            118 -106 callgsubr
            endchar
          </CharString>
          <CharString index="79">
            -40 -37 -43 -35 -36 -31 rrcurveto
            1 10 1 10 9 vvcurveto
            71 -38 75 -85 return
          </CharString>
          <CharString index="80">
            -6 -8 -3 -9 -8 vvcurveto
            -21 return
          </CharString>
          <CharString index="81">
            -21 8 -26 -35 vvcurveto
            -59 -14 -59 -37 -13 -10 11 14 -8 vhcurveto
            60 -27 -33 50 -29 hhcurveto
            -12 -22 -5 -23 -13 7 -19 17 -23 hvcurveto
            return
          </CharString>
          <CharString index="82">
            149 callsubr
            -72 -44 37 40 -35 hvcurveto
            122 27 86 90 102 vvcurveto
            31 -7 29 -13 24 vhcurveto
            184 -277 rmoveto
            244 callgsubr
            -20 -41 -23 -45 hvcurveto
            -531 346 -106 callsubr
            89 14 callsubr
            -73 53 80 -70 108 hhcurveto
            91 106 33 65 88 hvcurveto
            -11 -52 -11 -47 -7 -31 rrcurveto
            14 -26 -35 9 -31 hhcurveto
            -58 -64 -33 -42 -60 hvcurveto
            -67 -46 -66 -58 -27 vvcurveto
            -13 7 -9 14 29 54 57 43 62 vhcurveto
            36 50 54 26 43 hhcurveto
            40 33 -10 -17 23 hvcurveto
            6 -4 6 -2 7 -1 rrcurveto
            -5 6 5 -2 4 hhcurveto
            21 37 -73 callgsubr
            32 hvcurveto
            148 callgsubr
          </CharString>
          <CharString index="83">
            vvcurveto
            -24 24 -18 14 28 33 -81 callgsubr
            return
          </CharString>
          <CharString index="84">
            rmoveto
            -26 -39 50 33 33 56 17 71 8 hvcurveto
            -79 -13 -19 -62 -30 hhcurveto
            -469 353 rmoveto
            56 33 41 54 41 30 -37 -47 -50 -29 -43 -41 -38 vhcurveto
            -53 25 -35 37 56 51 callsubr
            198 297 callsubr
            187 hlineto
            -1 -7 0 -8 -8 vvcurveto
            -1 -49 -3 -67 -6 -65 -26 -2 -26 -4 -23 -5 rrcurveto
            -20 -25 -2 -27 hhcurveto
            -77 -84 5 16 -71 hvcurveto
            42 46 30 52 65 209 callsubr
            -75 44 -52 62 -34 vhcurveto
            -104 -78 -132 -69 -102 -49 callgsubr
            76 127 60 103 83 vhcurveto
            -22 70 80 -9 65 hhcurveto
            7 8 0 1 8 hvcurveto
            -6 -11 -3 -11 -13 vvcurveto
            -63 70 -98 69 76 39 100 114 20 vhcurveto
            1 18 18 0 17 return
          </CharString>
          <CharString index="85">
            77 callgsubr
            -1 vlineto
            325 callgsubr
            return
          </CharString>
          <CharString index="86">
            124 -235 139 44 vvcurveto
            27 40 29 75 29 vhcurveto
            82 33 78 -2 23 vvcurveto
            25 -27 34 -42 -73 -134 -56 -59 -53 vhcurveto
            -16 -17 -16 -45 -29 -84 231 -136 -80 vvcurveto
            -55 -83 -59 -96 vhcurveto
            -99 -42 95 -35 hhcurveto
            -13 -5 -12 -18 return
          </CharString>
          <CharString index="87">
            hhcurveto
            -105 -64 -63 -76 -74 68 -66 111 25 23 3 6 22 hvcurveto
            11 callsubr
            43 callsubr
            return
          </CharString>
          <CharString index="88">
            380 callgsubr
            -67 -28 -84 -20 -80 -10 rrcurveto
            43 46 39 callgsubr
            return
          </CharString>
          <CharString index="89">
            rmoveto
            -28 -19 33 21 22 18 8 43 13 16 -1 -3 16 hvcurveto
            -47 -14 -21 -33 -24 hhcurveto
            -6 768 -64 callgsubr
            359 hlineto
            -5 281 callgsubr
            -17 4 -14 hhcurveto
            -75 -140 -59 -48 -20 19 -32 24 -12 hvcurveto
            67 -37 128 -2 -53 vvcurveto
            -28 -39 -26 -67 -75 203 callgsubr
            -39 24 -37 39 -26 hvcurveto
            -8 0 -7 -8 vvcurveto
            -37 -4 -40 -7 -38 vhcurveto
            4 -20 -20 2 -24 hhcurveto
            -71 -51 -27 -53 -55 54 -69 61 93 47 169 139 1 hvcurveto
            -7 23 26 -4 27 hhcurveto
            17 17 1 3 15 hvcurveto
            -35 -104 -28 -187 -31 vvcurveto
            -31 3 -26 16 25 17 79 74 13 vhcurveto
            12 74 29 115 9 57 rrcurveto
            41 22 23 33 38 127 -227 -7 32 vvcurveto
            27 101 22 39 vhcurveto
            32 22 -15 18 hhcurveto
            22 299 callsubr
            137 -70 callsubr
          </CharString>
          <CharString index="90">
            vvcurveto
            -16 6 -10 14 21 20 19 31 7 vhcurveto
            20 86 20 125 25 124 14 69 rcurveline
            122 59 97 90 102 vvcurveto
            61 -27 51 -59 -120 -43 -153 -161 -30 vhcurveto
            -32 -77 -84 -19 -64 hhcurveto
            -8 -5 3 6 52 72 71 57 44 hvcurveto
            21 17 42 29 18 vvcurveto
            6 -2 4 -3 3 vhcurveto
            6 -3 -8 3 -14 -26 362 callsubr
            -34 -19 7 18 48 122 115 66 hvcurveto
            30 2 -30 17 hhcurveto
            9 10 358 callgsubr
            return
          </CharString>
          <CharString index="91">
            -3 29 31 75 21 115 31 73 hvcurveto
            return
          </CharString>
          <CharString index="92">
            rmoveto
            -24 -13 -30 -63 -24 hvcurveto
            -19 -50 -13 -21 -20 vvcurveto
            -15 8 -15 15 21 17 27 51 34 vhcurveto
            26 37 20 22 23 vvcurveto
            27 -21 27 -27 vhcurveto
            157 -8 rmoveto
            -22 -13 -31 -65 -37 hvcurveto
            -27 -47 -8 -17 -17 vvcurveto
            -14 7 -14 14 24 21 31 36 30 vhcurveto
            35 41 22 15 29 vvcurveto
            28 -20 25 -26 vhcurveto
            return
          </CharString>
          <CharString index="93">
            356 callsubr
            -15 -79 -14 -89 -17 -84 rrcurveto
            61 -16 -34 62 0 callsubr
            return
          </CharString>
          <CharString index="94">
            117 callsubr
            -14 -13 -21 -20 14 62 callgsubr
            return
          </CharString>
          <CharString index="95">
            517 684 135 -74 callsubr
            -556 245 callsubr
            858 -43 callsubr
            -74 -59 -56 -71 -38 hvcurveto
            -19 -43 -62 -24 -88 31 callsubr
            56 11 16 48 hvcurveto
            -8 -31 -4 -30 -29 vvcurveto
            241 callgsubr
            362 callgsubr
            vhcurveto
            -99 callsubr
          </CharString>
          <CharString index="96">
            27 16 41 53 hhcurveto
            39 26 -29 -48 -86 -62 -69 -107 hvcurveto
            -38 -32 48 -28 hhcurveto
            -12 -9 -17 -20 -10 6 -13 10 -11 hvcurveto
            25 -34 52 -48 33 -46 rrcurveto
            -88 63 33 -53 20 hhcurveto
            17 8 8 15 22 -30 57 -55 79 hvcurveto
            -10 13 -10 15 -11 13 rrcurveto
            132 13 81 95 115 vvcurveto
            34 return
          </CharString>
          <CharString index="97">
            174 hlineto
            -15 -85 -17 -84 -16 -90 rrcurveto
            -23 -121 -32 -119 -22 vvcurveto
            -21 32 289 callgsubr
            13 -97 callsubr
            -41 hvcurveto
            endchar
          </CharString>
          <CharString index="98">
            rmoveto
            -95 32 193 -187 82 hhcurveto
            25 8 9 15 23 -60 43 -57 51 hvcurveto
            -59 55 -71 65 29 26 267 62 175 vvcurveto
            100 -95 51 -121 -95 -111 -42 -30 -17 16 -27 17 -11 vhcurveto
            -14 -180 -104 -268 -67 vvcurveto
            -25 33 -38 20 14 31 123 118 36 vhcurveto
            return
          </CharString>
          <CharString index="99">
            60 -39 84 -60 37 vhcurveto
            15 36 11 49 3 34 rrcurveto
            192 -104 callsubr
          </CharString>
          <CharString index="100">
            hlineto
            -107 callsubr
            return
          </CharString>
          <CharString index="101">
            -17 41 51 -7 58 hhcurveto
            133 131 50 71 49 -66 76 -55 -64 -86 -81 -91 -51 hvcurveto
            -57 8 -40 22 35 vvcurveto
            69 198 156 53 vhcurveto
            51 17 -50 26 hhcurveto
            return
          </CharString>
          <CharString index="102">
            186 callgsubr
            -3 -9 -4 -19 -24 -16 -37 return
          </CharString>
          <CharString index="103">
            119 44 196 182 43 -1 27 -1 16 hvcurveto
            175 hlineto
            -15 -85 -17 -84 -17 -90 rrcurveto
            -23 -121 -32 6 callgsubr
            32 52 callgsubr
            14 16 19 20 -14 14 -41 hvcurveto
            endchar
          </CharString>
          <CharString index="104">
            126 callgsubr
            -46 61 return
          </CharString>
          <CharString index="105">
            rmoveto
            -14 -78 -11 -70 -12 -78 rrcurveto
            -41 -74 -63 -29 -48 hhcurveto
            -11 -5 19 32 69 23 110 29 66 hvcurveto
            -202 83 callgsubr
            119 hlineto
            -24 -65 -21 -93 -75 vvcurveto
            -70 14 -70 52 63 69 28 34 66 vhcurveto
            -9 -59 -8 -54 -6 -40 rrcurveto
            27 -26 -34 21 -34 hhcurveto
            -52 -56 -47 -42 -44 hvcurveto
            -59 -58 -66 -76 -24 319 callsubr
            24 64 75 53 53 vhcurveto
            38 40 41 33 34 hhcurveto
            34 31 -44 -26 24 hvcurveto
            7 -5 8 -6 9 -2 rrcurveto
            3 0 1 hlineto
            1 2 0 1 1 hvcurveto
            35 12 16 153 28 138 rrcurveto
            43 78 60 29 39 hhcurveto
            34 11 -26 328 callgsubr
            58 -68 -47 -57 -25 -32 -62 vhcurveto
            14 73 13 74 2 29 rrcurveto
            307 -107 callgsubr
          </CharString>
          <CharString index="106">
            -84 callsubr
            81 413 rmoveto
            24 callsubr
            return
          </CharString>
          <CharString index="107">
            -60 -36 callsubr
            return
          </CharString>
          <CharString index="108">
            24 callgsubr
            -121 204 callsubr
            319 272 callgsubr
            return
          </CharString>
          <CharString index="109">
            rmoveto
            -12 -15 -28 -10 -29 hhcurveto
            244 callgsubr
            -4 -1 -3 -3 -4 hvcurveto
            -614 314 -106 callsubr
            90 14 callsubr
            -74 54 80 -69 107 hhcurveto
            49 55 12 21 52 hvcurveto
            -125 -118 -140 -94 -28 vvcurveto
            -12 7 -8 14 83 306 290 125 58 vhcurveto
            0 vlineto
            6 12 4 13 14 vvcurveto
            57 -66 79 -103 -83 -55 -53 -64 -65 57 -53 78 -6 vhcurveto
            -32 -57 -64 -17 -74 307 callsubr
            342 -107 callgsubr
          </CharString>
          <CharString index="110">
            -17 -30 -12 -41 -1 -41 rrcurveto
            12 -19 -19 8 -16 hhcurveto
            return
          </CharString>
          <CharString index="111">
            576 -38 callgsubr
            return
          </CharString>
          <CharString index="112">
            -36 50 -116 -179 hhcurveto
            -94 -56 44 53 hvcurveto
            9 3 1 9 vvcurveto
            14 -30 18 -21 -17 -7 -12 -21 -117 117 -59 106 return
          </CharString>
          <CharString index="113">
            356 203 rmoveto
            1 hlineto
            29 54 37 33 73 hvcurveto
            79 36 86 29 31 vvcurveto
            15 -8 7 -17 -37 -129 -49 -49 -81 vhcurveto
            146 callsubr
            return
          </CharString>
          <CharString index="114">
            256 callsubr
            -169 -137 -99 -161 -15 rrcurveto
            96 64 86 94 108 vvcurveto
            30 -6 25 -10 21 vhcurveto
            -292 130 callsubr
            -145 -201 -79 -32 vvcurveto
            -35 42 -37 32 113 127 41 86 92 vhcurveto
            -14 -70 -16 -67 -10 -47 rrcurveto
            24 -26 -35 20 -34 hhcurveto
            -50 -52 -43 -40 -42 hvcurveto
            -61 -58 -72 -78 -25 373 callsubr
            17 24 206 callsubr
            39 41 31 33 hhcurveto
            32 33 -34 -25 24 hvcurveto
            8 -5 8 -5 7 -2 28 callgsubr
            118 -106 callgsubr
            endchar
          </CharString>
          <CharString index="115">
            -13 callsubr
            33 0 24 -2 16 hvcurveto
            219 hlineto
            -15 -85 -17 -84 -17 -90 -15 -76 -18 -77 -11 -51 rrcurveto
            24 -24 -34 20 -36 hhcurveto
            -54 -53 -47 -43 -42 hvcurveto
            -56 -59 -63 -76 -24 vvcurveto
            -14 9 -8 15 25 59 72 54 50 vhcurveto
            38 36 41 40 37 hhcurveto
            34 31 -37 -27 24 hvcurveto
            6 -5 6 -5 8 -2 rrcurveto
            -4 5 5 -3 4 261 callgsubr
            26 -49 callsubr
            39 rrcurveto
            98 -107 callgsubr
          </CharString>
          <CharString index="116">
            rmoveto
            -15 -2 -8 -20 -6 hvcurveto
            -162 -50 -119 -226 -77 hhcurveto
            -18 -16 15 22 hvcurveto
            132 107 156 37 vvcurveto
            28 -26 26 -23 -46 -98 -246 -126 -61 57 -63 56 44 52 37 60 44 vhcurveto
            -162 -54 -35 -129 -52 -62 -42 88 -24 hhcurveto
            -11 -23 -29 -19 -49 85 -57 76 77 44 60 96 34 hvcurveto
            105 298 73 199 27 vvcurveto
            41 -32 35 -23 vhcurveto
            return
          </CharString>
          <CharString index="117">
            -18 -13 -10 -19 hvcurveto
            -26 callsubr
            return
          </CharString>
          <CharString index="118">
            -55 -37 -69 -38 -79 -70 -19 60 -38 hhcurveto
            -12 -8 -17 -19 hvcurveto
            return
          </CharString>
          <CharString index="119">
            -39 callsubr
            -49 callsubr
            39 rrcurveto
            return
          </CharString>
          <CharString index="120">
            -116 -28 callgsubr
            return
          </CharString>
          <CharString index="121">
            hlineto
            -1 -3 -1 -3 -3 vvcurveto
            -20 33 -35 20 vhcurveto
            21 17 43 55 hhcurveto
            41 18 -23 -43 -85 -79 -55 -101 -19 hvcurveto
            28 -25 -26 21 -36 hhcurveto
            -31 -18 -18 -26 -38 43 -26 48 -5 hvcurveto
            return
          </CharString>
          <CharString index="122">
            -89 callgsubr
            -41 -16 -37 -23 -31 hvcurveto
            5 -2 -3 3 -4 166 callgsubr
            return
          </CharString>
          <CharString index="123">
            -106 callsubr
            116 -85 callgsubr
            119 -102 callsubr
            -127 hlineto
            -3 20 -9 35 -13 38 rrcurveto
            9 hlineto
            18 16 6 11 14 hvcurveto
            0 vlineto
            25 34 42 26 45 86 31 -65 26 hhcurveto
            7 4 5 10 46 -67 76 -93 -21 -20 -4 -7 -19 hvcurveto
            3 19 2 20 20 vvcurveto
            383 callsubr
            -12 -10 -19 vhcurveto
            -21 7 -26 -35 vvcurveto
            -59 -14 -59 -36 -13 -11 11 14 -8 vhcurveto
            60 -27 -32 50 -29 hhcurveto
            -12 -22 -5 -23 -13 6 -19 17 -23 hvcurveto
            51 -75 22 -86 22 -48 rrcurveto
            endchar
          </CharString>
          <CharString index="124">
            rmoveto
            -27 -32 48 33 29 75 7 87 8 hvcurveto
            -73 -30 -39 -52 -34 hhcurveto
            return
          </CharString>
          <CharString index="125">
            -5 callsubr
            -10 17 30 19 21 16 4 rrcurveto
            return
          </CharString>
          <CharString index="126">
            rmoveto
            -33 -79 -76 -26 -50 hhcurveto
            -21 146 callgsubr
            56 47 20 -96 -46 17 hvcurveto
            -278 412 29 callgsubr
            -15 -79 -15 -88 -16 -84 rrcurveto
            61 -17 -34 61 0 callsubr
            13 16 2 4 19 hvcurveto
            -6 -5 rlineto
            -60 -51 -76 -84 -26 vvcurveto
            -14 8 -10 17 28 67 82 47 48 vhcurveto
            39 38 45 38 36 23 rrcurveto
            -12 -53 -9 -42 -12 197 callsubr
            281 -104 callsubr
          </CharString>
          <CharString index="127">
            hlineto
            -8 0 -8 -9 vvcurveto
            -45 -2 -54 -5 -52 vhcurveto
            4 -27 -24 2 -31 hhcurveto
            -83 -65 -29 -70 -79 69 229 callsubr
            return
          </CharString>
          <CharString index="128">
            -106 callsubr
            39 hlineto
            -10 -57 -11 -57 -11 -58 -82 -107 -137 -66 -136 -4 rrcurveto
            136 77 91 130 118 vvcurveto
            81 -57 57 -74 return
          </CharString>
          <CharString index="129">
            35 7 58 23 47 hvcurveto
            -55 36 38 -33 38 hhcurveto
            52 49 65 45 21 -9 12 -16 -37 -7 -63 -7 -35 hvcurveto
            7 -35 -8 75 -70 hhcurveto
            return
          </CharString>
          <CharString index="130">
            -15 -70 -13 -57 -15 179 callgsubr
            33 27 111 110 25 vhcurveto
            197 121 182 186 68 248 callgsubr
            -7 -5 -6 -8 -2 hvcurveto
            -3 -5 -1 -5 -4 vvcurveto
            -27 198 -258 38 285 callsubr
            -45 61 vhcurveto
            300 callgsubr
            35 3 32 10 30 15 108 2 114 11 91 30 rrcurveto
            -22 -115 -26 -114 -28 callgsubr
            117 -107 callgsubr
          </CharString>
          <CharString index="131">
            143 callgsubr
            -3 -67 -6 -65 vhcurveto
            return
          </CharString>
          <CharString index="132">
            rmoveto
            -12 -15 -26 -20 -25 44 -57 20 12 8 9 15 28 -31 76 -26 hvcurveto
            -402 264 -106 callsubr
            312 hlineto
            -7 -23 -3 -27 -23 vvcurveto
            -6 0 -7 1 -6 vhcurveto
            7 -15 -15 5 -15 hhcurveto
            -78 -144 -69 -53 -20 22 352 callgsubr
            66 -37 147 -5 -52 vvcurveto
            -37 -38 -31 -74 -83 -32 33 38 -15 vhcurveto
            21 -9 -12 13 -19 hhcurveto
            -20 -8 193 callsubr
            154 -107 callgsubr
          </CharString>
          <CharString index="133">
            67 -35 49 -68 -88 -52 -84 -84 -46 18 -42 35 -22 vhcurveto
            -58 -96 -129 -39 -90 hhcurveto
            -8 -4 3 7 60 99 89 59 43 hvcurveto
            15 11 13 10 14 vvcurveto
            12 -10 8 -17 vhcurveto
            -28 316 callsubr
            118 67 hvcurveto
            30 2 -30 17 hhcurveto
            8 11 358 callgsubr
            return
          </CharString>
          <CharString index="134">
            rmoveto
            394 callsubr
            27 -35 73 -23 -21 -24 -30 -22 -27 46 -47 30 hvcurveto
            -150 hmoveto
            12 14 15 11 27 -35 73 -23 -21 -23 -30 -22 -27 45 -47 31 hvcurveto
            return
          </CharString>
          <CharString index="135">
            hlineto
            -8 -21 -4 -22 -21 205 callsubr
            19 vhcurveto
            return
          </CharString>
          <CharString index="136">
            rmoveto
            -26 -14 40 21 23 17 20 24 23 33 -14 -21 36 hvcurveto
            -30 -23 -41 -39 -29 hhcurveto
            -115 300 -64 callgsubr
            427 hlineto
            -12 -69 -13 -67 -13 -71 rrcurveto
            65 -73 -143 83 -73 hhcurveto
            -58 -29 -53 -49 -60 38 -72 64 57 57 52 46 33 hvcurveto
            35 -19 36 -25 34 -28 -45 -21 -84 -48 -61 -37 rrcurveto
            -93 -57 -92 -49 343 callgsubr
            76 45 60 97 vhcurveto
            44 27 59 33 46 30 rrcurveto
            -20 -90 -19 -76 78 callsubr
            154 -70 callsubr
          </CharString>
          <CharString index="137">
            rmoveto
            9 -22 -45 11 -58 hhcurveto
            -102 -63 -15 -25 -19 31 -38 21 hvcurveto
            38 31 11 48 hhcurveto
            67 35 -4 -15 hvcurveto
            -50 -322 -172 -76 vvcurveto
            -33 53 -60 62 107 186 30 46 18 -16 5 -23 vhcurveto
            -46 -93 -16 -100 hhcurveto
            -19 -7 7 10 hvcurveto
            39 296 144 111 vvcurveto
            23 -29 46 -30 13 vhcurveto
            return
          </CharString>
          <CharString index="138">
            -65 callsubr
            42 return
          </CharString>
          <CharString index="139">
            59 249 40 callsubr
            return
          </CharString>
          <CharString index="140">
            -59 -44 28 42 36 30 19 46 return
          </CharString>
          <CharString index="141">
            -72 41 51 -71 21 hhcurveto
            16 10 10 15 19 -43 53 -38 73 hvcurveto
            -10 19 -9 19 -9 18 rrcurveto
            -1 5 5 0 5 hhcurveto
            49 47 13 23 41 hvcurveto
            123 2 171 19 113 35 -1 -3 rcurveline
            -9 -45 -10 -46 -9 -40 rrcurveto
            9 -22 -27 6 -29 hhcurveto
            -132 -163 -65 -88 -57 67 -50 67 71 30 52 57 26 -5 30 -11 25 hvcurveto
            6 27 28 3 27 hhcurveto
            22 20 -3 -6 18 hvcurveto
            -9 -40 -6 -28 -10 vvcurveto
            -13 31 -33 13 21 37 256 callgsubr
          </CharString>
          <CharString index="142">
            -41 -13 -13 -21 -20 13 -15 41 hvcurveto
            276 -16 hlineto
            -30 -1 -40 -32 vvcurveto
            21 -39 -56 16 -50 hhcurveto
            -74 315 callgsubr
            -30 -32 -20 -47 -10 vhcurveto
            87 -37 -51 80 -87 hhcurveto
            -63 -50 -38 -60 -90 99 -53 115 12 12 0 1 12 hvcurveto
            -93 39 40 -101 35 hhcurveto
            13 8 7 15 23 -39 82 -31 76 hvcurveto
            76 16 52 38 63 141 -234 42 74 vvcurveto
            13 13 5 21 vhcurveto
            88 51 -50 24 hhcurveto
            4 3 1 1 2 hvcurveto
            25 12 12 86 69 vvcurveto
            12 -2 10 -3 10 vhcurveto
            370 callsubr
            return
          </CharString>
          <CharString index="143">
            40 20 -20 -44 -92 -84 -92 -105 -15 -11 5 6 -9 hvcurveto
            -13 10 -11 7 -11 1 rrcurveto
            1 -3 -3 0 -4 hhcurveto
            -6 -4 -4 -6 -3 hvcurveto
            -3 -5 -2 -5 -6 vvcurveto
            -17 45 -62 263 callgsubr
            20 hhcurveto
            285 callsubr
            -45 61 hvcurveto
            300 callgsubr
            return
          </CharString>
          <CharString index="144">
            rmoveto
            13 6 -6 -13 -55 -91 -62 -66 -5 -6 1 2 -5 hvcurveto
            68 45 70 65 39 hhcurveto
            return
          </CharString>
          <CharString index="145">
            645 -74 callgsubr
            return
          </CharString>
          <CharString index="146">
            vvcurveto
            -21 32 -27 12 22 37 255 callsubr
          </CharString>
          <CharString index="147">
            636 -63 callsubr
            return
          </CharString>
          <CharString index="148">
            202 callsubr
            -8 -1 -9 hvcurveto
            -4 -17 -17 -3 -21 hhcurveto
            257 175 -64 callgsubr
            65 hlineto
            -12 -68 -13 -68 -14 -71 -44 -2 -63 -7 -72 -10 rrcurveto
            14 59 8 59 49 208 callgsubr
            return
          </CharString>
          <CharString index="149">
            16 -50 hhcurveto
            -75 -33 -30 -43 hvcurveto
            -131 218 -46 -83 vvcurveto
            -33 -37 -25 -60 -8 vhcurveto
            86 -13 -40 90 -107 hhcurveto
            -57 -50 -39 -63 -90 100 -51 113 -3 hvcurveto
            -8 vlineto
            -85 -18 -53 -33 vvcurveto
            -16 5 -11 12 36 24 121 86 vhcurveto
            2 vlineto
            95 11 69 44 74 vvcurveto
            return
          </CharString>
          <CharString index="150">
            0 vlineto
            -1 vlineto
            -34 71 -95 50 -65 vhcurveto
            -56 42 53 -73 28 263 callsubr
            18 -50 326 callsubr
            -11 15 -13 19 -14 20 rrcurveto
            10 hlineto
            171 116 133 129 return
          </CharString>
          <CharString index="151">
            233 callgsubr
            hvcurveto
            return
          </CharString>
          <CharString index="152">
            -27 callsubr
            37 -26 18 18 return
          </CharString>
          <CharString index="153">
            -41 -14 17 29 38 33 63 33 return
          </CharString>
          <CharString index="154">
            120 12 36 5 20 vvcurveto
            21 -53 3 -117 -82 -94 -4 -24 -18 27 -31 27 return
          </CharString>
          <CharString index="155">
            51 -20 42 -41 16 vhcurveto
            3 13 3 14 4 14 7 24 8 17 6 12 119 callsubr
          </CharString>
          <CharString index="156">
            hlineto
            -24 -69 -23 -110 -81 vvcurveto
            -75 16 -65 52 return
          </CharString>
          <CharString index="157">
            14 -24 178 callgsubr
            72 29 52 56 28 -5 31 -12 25 hvcurveto
            9 32 33 5 28 hhcurveto
            37 28 -11 -27 35 hvcurveto
            -6 7 7 -4 226 callgsubr
            return
          </CharString>
          <CharString index="158">
            vvcurveto
            165 -361 rmoveto
            23 16 -14 -26 -43 -55 -32 -79 -7 hvcurveto
            70 8 31 52 56 hhcurveto
            return
          </CharString>
          <CharString index="159">
            135 645 -64 callgsubr
            203 hlineto
            -14 -19 -9 -22 -22 vvcurveto
            -21 21 -26 12 10 7 4 6 6 vhcurveto
            8 9 4 13 6 16 rrcurveto
            22 7 20 18 31 hhcurveto
            33 17 -28 -37 -54 -42 -47 -53 -33 hvcurveto
            5 -20 -21 2 -21 hhcurveto
            -47 -27 -11 -21 -21 34 -41 29 29 30 7 13 28 hvcurveto
            28 -15 17 -25 -32 vvcurveto
            -69 -68 -42 -95 -103 -71 40 72 vhcurveto
            44 23 14 28 vvcurveto
            16 -9 7 -15 -44 -30 -47 -56 -114 96 -75 152 145 98 79 103 return
          </CharString>
          <CharString index="160">
            rmoveto
            22 26 33 29 39 hvcurveto
            43 32 49 19 30 vvcurveto
            16 -10 10 -19 -18 -51 -23 -67 -74 vhcurveto
            60 -77 -13 64 -36 hhcurveto
            -18 -13 -16 -21 -55 129 -111 21 hvcurveto
            return
          </CharString>
          <CharString index="161">
            212 callgsubr
            -87 -32 vvcurveto
            -35 42 -40 32 71 88 20 23 72 vhcurveto
            -100 -98 -116 -139 -36 vvcurveto
            -13 8 -7 12 31 70 92 93 85 vhcurveto
            63 71 112 102 35 vvcurveto
            16 -11 8 -14 -53 -70 -82 -19 -230 vhcurveto
            96 64 89 102 108 vvcurveto
            30 -6 25 -10 21 vhcurveto
            230 -70 callsubr
          </CharString>
          <CharString index="162">
            484 309 rmoveto
            50 -234 158 -100 -58 -29 -53 -49 -60 38 -72 64 57 57 54 45 33 vhcurveto
            37 -20 34 -25 34 -28 -45 -21 -84 -48 -61 -37 rrcurveto
            -93 -57 -92 -49 343 callgsubr
            76 45 60 97 vhcurveto
            84 51 136 72 38 vvcurveto
            -319 36 rmoveto
            -26 -14 40 21 23 17 20 24 23 33 -14 -21 36 hvcurveto
            -30 -23 -41 -39 -29 hhcurveto
            354 231 239 callsubr
            -462 -7 callsubr
            return
          </CharString>
          <CharString index="163">
            198 callgsubr
            25 -12 hvcurveto
            66 -37 128 317 callgsubr
            -75 -36 33 40 -18 vhcurveto
            21 -9 -11 13 -21 hhcurveto
            -18 -9 -14 -19 -75 88 -66 111 return
          </CharString>
          <CharString index="164">
            92 callgsubr
            49 hvcurveto
            -55 -39 -37 -53 -49 vvcurveto
            return
          </CharString>
          <CharString index="165">
            -13 -83 -18 vvcurveto
            -25 19 -14 14 38 16 152 return
          </CharString>
          <CharString index="166">
            62 callsubr
            -30 12 -24 19 -22 hvcurveto
            -73 -27 -50 -63 -76 vvcurveto
            -112 91 -66 136 48 41 14 24 14 -15 5 -43 -104 -77 39 80 68 55 43 79 70 29 -35 -59 -23 3 -20 15 31 12 39 34 72 -54 64 -109 -7 -6 0 -1 -6 vhcurveto
            -10 13 -6 14 16 vvcurveto
            33 30 16 69 vhcurveto
            38 24 -3 24 hhcurveto
            8 6 1 2 6 hvcurveto
            25 6 8 47 49 136 callgsubr
            return
          </CharString>
          <CharString index="167">
            vvcurveto
            -65 62 -38 106 132 196 91 109 -8 callsubr
          </CharString>
          <CharString index="168">
            -56 42 53 -73 28 263 callsubr
            18 -50 326 callsubr
            -11 15 -13 19 -14 20 rrcurveto
            10 hlineto
            171 116 133 129 96 -66 77 -117 return
          </CharString>
          <CharString index="169">
            hlineto
            5 -21 6 -28 2 -51 rrcurveto
            4 -21 -25 1 -26 hhcurveto
            -95 -77 -35 -64 return
          </CharString>
          <CharString index="170">
            237 77 18 vhcurveto
            21 90 26 return
          </CharString>
          <CharString index="171">
            rmoveto
            -42 48 -49 61 -36 52 rrcurveto
            14 15 16 9 16 hhcurveto
            41 55 -75 -75 27 hvcurveto
            -14 -12 -14 -12 -15 -10 rrcurveto
            -206 -5 rmoveto
            30 17 48 24 40 vhcurveto
            36 -46 46 -51 42 -40 rrcurveto
            -22 -42 -42 -11 -37 hhcurveto
            -35 -9 18 34 hvcurveto
            return
          </CharString>
          <CharString index="172">
            302 callgsubr
            55 -138 11 139 vvcurveto
            58 57 28 96 return
          </CharString>
          <CharString index="173">
            -26 callsubr
            -111 76 10 -136 45 hhcurveto
            15 14 9 17 16 -10 42 -16 47 hvcurveto
            3 3 0 3 hhcurveto
            return
          </CharString>
          <CharString index="174">
            -106 callsubr
            88 hlineto
            -21 return
          </CharString>
          <CharString index="175">
            527 115 rmoveto
            -49 -37 39 47 -26 hvcurveto
            81 85 77 82 40 hhcurveto
            17 11 -10 -21 -87 -47 -131 -71 hvcurveto
            -359 1 rmoveto
            -23 -10 12 20 56 70 138 59 38 32 -56 -40 26 hvcurveto
            -69 -72 -70 -61 -50 hhcurveto
            448 321 rmoveto
            -56 -78 -74 -77 -80 hvcurveto
            56 -23 -51 73 -68 hhcurveto
            -109 -90 -190 -87 -45 64 -46 46 60 72 53 62 70 hvcurveto
            -64 34 56 -48 66 hhcurveto
            129 58 173 104 61 -40 49 -60 hvcurveto
            return
          </CharString>
          <CharString index="176">
            -74 37 163 -205 33 hhcurveto
            17 10 -15 callgsubr
            -13 18 -12 18 74 4 69 34 50 49 rrcurveto
            79 111 127 80 77 hhcurveto
            32 14 -18 -35 hvcurveto
            -114 -182 -87 -32 106 callgsubr
            107 122 55 86 89 vhcurveto
            -20 -101 -21 -92 -18 273 callgsubr
            40 14 16 19 20 -14 14 -40 hvcurveto
            endchar
          </CharString>
          <CharString index="177">
            46 callgsubr
            19 vhcurveto
            167 callgsubr
            return
          </CharString>
          <CharString index="178">
            -76 -28 -78 -59 -76 vvcurveto
            -66 49 -34 77 54 56 19 31 45 vhcurveto
            -41 5 11 -30 20 hhcurveto
            35 -18 78 94 16 hvcurveto
            5 28 7 28 9 25 rrcurveto
            86 15 77 43 62 318 callsubr
            -58 -49 -57 -72 -33 vhcurveto
            -18 hlineto
            -77 -46 67 callgsubr
            52 13 -37 108 callsubr
            7 6 hvcurveto
            10 7 2 14 17 vvcurveto
            96 23 48 13 31 vhcurveto
            161 -107 callgsubr
          </CharString>
          <CharString index="179">
            153 callgsubr
            hmoveto
            -20 callgsubr
            return
          </CharString>
          <CharString index="180">
            rmoveto
            1 14 0 14 12 vvcurveto
            132 -50 139 -146 194 callsubr
            vhcurveto
            161 callgsubr
            -275 -7 callsubr
            269 hlineto
            -25 -197 -78 -284 -56 vvcurveto
            -17 14 -15 18 40 82 347 222 26 vhcurveto
            128 -104 callsubr
          </CharString>
          <CharString index="181">
            -35 16 24 24 41 29 52 21 vhcurveto
            9 -19 4 -21 -19 vvcurveto
            return
          </CharString>
          <CharString index="182">
            -15 -98 -14 -83 -18 vvcurveto
            -25 20 -14 14 38 return
          </CharString>
          <CharString index="183">
            -25 -5 -21 -44 hhcurveto
            -48 -29 57 76 return
          </CharString>
          <CharString index="184">
            -30 -59 callsubr
          </CharString>
          <CharString index="185">
            -17 -5 callgsubr
            return
          </CharString>
          <CharString index="186">
            -57 8 -40 22 35 vvcurveto
            69 198 156 53 vhcurveto
            51 17 -50 26 hhcurveto
            11 8 7 9 4 hvcurveto
            3 8 2 10 14 vvcurveto
            96 12 39 4 35 102 callgsubr
          </CharString>
          <CharString index="187">
            163 callgsubr
            -33 -14 43 62 123 45 83 13 44 vhcurveto
            return
          </CharString>
          <CharString index="188">
            rmoveto
            -41 -32 67 35 33 30 15 51 25 24 -3 -3 20 hvcurveto
            -80 -13 -23 -64 -41 hhcurveto
            return
          </CharString>
          <CharString index="189">
            rmoveto
            98 35 80 133 33 hhcurveto
            24 5 -83 -77 -23 -1 -24 -1 -24 hvcurveto
            75 hmoveto
            3 35 1 35 35 vvcurveto
            102 -20 104 -77 -101 -107 -211 -100 -25 vhcurveto
            -72 129 callsubr
            316 hlineto
            -26 -230 -76 -247 -60 vvcurveto
            -15 11 -17 15 43 41 190 157 30 vhcurveto
            17 82 12 332 callgsubr
            endchar
          </CharString>
          <CharString index="190">
            -70 65 -88 67 75 63 88 112 40 vhcurveto
            return
          </CharString>
          <CharString index="191">
            20 88 27 -49 callsubr
            41 return
          </CharString>
          <CharString index="192">
            -21 93 callsubr
            return
          </CharString>
          <CharString index="193">
            120 callsubr
            23 50 237 77 18 vhcurveto
            21 90 26 return
          </CharString>
          <CharString index="194">
            112 167 104 rmoveto
            6 41 12 60 13 44 rrcurveto
            52 177 29 99 48 121 callgsubr
            -16 617 rmoveto
            -12 -8 -6 -14 -23 26 -32 44 -18 hvcurveto
            -9 -128 -112 -311 -83 150 callgsubr
            vhcurveto
            return
          </CharString>
          <CharString index="195">
            212 callgsubr
            -86 -33 vvcurveto
            -35 42 -40 32 145 245 85 66 15 -10 8 -18 -50 -69 -81 -26 -223 vhcurveto
            95 65 88 100 108 vvcurveto
            30 -6 25 -10 21 vhcurveto
            216 -104 callsubr
          </CharString>
          <CharString index="196">
            49 callsubr
            75 62 33 36 57 vhcurveto
            -15 -98 return
          </CharString>
          <CharString index="197">
            83 callsubr
            135 14 135 2 31 vvcurveto
            214 callgsubr
            -30 -30 -18 -27 -23 vhcurveto
            return
          </CharString>
          <CharString index="198">
            -22 45 callgsubr
            111 hvcurveto
            return
          </CharString>
          <CharString index="199">
            hhcurveto
            -28 -8 29 34 88 74 144 63 hvcurveto
            40 9 -71 35 hhcurveto
            17 8 13 21 37 -45 76 -54 return
          </CharString>
          <CharString index="200">
            -31 -16 -44 -50 vvcurveto
            return
          </CharString>
          <CharString index="201">
            162 callgsubr
            157 callgsubr
            224 204 callgsubr
            374 -43 callsubr
            -85 -66 -74 -87 -36 hvcurveto
            -62 -36 -105 -69 -155 -5 rrcurveto
            136 77 91 130 118 vvcurveto
            81 -58 57 -74 return
          </CharString>
          <CharString index="202">
            11 44 6 36 19 vvcurveto
            34 -48 32 -19 -16 -4 -11 -19 -46 -7 -50 -11 -51 vhcurveto
            -71 -12 -59 -17 -17 vvcurveto
            -19 26 -29 20 13 21 4 7 30 vhcurveto
            -35 -129 -47 -120 -51 vvcurveto
            return
          </CharString>
          <CharString index="203">
            hhcurveto
            21 37 174 140 33 hvcurveto
            109 callgsubr
          </CharString>
          <CharString index="204">
            99 callsubr
            -82 -141 -81 return
          </CharString>
          <CharString index="205">
            -13 -66 -12 -73 -13 -71 rrcurveto
            44 -28 -44 44 -51 hhcurveto
            return
          </CharString>
          <CharString index="206">
            4 -22 6 -31 -41 vvcurveto
            -120 return
          </CharString>
          <CharString index="207">
            -16 -73 -14 -60 -15 270 callgsubr
            33 27 111 110 25 vhcurveto
            57 29 57 33 52 33 rrcurveto
            -12 -35 -7 -37 -34 vvcurveto
            -73 26 -59 70 82 94 53 84 67 vhcurveto
            -18 -83 -17 -68 -16 vvcurveto
            -21 29 -27 12 22 37 324 callgsubr
            14 16 19 20 -14 14 -41 hvcurveto
            endchar
          </CharString>
          <CharString index="208">
            hvcurveto
            83 hlineto
            -10 -45 -9 -44 -9 -45 -61 -35 -77 -26 -81 -19 rrcurveto
            return
          </CharString>
          <CharString index="209">
            rrcurveto
            120 -107 callgsubr
          </CharString>
          <CharString index="210">
            511 -72 callsubr
            return
          </CharString>
          <CharString index="211">
            rmoveto
            -34 -19 -61 -65 -74 5 96 -29 hhcurveto
            -18 -27 -19 -36 -48 63 -61 68 71 82 63 43 15 -7 8 -16 hvcurveto
            endchar
          </CharString>
          <CharString index="212">
            rmoveto
            -21 -11 11 18 50 93 130 46 35 39 -52 -42 26 hvcurveto
            -63 -70 -94 -52 -43 hhcurveto
            return
          </CharString>
          <CharString index="213">
            11 20 14 11 vvcurveto
            14 -15 19 return
          </CharString>
          <CharString index="214">
            hlineto
            -6 -9 -3 -9 -9 vvcurveto
            -21 36 -25 18 16 9 17 14 11 vhcurveto
            15 11 21 10 25 hhcurveto
            42 20 -26 -48 -104 -91 -82 -114 hvcurveto
            -38 -19 42 -28 hhcurveto
            -11 -10 -17 -20 -7 2 -8 5 -9 hvcurveto
            17 -42 49 -77 38 -51 rrcurveto
            -78 60 53 -66 29 hhcurveto
            17 8 8 15 22 -56 61 -55 77 hvcurveto
            -16 22 -17 28 -19 28 return
          </CharString>
          <CharString index="215">
            26 hhcurveto
            8 7 4 return
          </CharString>
          <CharString index="216">
            hlineto
            -5 -25 -4 -26 -5 -25 rrcurveto
            -184 -43 -132 -88 -104 hhcurveto
            -36 -19 10 25 48 80 67 83 29 hvcurveto
            14 3 8 7 10 vvcurveto
            27 -29 17 -57 vhcurveto
            -148 hlineto
            172 callsubr
            -9 -14 36 -46 27 hvcurveto
            50 49 1 49 hhcurveto
            -55 -38 -40 -51 -51 vvcurveto
            -62 41 -41 79 86 89 40 74 69 vhcurveto
            return
          </CharString>
          <CharString index="217">
            rmoveto
            342 callsubr
            51 25 24 -3 -3 20 hvcurveto
            -80 -13 -23 -64 -41 hhcurveto
            return
          </CharString>
          <CharString index="218">
            -3 -19 -3 -22 -5 -19 -5 -17 -5 -13 -4 -11 return
          </CharString>
          <CharString index="219">
            33 callsubr
            67 return
          </CharString>
          <CharString index="220">
            314 callsubr
            625 hlineto
            303 callgsubr
            -47 -51 -127 -156 -109 -132 -11 rrcurveto
            86 63 88 83 96 vvcurveto
            63 -35 53 -76 -92 -134 -131 -101 -149 vhcurveto
            -89 -54 rmoveto
            -37 -67 -69 -25 -69 hhcurveto
            -21 146 callgsubr
            55 45 23 -91 -46 18 hvcurveto
            return
          </CharString>
          <CharString index="221">
            75 288 409 rmoveto
            0 vlineto
            -53 3 -74 18 26 vvcurveto
            34 116 57 43 vhcurveto
            32 13 -28 18 hhcurveto
            9 6 7 10 12 -8 14 -12 14 hvcurveto
            139 hlineto
            -11 -61 -11 -59 -12 -62 rrcurveto
            -90 -58 -143 -96 -115 hhcurveto
            -7 -5 3 6 20 38 42 51 37 hvcurveto
            21 16 50 32 21 vvcurveto
            15 -12 9 -14 vhcurveto
            return
          </CharString>
          <CharString index="222">
            -14 callsubr
            49 71 return
          </CharString>
          <CharString index="223">
            -34 -75 -66 -146 -71 callsubr
            return
          </CharString>
          <CharString index="224">
            81 callsubr
            -104 453 rmoveto
            -41 return
          </CharString>
          <CharString index="225">
            64 hvcurveto
            45 16 -59 26 hhcurveto
            return
          </CharString>
          <CharString index="226">
            rrcurveto
            115 -107 callgsubr
          </CharString>
          <CharString index="227">
            -265 94 645 rmoveto
            -49 -29 -7 -25 -25 41 -12 72 hvcurveto
            42 hlineto
            -15 -85 -17 -84 -54 callgsubr
            return
          </CharString>
          <CharString index="228">
            rmoveto
            -13 -73 -12 -72 -13 -79 rrcurveto
            -41 -75 -65 -31 -45 hhcurveto
            -11 -5 19 32 69 23 108 29 68 hvcurveto
            return
          </CharString>
          <CharString index="229">
            -73 87 -65 116 105 74 58 78 return
          </CharString>
          <CharString index="230">
            -71 -64 -36 -46 hhcurveto
            -13 -16 callsubr
            return
          </CharString>
          <CharString index="231">
            107 callgsubr
            -56 -4 -91 -9 -84 vhcurveto
            -113 -11 -90 -28 373 callgsubr
            69 39 96 115 22 vhcurveto
            1 23 23 0 24 return
          </CharString>
          <CharString index="232">
            -12 18 vhcurveto
            311 callgsubr
            return
          </CharString>
          <CharString index="233">
            hhcurveto
            34 -18 78 94 16 hvcurveto
            5 28 7 27 9 26 rrcurveto
            86 15 77 43 62 384 callsubr
            -58 -50 -57 -72 -33 vhcurveto
            -18 hlineto
            -76 -46 67 callgsubr
            51 13 -37 26 hhcurveto
            7 7 4 5 6 hvcurveto
            11 7 3 15 18 vvcurveto
            96 22 48 13 31 vhcurveto
            return
          </CharString>
          <CharString index="234">
            -9 12 -4 12 16 vvcurveto
            55 44 35 257 callgsubr
            6 5 12 44 -65 62 -87 return
          </CharString>
          <CharString index="235">
            291 -106 callsubr
            return
          </CharString>
          <CharString index="236">
            hlineto
            -81 callsubr
            return
          </CharString>
          <CharString index="237">
            69 44 callsubr
            return
          </CharString>
          <CharString index="238">
            rmoveto
            17 16 16 32 45 hvcurveto
            250 callsubr
            -44 -44 -18 -18 -22 vvcurveto
            -16 12 -13 14 vhcurveto
            return
          </CharString>
          <CharString index="239">
            rmoveto
            306 callsubr
            -89 190 -252 54 15 14 7 14 14 -29 29 -32 37 vhcurveto
            127 callsubr
            hvcurveto
            endchar
          </CharString>
          <CharString index="240">
            -177 rmoveto
            28 9 -23 -29 -45 -29 -41 -45 -36 hvcurveto
            -17 8 -18 17 43 vvcurveto
            55 27 51 45 vhcurveto
            -479 246 -106 callsubr
            194 hlineto
            -94 -41 -92 -102 -72 vvcurveto
            -47 45 -26 54 -4 vhcurveto
            -62 -53 -58 -79 -60 360 callsubr
            return
          </CharString>
          <CharString index="241">
            vvcurveto
            -158 141 -77 157 53 42 14 27 15 -20 4 -44 -130 -121 54 122 return
          </CharString>
          <CharString index="242">
            rrcurveto
            112 callgsubr
            return
          </CharString>
          <CharString index="243">
            -265 94 645 rmoveto
            -49 -29 -7 -25 -25 41 -12 72 hvcurveto
            43 hlineto
            -15 -85 -18 -84 -54 callgsubr
            24 49 237 77 18 -4 callgsubr
            107 hlineto
            47 21 164 callsubr
            return
          </CharString>
          <CharString index="244">
            -89 callsubr
            121 return
          </CharString>
          <CharString index="245">
            -81 139 callsubr
            return
          </CharString>
          <CharString index="246">
            417 343 -59 callgsubr
            return
          </CharString>
          <CharString index="247">
            144 rmoveto
            -82 -94 -4 -24 -18 27 -31 27 226 callsubr
            vhcurveto
            endchar
          </CharString>
          <CharString index="248">
            316 callgsubr
            -6 31 -12 25 hvcurveto
            9 33 32 5 28 hhcurveto
            return
          </CharString>
          <CharString index="249">
            -89 callgsubr
            hvcurveto
            return
          </CharString>
          <CharString index="250">
            132 135 84 80 return
          </CharString>
          <CharString index="251">
            rrcurveto
            -93 -56 -99 -55 -25 vvcurveto
            -16 12 -13 20 21 79 51 59 97 vhcurveto
            return
          </CharString>
          <CharString index="252">
            hhcurveto
            -34 -10 53 222 callsubr
            return
          </CharString>
          <CharString index="253">
            2 12 1 13 13 -103 callgsubr
            return
          </CharString>
          <CharString index="254">
            hhcurveto
            100 callgsubr
          </CharString>
          <CharString index="255">
            183 -5 callsubr
            return
          </CharString>
          <CharString index="256">
            329 callsubr
            -44 22 -54 hhcurveto
            -83 -55 -53 -64 -65 57 -54 79 -5 hvcurveto
            -32 -60 -67 -17 -69 hhcurveto
            return
          </CharString>
          <CharString index="257">
            191 callgsubr
            228 callgsubr
            return
          </CharString>
          <CharString index="258">
            -17 -90 rrcurveto
            -22 -121 return
          </CharString>
          <CharString index="259">
            105 callgsubr
            -183 -137 rmoveto
            8 8 -1 8 hhcurveto
            -10 -36 -6 -36 -2 -32 rrcurveto
            -38 -44 -52 -20 -56 hhcurveto
            -38 -22 12 28 70 127 53 73 hvcurveto
            return
          </CharString>
          <CharString index="260">
            hlineto
            -1 -5 -22 -100 -11 -83 -18 -79 rlinecurve
            100 -18 -42 102 -80 hhcurveto
            return
          </CharString>
          <CharString index="261">
            576 rmoveto
            -10 -58 -11 -57 -12 -59 -88 -34 -135 -26 -116 -11 rrcurveto
            38 44 24 54 56 -27 callgsubr
            57 -522 rmoveto
            -29 -12 -26 -33 381 callsubr
            53 19 vhcurveto
            9 -19 4 -21 -19 vvcurveto
            return
          </CharString>
          <CharString index="262">
            190 146 35 vhcurveto
            24 98 35 184 49 vvcurveto
            16 -37 36 -23 -11 -4 -6 -13 -1 vhcurveto
            -6 -70 -31 -183 return
          </CharString>
          <CharString index="263">
            102 38 callsubr
            return
          </CharString>
          <CharString index="264">
            250 345 308 rmoveto
            125 172 143 169 44 vvcurveto
            22 -21 43 -19 -10 -5 -9 -15 -11 vhcurveto
            -275 -402 -204 -266 1 -38 rrcurveto
            -18 22 -24 11 17 53 76 246 173 vhcurveto
            endchar
          </CharString>
          <CharString index="265">
            hlineto
            47 21 164 callsubr
            endchar
          </CharString>
          <CharString index="266">
            -61 -54 -56 -78 -59 89 callgsubr
          </CharString>
          <CharString index="267">
            -1 rrcurveto
            -4 5 5 -3 4 213 callgsubr
            return
          </CharString>
          <CharString index="268">
            344 callgsubr
            -44 -2 -55 -5 -52 vhcurveto
            4 -26 -26 2 -30 hhcurveto
            return
          </CharString>
          <CharString index="269">
            vvcurveto
            20 -2 22 -4 20 vhcurveto
            -2 8 8 -1 11 hhcurveto
            -245 return
          </CharString>
          <CharString index="270">
            -64 69 -97 69 130 callgsubr
            vhcurveto
            return
          </CharString>
          <CharString index="271">
            15 19 23 -27 12 -56 hvcurveto
            return
          </CharString>
          <CharString index="272">
            -20 -26 -32 -45 -48 return
          </CharString>
          <CharString index="273">
            645 rmoveto
            -23 42 -125 99 94 93 callgsubr
            return
          </CharString>
          <CharString index="274">
            33 callgsubr
            -224 -486 75 callgsubr
            return
          </CharString>
          <CharString index="275">
            rmoveto
            16 11 -16 -21 -29 -17 -20 -17 -15 -11 16 20 30 18 20 15 hvcurveto
            return
          </CharString>
          <CharString index="276">
            12 31 38 13 45 hhcurveto
            65 43 -20 -42 -112 -191 -57 -63 -49 hvcurveto
            return
          </CharString>
          <CharString index="277">
            -27 13 49 callgsubr
            return
          </CharString>
          <CharString index="278">
            4 18 callgsubr
            return
          </CharString>
          <CharString index="279">
            -49 -35 4 -34 hhcurveto
            -14 -8 -4 return
          </CharString>
          <CharString index="280">
            -24 -48 -100 -96 -93 -103 return
          </CharString>
          <CharString index="281">
            519 rmoveto
            -15 -57 -32 -62 -39 -50 -40 63 -49 91 -35 72 rrcurveto
            220 hlineto
            -244 -332 rmoveto
            -22 -16 43 67 52 5 52 12 49 hvcurveto
            36 -68 52 -80 42 -54 rrcurveto
            -37 -36 -39 -24 -34 hhcurveto
            return
          </CharString>
          <CharString index="282">
            20 87 26 124 4 40 rrcurveto
            -397 69 rmoveto
            246 callgsubr
            -14 -70 -13 -77 -14 -74 rrcurveto
            59 -18 -34 59 -58 -36 callsubr
            return
          </CharString>
          <CharString index="283">
            -77 callsubr
            116 hlineto
            41 return
          </CharString>
          <CharString index="284">
            -252 174 callgsubr
            46 20 -93 -47 17 vhcurveto
            -35 -79 -75 -27 -50 185 callsubr
            return
          </CharString>
          <CharString index="285">
            -11 -51 -21 -123 -10 -50 rrcurveto
            49 -31 -37 50 -52 hhcurveto
            return
          </CharString>
          <CharString index="286">
            30 -74 4 -78 vhcurveto
            -12 -12 0 -14 hhcurveto
            7 53 4 39 17 vvcurveto
            41 -41 46 -21 -17 -5 -9 -21 -43 -6 -60 -9 -67 vhcurveto
            -92 -5 -89 -12 -19 vvcurveto
            -17 23 -35 18 33 34 5 6 62 vhcurveto
            return
          </CharString>
          <CharString index="287">
            185 callsubr
            -34 446 -14 callsubr
            return
          </CharString>
          <CharString index="288">
            127 -227 -7 32 vvcurveto
            27 101 22 40 vhcurveto
            31 22 -15 18 hhcurveto
            0 1 vlineto
            21 11 13 32 return
          </CharString>
          <CharString index="289">
            vhcurveto
            38 24 -3 24 hhcurveto
            8 7 1 2 6 hvcurveto
            24 7 8 44 51 136 callgsubr
            return
          </CharString>
          <CharString index="290">
            rmoveto
            -29 -34 38 27 29 64 6 87 9 hvcurveto
            -63 -26 -33 -46 -29 hhcurveto
            return
          </CharString>
          <CharString index="291">
            15 61 9 64 59 208 callgsubr
            return
          </CharString>
          <CharString index="292">
            hhcurveto
            -20 -8 8 18 hvcurveto
            return
          </CharString>
          <CharString index="293">
            209 callgsubr
            -28 -24 vhcurveto
            1 -4 return
          </CharString>
          <CharString index="294">
            -295 215 200 callsubr
            return
          </CharString>
          <CharString index="295">
            -31 rmoveto
            319 callgsubr
            37 3 15 284 callgsubr
            return
          </CharString>
          <CharString index="296">
            rmoveto
            -23 -14 -4 -7 -8 hvcurveto
            33 -18 -29 23 -45 hhcurveto
            return
          </CharString>
          <CharString index="297">
            -105 -162 -171 -130 -49 28 -33 57 return
          </CharString>
          <CharString index="298">
            -28 -42 -35 -98 hhcurveto
            -55 -29 return
          </CharString>
          <CharString index="299">
            -10 -26 callgsubr
            return
          </CharString>
          <CharString index="300">
            -16 -21 122 callsubr
            hvcurveto
            137 -248 -13 32 vvcurveto
            29 105 33 40 vhcurveto
            31 22 -16 18 hhcurveto
            0 1 vlineto
            21 11 17 31 62 7 33 5 24 hvcurveto
            return
          </CharString>
          <CharString index="301">
            -197 -194 -268 -81 -14 11 -14 15 28 14 19 27 17 return
          </CharString>
          <CharString index="302">
            576 rmoveto
            21 callgsubr
            return
          </CharString>
          <CharString index="303">
            199 callsubr
            vhcurveto
            return
          </CharString>
          <CharString index="304">
            379 callgsubr
            148 64 145 81 30 vvcurveto
            17 -8 4 -15 -23 -110 -60 -56 -119 vhcurveto
            11 51 84 callsubr
            rlinecurve
            return
          </CharString>
          <CharString index="305">
            -23 -64 -43 -66 hhcurveto
            -14 -8 5 14 13 10 41 31 99 hvcurveto
            16 51 15 52 13 48 rrcurveto
            return
          </CharString>
          <CharString index="306">
            293 callsubr
            30 return
          </CharString>
          <CharString index="307">
            444 4 callgsubr
            return
          </CharString>
          <CharString index="308">
            vvcurveto
            -21 29 170 callsubr
            return
          </CharString>
          <CharString index="309">
            rmoveto
            46 callsubr
            37 8 -55 -60 -8 0 return
          </CharString>
          <CharString index="310">
            462 -106 callsubr
            return
          </CharString>
          <CharString index="311">
            499 -74 callgsubr
            return
          </CharString>
          <CharString index="312">
            vvcurveto
            46 callgsubr
            return
          </CharString>
          <CharString index="313">
            63 75 53 54 vhcurveto
            38 return
          </CharString>
          <CharString index="314">
            7 3 5 5 hvcurveto
            return
          </CharString>
          <CharString index="315">
            -86 710 rmoveto
            -13 16 -6 18 17 vvcurveto
            54 47 33 257 callgsubr
            6 5 12 46 -68 60 -84 -103 -70 -65 -82 -25 9 -24 19 -26 hvcurveto
            return
          </CharString>
          <CharString index="316">
            vvcurveto
            78 -52 69 -79 -110 -66 -86 -84 return
          </CharString>
          <CharString index="317">
            -61 3 -65 3 callgsubr
            -156 -420 -34 callsubr
            return
          </CharString>
          <CharString index="318">
            hlineto
            -27 callsubr
            36 -26 18 18 7 18 14 13 vhcurveto
            13 12 18 353 callsubr
            -12 43 -37 hhcurveto
            return
          </CharString>
          <CharString index="319">
            hlineto
            -60 -32 -55 -48 -40 vvcurveto
            -44 57 -33 57 -14 vhcurveto
            -17 -11 -16 -13 -13 -12 rrcurveto
            -45 -41 -28 -42 -35 vvcurveto
            -40 30 -30 56 95 114 53 64 78 vhcurveto
            return
          </CharString>
          <CharString index="320">
            5 -3 171 callsubr
            return
          </CharString>
          <CharString index="321">
            rmoveto
            96 -71 56 -88 -82 -78 -67 -74 -22 35 -40 13 12 17 7 7 3 vhcurveto
            4 11 -4 5 19 vvcurveto
            39 37 28 42 38 35 -27 -42 vhcurveto
            -108 return
          </CharString>
          <CharString index="322">
            -8 135 callsubr
            return
          </CharString>
          <CharString index="323">
            hlineto
            4 -20 5 -28 2 -48 rrcurveto
            3 -20 -23 2 -25 hhcurveto
            return
          </CharString>
          <CharString index="324">
            -5 -30 -7 -29 -8 -29 return
          </CharString>
          <CharString index="325">
            1 94 13 78 19 rrcurveto
            -3 -11 -2 -12 266 callsubr
            return
          </CharString>
          <CharString index="326">
            -77 callsubr
            117 -70 callsubr
          </CharString>
          <CharString index="327">
            196 634 -196 hlineto
            236 -185 rmoveto
            196 185 -196 hlineto
            return
          </CharString>
          <CharString index="328">
            rrcurveto
            -47 -44 -43 -61 -38 vvcurveto
            -40 28 -31 56 return
          </CharString>
          <CharString index="329">
            58 72 16 79 25 67 hvcurveto
            return
          </CharString>
          <CharString index="330">
            vvcurveto
            -18 14 -14 return
          </CharString>
          <CharString index="331">
            42 16 -36 -43 hvcurveto
            -48 -19 -30 -25 vvcurveto
            -16 7 125 callsubr
            89 75 63 70 hvcurveto
            23 20 24 22 22 20 -14 -72 rcurveline
            return
          </CharString>
          <CharString index="332">
            rmoveto
            -55 -44 -55 -54 -47 34 -39 45 55 44 55 53 48 -34 39 -45 hvcurveto
            return
          </CharString>
          <CharString index="333">
            288 callgsubr
            hvcurveto
            120 12 36 5 20 vvcurveto
            21 -53 3 -117 return
          </CharString>
          <CharString index="334">
            32 114 10 63 38 vvcurveto
            13 -4 14 -6 13 vhcurveto
            return
          </CharString>
          <CharString index="335">
            231 callsubr
            32 21 20 30 return
          </CharString>
          <CharString index="336">
            -103 79 119 44 196 182 return
          </CharString>
          <CharString index="337">
            326 callgsubr
            16 return
          </CharString>
          <CharString index="338">
            20 -15 36 31 vvcurveto
            return
          </CharString>
          <CharString index="339">
            334 rmoveto
            -9 -2 -6 -7 -2 -9 rrcurveto
            -129 -33 -97 -89 -58 hhcurveto
            -24 -23 14 24 83 133 209 82 27 10 -43 -50 hvcurveto
            return
          </CharString>
          <CharString index="340">
            576 275 callsubr
            -174 -120 -141 268 callgsubr
            return
          </CharString>
          <CharString index="341">
            rmoveto
            8 8 -1 8 hhcurveto
            -8 -27 -5 -26 -3 -26 -5 -9 -7 -8 -7 -8 -29 28 -28 31 -23 31 rrcurveto
            10 28 30 5 27 hhcurveto
            return
          </CharString>
          <CharString index="342">
            hlineto
            45 callsubr
            6 18 14 13 339 callgsubr
            return
          </CharString>
          <CharString index="343">
            rmoveto
            28 22 16 25 58 27 -52 -66 11 vhcurveto
            -78 3 -65 26 45 vvcurveto
            return
          </CharString>
          <CharString index="344">
            hhcurveto
            -17 202 callgsubr
            return
          </CharString>
          <CharString index="345">
            576 rmoveto
            -53 callsubr
            return
          </CharString>
          <CharString index="346">
            rmoveto
            -105 callgsubr
            return
          </CharString>
          <CharString index="347">
            298 hlineto
            41 13 -97 callsubr
            return
          </CharString>
          <CharString index="348">
            -22 6 -17 hhcurveto
            return
          </CharString>
          <CharString index="349">
            hlineto
            -13 -71 -13 -69 -14 -73 rrcurveto
            75 -31 -51 79 -63 hhcurveto
            -118 -91 -161 -99 -76 31 -46 80 67 85 32 47 60 hvcurveto
            return
          </CharString>
          <CharString index="350">
            46 -137 25 113 vvcurveto
            60 51 22 96 40 return
          </CharString>
          <CharString index="351">
            287 -106 callsubr
            return
          </CharString>
          <CharString index="352">
            510 -106 callsubr
            return
          </CharString>
          <CharString index="353">
            vvcurveto
            -21 32 -27 12 22 return
          </CharString>
          <CharString index="354">
            hlineto
            -5 0 -5 -5 vvcurveto
            -46 -3 vlineto
            -85 -93 -55 -74 -47 43 -30 44 -13 hvcurveto
            -60 -34 -58 -57 -44 vvcurveto
            -40 41 -32 48 return
          </CharString>
          <CharString index="355">
            511 rmoveto
            -35 -150 -177 -125 -144 268 callgsubr
            198 hlineto
            return
          </CharString>
          <CharString index="356">
            -50 339 callsubr
            return
          </CharString>
          <CharString index="357">
            67 45 27 9 31 vvcurveto
            25 -20 32 -22 165 callsubr
            vhcurveto
            return
          </CharString>
          <CharString index="358">
            -151 -197 -97 return
          </CharString>
          <CharString index="359">
            -6 161 262 rmoveto
            63 59 115 52 40 48 -86 -71 14 vhcurveto
            -52 -56 -59 -19 -62 hhcurveto
            -29 -7 14 36 hvcurveto
            return
          </CharString>
          <CharString index="360">
            295 rmoveto
            -3 -12 rlineto
            -111 -43 -115 -77 -44 hhcurveto
            -23 -21 15 25 99 94 194 92 35 28 -56 -72 hvcurveto
            return
          </CharString>
          <CharString index="361">
            hlineto
            -5 -14 -3 -15 -15 238 callgsubr
            -70 -19 60 -38 hhcurveto
            return
          </CharString>
          <CharString index="362">
            174 140 32 vhcurveto
            148 callgsubr
          </CharString>
          <CharString index="363">
            rmoveto
            -3 -20 -4 -19 -4 -20 -55 return
          </CharString>
          <CharString index="364">
            454 rmoveto
            -59 -44 29 46 39 34 28 54 61 44 -42 -62 -9 -1 -10 -1 -9 hvcurveto
            -5 -26 -30 -5 -32 hhcurveto
            return
          </CharString>
          <CharString index="365">
            576 121 callsubr
            return
          </CharString>
          <CharString index="366">
            47 callgsubr
            -100 -96 -93 -103 return
          </CharString>
          <CharString index="367">
            -129 -91 -185 -126 -74 26 -59 69 return
          </CharString>
          <CharString index="368">
            301 callgsubr
            -14 10 -4 12 return
          </CharString>
          <CharString index="369">
            -75 31 -53 79 74 99 47 49 57 return
          </CharString>
          <CharString index="370">
            hhcurveto
            17 10 10 15 return
          </CharString>
          <CharString index="371">
            rrcurveto
            20 -21 -26 15 -28 hhcurveto
            -121 -105 -133 -157 -99 58 -63 66 148 120 196 188 return
          </CharString>
          <CharString index="372">
            -5 -26 -6 -25 -7 -25 rrcurveto
            -130 -14 -127 -4 -81 vvcurveto
            -70 64 -88 68 77 63 88 110 39 vhcurveto
            return
          </CharString>
          <CharString index="373">
            -13 272 callsubr
            return
          </CharString>
          <CharString index="374">
            -20 -44 -92 -83 -92 -105 -15 -11 5 5 -9 hvcurveto
            -13 11 -12 7 -11 1 rrcurveto
            1 -3 -3 0 -4 hhcurveto
            return
          </CharString>
          <CharString index="375">
            -10 -5 -4 -12 -89 190 -252 54 15 14 7 14 return
          </CharString>
          <CharString index="376">
            65 223 callgsubr
            return
          </CharString>
          <CharString index="377">
            46 7 53 12 51 return
          </CharString>
          <CharString index="378">
            43 -37 hhcurveto
            -7 return
          </CharString>
          <CharString index="379">
            vvcurveto
            278 callsubr
            return
          </CharString>
          <CharString index="380">
            vvcurveto
            89 -45 72 -96 -88 -59 -58 -45 -20 12 -11 17 vhcurveto
            34 9 68 86 hhcurveto
            42 19 -35 -45 -92 return
          </CharString>
          <CharString index="381">
            hhcurveto
            -137 -151 -25 -86 -84 112 -95 80 81 33 86 63 29 -2 25 -6 18 hvcurveto
            3 hlineto
            return
          </CharString>
          <CharString index="382">
            rmoveto
            -5 -25 -4 -24 -5 -25 -39 -146 return
          </CharString>
          <CharString index="383">
            264 callgsubr
            vhcurveto
            return
          </CharString>
          <CharString index="384">
            146 24 callgsubr
            return
          </CharString>
          <CharString index="385">
            76 callgsubr
            vhcurveto
            55 -138 11 139 vvcurveto
            58 57 28 96 return
          </CharString>
          <CharString index="386">
            hvcurveto
            -270 -390 -208 -275 -42 vvcurveto
            -17 22 -24 10 20 54 76 246 170 vhcurveto
            return
          </CharString>
          <CharString index="387">
            hlineto
            -87 -48 -80 -99 -68 vvcurveto
            -48 45 -26 51 -4 vhcurveto
            return
          </CharString>
          <CharString index="388">
            -36 callsubr
            63 66 return
          </CharString>
          <CharString index="389">
            276 callgsubr
            -4 -1 -2 return
          </CharString>
          <CharString index="390">
            vvcurveto
            -40 29 -32 63 64 75 14 26 71 vhcurveto
            -4 -23 return
          </CharString>
          <CharString index="391">
            148 107 callgsubr
            return
          </CharString>
          <CharString index="392">
            17 9 126 callgsubr
            return
          </CharString>
          <CharString index="393">
            -22 32 -18 53 -37 return
          </CharString>
          <CharString index="394">
            18 37 2 35 9 return
          </CharString>
          <CharString index="395">
            -106 callsubr
            97 hlineto
            -21 -64 -13 -79 -69 vvcurveto
            -102 29 -102 82 return
          </CharString>
          <CharString index="396">
            294 callsubr
            -85 return
          </CharString>
          <CharString index="397">
            22 34 67 hvcurveto
            -16 -72 -13 -58 -15 179 callgsubr
            33 27 113 112 26 vhcurveto
            return
          </CharString>
          <CharString index="398">
            184 266 callgsubr
            -3 -4 -10 -4 -17 -20 -15 -33 -11 15 30 15 20 15 3 rrcurveto
            return
          </CharString>
          <CharString index="399">
            21 90 26 314 callgsubr
          </CharString>
          <CharString index="400">
            183 133 return
          </CharString>
          <CharString index="401">
            hlineto
            -1 -3 -1 -3 -3 vvcurveto
            -20 34 -35 20 vhcurveto
            21 16 43 56 hhcurveto
            40 19 -23 -43 return
          </CharString>
          <CharString index="402">
            118 -47 callsubr
            return
          </CharString>
          <CharString index="403">
            rmoveto
            -29 -12 -26 -32 381 callsubr
            51 22 vhcurveto
            10 -20 4 -22 -20 vvcurveto
            return
          </CharString>
          <CharString index="404">
            483 -106 callsubr
            return
          </CharString>
          <CharString index="405">
            482 -106 callsubr
            return
          </CharString>
          <CharString index="406">
            11 13 32 60 6 31 5 23 hvcurveto
            return
          </CharString>
          <CharString index="407">
            hhcurveto
            -84 -54 -52 -64 -64 return
          </CharString>
          <CharString index="408">
            80 100 55 35 12 return
          </CharString>
          <CharString index="409">
            63 49 11 -4 10 return
          </CharString>
          <CharString index="410">
            92 29 125 return
          </CharString>
          <CharString index="411">
            -158 -46 -39 -113 vhcurveto
            11 0 11 1 10 vhcurveto
            4 67 21 39 13 24 rrcurveto
            return
          </CharString>
          <CharString index="412">
            42 hhcurveto
            72 97 27 32 10 -9 4 -20 hvcurveto
            -32 -41 -12 -55 hhcurveto
            -59 -38 6 15 return
          </CharString>
          <CharString index="413">
            -81 -59 -43 -60 -19 hvcurveto
            -12 22 -8 24 23 vvcurveto
            35 -69 55 -37 -10 -5 -4 -12 return
          </CharString>
          <CharString index="414">
            hhcurveto
            -72 -44 37 40 -35 hvcurveto
            122 27 86 90 102 vvcurveto
            31 -7 29 -13 24 vhcurveto
            return
          </CharString>
          <CharString index="415">
            hlineto
            -16 -35 -10 -45 -1 -35 rrcurveto
            12 -19 -21 8 -18 hhcurveto
            -96 -152 -161 -106 return
          </CharString>
          <CharString index="416">
            rmoveto
            363 callsubr
            28 -36 68 -22 hvcurveto
            endchar
          </CharString>
          <CharString index="417">
            -7 callsubr
            endchar
          </CharString>
          <CharString index="418">
            hlineto
            -25 -119 -117 -10 -170 -7 -100 -8 rlinecurve
            -5 -5 -1 -2 -4 hvcurveto
            return
          </CharString>
          <CharString index="419">
            98 129 30 vhcurveto
            8 34 11 41 13 39 rrcurveto
            80 17 68 42 58 vvcurveto
            42 return
          </CharString>
          <CharString index="420">
            66 rmoveto
            26 -29 72 -25 -11 -14 -26 -18 -23 41 -54 19 11 8 8 15 vhcurveto
            return
          </CharString>
          <CharString index="421">
            321 rmoveto
            84 callsubr
            rrcurveto
            return
          </CharString>
          <CharString index="422">
            -5 -14 -3 -15 -15 vvcurveto
            -74 68 -66 111 return
          </CharString>
          <CharString index="423">
            362 callsubr
            -34 -16 331 callgsubr
            return
          </CharString>
          <CharString index="424">
            22 37 -73 callgsubr
            32 return
          </CharString>
          <CharString index="425">
            242 callgsubr
            -47 return
          </CharString>
          <CharString index="426">
            373 callsubr
            16 return
          </CharString>
          <CharString index="427">
            hmoveto
            -86 callsubr
            return
          </CharString>
          <CharString index="428">
            rmoveto
            0 vlineto
            0 vlineto
            1 vlineto
            0 vlineto
            0 vlineto
            37 -142 -9 52 vvcurveto
            32 return
          </CharString>
          <CharString index="429">
            -74 callgsubr
            284 callsubr
            return
          </CharString>
          <CharString index="430">
            hhcurveto
            -21 -8 8 22 hvcurveto
            61 143 144 24 vvcurveto
            17 -22 22 -16 -30 return
          </CharString>
          <CharString index="431">
            21 88 30 287 callgsubr
            return
          </CharString>
          <CharString index="432">
            -67 -16 -75 -77 vvcurveto
            -97 return
          </CharString>
          <CharString index="433">
            70 -45 61 hvcurveto
            return
          </CharString>
          <CharString index="434">
            -9 135 callsubr
            415 hlineto
            return
          </CharString>
          <CharString index="435">
            -122 rmoveto
            372 callsubr
            -14 return
          </CharString>
          <CharString index="436">
            344 callsubr
            rrcurveto
            29 -30 return
          </CharString>
          <CharString index="437">
            185 179 20 -12 23 -14 19 vhcurveto
            return
          </CharString>
          <CharString index="438">
            55 34 hvcurveto
            19 return
          </CharString>
          <CharString index="439">
            334 350 callsubr
            return
          </CharString>
          <CharString index="440">
            39 119 callsubr
          </CharString>
          <CharString index="441">
            349 callsubr
            endchar
          </CharString>
          <CharString index="442">
            3 7 16 26 28 37 28 hvcurveto
            43 33 59 22 2 17 rrcurveto
            return
          </CharString>
          <CharString index="443">
            -8 rrcurveto
            95 57 102 106 111 vvcurveto
            28 -6 26 -11 21 vhcurveto
            return
          </CharString>
          <CharString index="444">
            10 10 15 16 -55 326 callsubr
            387 callsubr
            -12 18 return
          </CharString>
          <CharString index="445">
            206 160 146 198 145 -97 111 -160 return
          </CharString>
          <CharString index="446">
            2 -52 3 callgsubr
            return
          </CharString>
          <CharString index="447">
            vhcurveto
            73 -432 rmoveto
            -10 -10 -7 -15 -32 -2 -29 -4 -28 hvcurveto
            return
          </CharString>
          <CharString index="448">
            -13 7 -7 14 27 73 77 65 88 return
          </CharString>
          <CharString index="449">
            -41 -33 67 35 33 31 15 return
          </CharString>
          <CharString index="450">
            21 41 199 callsubr
            return
          </CharString>
          <CharString index="451">
            rmoveto
            303 callgsubr
            -48 return
          </CharString>
          <CharString index="452">
            9 22 vvcurveto
            16 -21 10 -39 return
          </CharString>
          <CharString index="453">
            251 callsubr
            -84 return
          </CharString>
          <CharString index="454">
            14 80 2 30 rrcurveto
            return
          </CharString>
          <CharString index="455">
            18 92 14 87 11 72 rrcurveto
            123 10 77 9 21 vvcurveto
            return
          </CharString>
          <CharString index="456">
            vvcurveto
            -35 42 -29 42 40 76 13 36 15 -15 14 -15 vhcurveto
            return
          </CharString>
          <CharString index="457">
            630 rmoveto
            13 6 -6 -13 -55 -91 -62 -66 -5 -6 1 return
          </CharString>
          <CharString index="458">
            -32 -14 61 62 return
          </CharString>
          <CharString index="459">
            -24 -7 -74 -180 hhcurveto
            -80 -85 14 37 55 154 return
          </CharString>
          <CharString index="460">
            259 callsubr
            hvcurveto
            -52 return
          </CharString>
          <CharString index="461">
            hlineto
            -21 -63 -13 -77 -65 vvcurveto
            -102 31 -101 82 48 60 return
          </CharString>
          <CharString index="462">
            vvcurveto
            -24 24 -18 14 28 34 -73 callgsubr
            32 vhcurveto
            return
          </CharString>
          <CharString index="463">
            -106 callsubr
            333 hlineto
            return
          </CharString>
          <CharString index="464">
            26 hhcurveto
            7 207 callsubr
            return
          </CharString>
          <CharString index="465">
            hvcurveto
            318 callgsubr
            return
          </CharString>
          <CharString index="466">
            -3 callsubr
            vhcurveto
            return
          </CharString>
          <CharString index="467">
            vvcurveto
            -43 34 -26 59 return
          </CharString>
          <CharString index="468">
            57 58 -1 40 hhcurveto
            return
          </CharString>
          <CharString index="469">
            -32 -11 -37 hhcurveto
            return
          </CharString>
          <CharString index="470">
            -17 -17 -22 -23 -25 50 -52 23 374 callgsubr
            return
          </CharString>
          <CharString index="471">
            -16 -16 0 -1 -16 hvcurveto
            8 70 2 69 52 vvcurveto
            return
          </CharString>
          <CharString index="472">
            -11 -14 -25 -18 -22 40 -52 18 11 7 8 14 return
          </CharString>
          <CharString index="473">
            0 5 hhcurveto
            -40 -41 -32 -47 -39 vvcurveto
            -43 29 -25 return
          </CharString>
          <CharString index="474">
            683 -106 callsubr
            return
          </CharString>
          <CharString index="475">
            -12 -14 -26 -19 -23 42 -56 19 12 8 8 16 return
          </CharString>
          <CharString index="476">
            -8 -18 vhcurveto
            -298 -116 -356 -36 vvcurveto
            -21 return
          </CharString>
          <CharString index="477">
            120 -102 callsubr
            return
          </CharString>
          <CharString index="478">
            hlineto
            -47 -56 -34 -68 -60 return
          </CharString>
          <CharString index="479">
            -12 301 callgsubr
            return
          </CharString>
          <CharString index="480">
            vvcurveto
            -12 8 -10 return
          </CharString>
          <CharString index="481">
            48 -57 83 -64 return
          </CharString>
          <CharString index="482">
            184 callsubr
            -30 return
          </CharString>
          <CharString index="483">
            191 callsubr
            27 45 24 5 return
          </CharString>
          <CharString index="484">
            hhcurveto
            -31 -13 66 58 63 16 81 25 67 hvcurveto
            return
          </CharString>
          <CharString index="485">
            -4 12 286 callgsubr
            -40 vhcurveto
            return
          </CharString>
          <CharString index="486">
            -29 hhcurveto
            112 callsubr
            return
          </CharString>
          <CharString index="487">
            -64 -48 -60 -51 hvcurveto
            -44 -8 return
          </CharString>
          <CharString index="488">
            -26 -35 17 24 26 40 28 return
          </CharString>
          <CharString index="489">
            1 -87 68 -58 72 -9 -17 return
          </CharString>
          <CharString index="490">
            57 -10 48 -37 -18 return
          </CharString>
          <CharString index="491">
            242 callgsubr
            -46 return
          </CharString>
          <CharString index="492">
            hhcurveto
            1 hlineto
            1 hlineto
            return
          </CharString>
          <CharString index="493">
            vvcurveto
            1 vlineto
            0 vlineto
            return
          </CharString>
          <CharString index="494">
            -13 17 -13 18 return
          </CharString>
          <CharString index="495">
            185 179 20 -12 23 -14 19 hvcurveto
            return
          </CharString>
          <CharString index="496">
            rmoveto
            -99 callgsubr
            return
          </CharString>
          <CharString index="497">
            -14 43 62 112 45 76 13 42 vhcurveto
            return
          </CharString>
          <CharString index="498">
            -76 75 -39 113 25 23 2 4 21 return
          </CharString>
          <CharString index="499" raw="1">
            f78f1dfb 06771a73 0b 
          </CharString>
          <CharString index="500">
            hlineto
            -14 -70 -12 -78 -14 -75 rrcurveto
            60 -17 return
          </CharString>
          <CharString index="501">
            13 14 15 11 return
          </CharString>
        <CharString name=".notdef">
          217 180 hmoveto
          390 701 -390 hlineto
          54 -50 rmoveto
          282 -601 -282 hlineto
          endchar
        </CharString>
        <CharString name="A">
          75 237 342 -95 callgsubr
        </CharString>
        <CharString name="AE">
          298 421 385 rmoveto
          -70 -9 -72 -11 -54 -11 49 118 50 116 18 19 10 12 47 6 71 4 -3 -76 -22 -86 -24 -82 rrcurveto
          185 246 rmoveto
          152 74 13 22 23 -49 16 -239 -165 -92 -9 -50 -29 hvcurveto
          -27 -46 -53 -136 -38 -96 rrcurveto
          -55 -140 -67 -138 -23 vvcurveto
          -28 26 -26 21 23 48 126 139 57 vhcurveto
          36 3 81 16 88 11 rrcurveto
          -25 -81 -21 -73 -49 vvcurveto
          -48 54 -42 61 136 188 302 callsubr
          -10 vhcurveto
          -25 -126 -49 -155 hhcurveto
          -16 -12 10 17 32 25 76 26 87 hvcurveto
          157 19 93 9 27 vvcurveto
          23 -31 8 -48 -26 -56 -4 -7 -67 vhcurveto
          23 78 18 79 59 vvcurveto
          7 -1 6 -2 6 vhcurveto
          endchar
        </CharString>
        <CharString name="Aacute">
          75 380 783 131 callsubr
          -143 -441 -95 callgsubr
        </CharString>
        <CharString name="Abreve">
          75 399 788 rmoveto
          71 82 63 43 15 -7 8 -16 hvcurveto
          -34 -19 -61 -65 -74 5 96 -29 hhcurveto
          -18 -27 -19 -36 -48 63 -61 68 hvcurveto
          -162 -446 -95 callgsubr
        </CharString>
        <CharString name="Acircumflex">
          75 249 794 87 callgsubr
          -12 -452 -95 callgsubr
        </CharString>
        <CharString name="Adieresis">
          75 483 799 27 callsubr
          -96 -457 -95 callgsubr
        </CharString>
        <CharString name="Agrave">
          75 331 836 rmoveto
          -18 callgsubr
          286 callsubr
          hvcurveto
          -94 -494 -95 callgsubr
        </CharString>
        <CharString name="Amacron">
          75 255 799 rmoveto
          25 36 7 9 75 hvcurveto
          47 callsubr
          vhcurveto
          -18 -457 -95 callgsubr
        </CharString>
        <CharString name="Aogonek">
          75 237 342 rmoveto
          36 96 39 102 40 91 14 -70 11 -91 10 -96 -48 -8 -53 -11 -49 -13 rrcurveto
          327 21 rmoveto
          21 -17 5 -28 -13 -17 -1 -2 -19 vhcurveto
          172 -18 -33 172 -44 hhcurveto
          -34 -42 -28 -40 -17 hvcurveto
          -26 -65 -48 -113 -41 -103 -8 -22 -9 -22 -9 -21 rrcurveto
          -59 -19 -40 -19 -14 vvcurveto
          -26 26 -19 25 vhcurveto
          2 2 0 3 hhcurveto
          -32 -74 -25 -57 -11 vvcurveto
          -32 34 -29 18 16 39 99 131 50 vhcurveto
          25 7 29 8 35 10 35 9 36 9 34 9 6 -65 5 -64 4 -59 3 -26 4 -20 4 -15 rrcurveto
          -49 -21 -75 -91 -55 vvcurveto
          51 callgsubr
          hvcurveto
          44 95 35 45 vvcurveto
          2 0 2 -1 1 vhcurveto
          9 19 4 36 55 vvcurveto
          49 -3 63 -5 65 vhcurveto
          52 15 36 15 14 vvcurveto
          endchar
        </CharString>
        <CharString name="Aring">
          75 401 911 168 callsubr
          -13 -139 rmoveto
          55 44 55 53 48 -34 39 -45 -55 -44 -55 -54 -47 34 -39 45 hvcurveto
          -151 -430 -95 callgsubr
        </CharString>
        <CharString name="Atilde">
          75 254 787 rmoveto
          22 callsubr
          230 callgsubr
          hvcurveto
          -17 -445 -95 callgsubr
        </CharString>
        <CharString name="B">
          104 153 96 rmoveto
          10 11 14 41 23 84 12 44 11 42 10 39 rrcurveto
          -14 10 20 -14 17 hhcurveto
          81 127 -28 -43 -78 -193 -80 -142 -4 hvcurveto
          211 536 rmoveto
          63 54 -25 -45 -71 -100 -36 -70 -27 hvcurveto
          -26 -11 -25 -10 -16 -10 rrcurveto
          21 83 14 64 23 vvcurveto
          14 -13 23 -15 16 vhcurveto
          6 34 39 6 40 hhcurveto
          9 -253 rmoveto
          130 41 68 68 79 vvcurveto
          96 -107 52 -185 -81 -64 -19 -23 -16 30 -43 26 vhcurveto
          8 hlineto
          -2 -174 -98 -235 -45 vvcurveto
          -27 22 -28 17 -9 vhcurveto
          2 -67 -28 42 -19 hhcurveto
          -9 -8 -9 -17 -38 68 -59 84 205 212 115 122 61 -79 56 -114 7 hvcurveto
          endchar
        </CharString>
        <CharString name="C">
          66 551 625 53 callgsubr
        </CharString>
        <CharString name="CR">
          endchar
        </CharString>
        <CharString name="Cacute">
          152 545 896 rmoveto
          -68 callgsubr
          165 callsubr
          vhcurveto
          7 -271 53 callgsubr
        </CharString>
        <CharString name="Ccaron">
          159 647 943 -60 callsubr
          -95 -318 53 callgsubr
        </CharString>
        <CharString name="Ccedilla">
          70 241 -33 rmoveto
          11 20 9 19 6 15 rrcurveto
          114 5 161 108 45 vvcurveto
          12 -8 10 -6 vhcurveto
          -30 -94 -87 -146 hhcurveto
          -53 -46 33 64 178 213 235 106 hvcurveto
          31 18 -15 17 hhcurveto
          4 4 3 13 35 -46 58 -35 -186 -219 -313 -190 -78 65 -77 73 -28 hvcurveto
          -15 -37 -25 -43 -18 11 callgsubr
        </CharString>
        <CharString name="D">
          87 callsubr
          endchar
        </CharString>
        <CharString name="Dcaron">
          87 callsubr
          453 169 104 callgsubr
        </CharString>
        <CharString name="Dcroat">
          92 212 288 rmoveto
          11 1 rlineto
          76 9 59 9 21 vvcurveto
          28 -35 15 -44 -7 -16 -2 -2 -21 vhcurveto
          31 105 16 65 36 121 callgsubr
          6 41 12 60 13 44 rrcurveto
          -85 103 rmoveto
          -67 -7 -41 -11 -24 vvcurveto
          -27 24 -15 34 8 20 3 3 25 vhcurveto
          -20 -74 -16 -63 -31 150 callgsubr
          -12 -8 -6 -14 -23 26 -32 44 -18 vhcurveto
          -5 -63 -29 -108 -29 -102 rrcurveto
          endchar
        </CharString>
        <CharString name="E">
          52 267 615 -82 callsubr
        </CharString>
        <CharString name="Eacute">
          52 418 783 131 callsubr
          -151 -168 -82 callsubr
        </CharString>
        <CharString name="Ecaron">
          52 406 774 53 callsubr
          -139 -159 -82 callsubr
        </CharString>
        <CharString name="Ecircumflex">
          52 287 794 87 callgsubr
          -20 -179 -82 callsubr
        </CharString>
        <CharString name="Edieresis">
          52 521 799 27 callsubr
          -104 -184 -82 callsubr
        </CharString>
        <CharString name="Edotaccent">
          52 441 788 rmoveto
          13 15 15 9 26 -35 81 -24 -22 -25 -33 -23 -29 50 -46 28 hvcurveto
          -174 -173 -82 callsubr
        </CharString>
        <CharString name="Egrave">
          52 369 836 rmoveto
          -18 callgsubr
          286 callsubr
          hvcurveto
          -102 -221 -82 callsubr
        </CharString>
        <CharString name="Emacron">
          52 293 799 rmoveto
          25 36 7 9 75 hvcurveto
          47 callsubr
          vhcurveto
          -26 -184 -82 callsubr
        </CharString>
        <CharString name="Eogonek">
          52 267 615 rmoveto
          29 5 38 8 44 5 rrcurveto
          131 15 96 -1 34 vvcurveto
          23 -87 6 -114 -154 -53 -13 -24 -11 vhcurveto
          -2 -6 -2 -7 -10 -181 -119 -249 -115 vvcurveto
          -48 54 -42 61 61 71 13 18 60 vhcurveto
          -16 -25 -10 -25 -21 vvcurveto
          51 callgsubr
          hvcurveto
          44 95 35 45 vvcurveto
          14 -13 10 -13 2 vhcurveto
          1 -2 -2 1 -3 -25 -125 -49 -156 hhcurveto
          -15 -12 10 17 34 27 81 27 92 hvcurveto
          123 149 18 51 9 -13 5 -21 hvcurveto
          -59 -39 -10 -96 hhcurveto
          -8 -8 0 1 -6 hvcurveto
          20 74 17 75 56 vvcurveto
          endchar
        </CharString>
        <CharString name="Eth">
          86 229 287 rmoveto
          33 5 32 6 20 6 rrcurveto
          25 6 12 10 11 vvcurveto
          22 -36 15 -31 -9 -11 0 -1 -13 vhcurveto
          27 94 15 60 34 121 callgsubr
          6 41 12 60 13 44 rrcurveto
          -47 472 rmoveto
          -12 -8 -6 -14 -23 26 -32 44 -18 hvcurveto
          -5 -59 -25 -98 -27 -96 -35 -5 -36 -6 -30 -6 rrcurveto
          -24 -5 -19 -10 -17 vvcurveto
          -25 47 -12 22 8 19 2 2 25 vhcurveto
          -22 -82 -19 -71 -34 150 callgsubr
          vhcurveto
          endchar
        </CharString>
        <CharString name="Euro">
          20 205 209 rmoveto
          189 26 104 18 28 vvcurveto
          18 -37 7 -44 -42 -95 -8 -11 -87 vhcurveto
          7 27 11 27 15 27 28 2 rcurveline
          156 11 114 10 26 vvcurveto
          26 -65 10 -83 -21 -35 -1 -2 -39 vhcurveto
          79 64 82 59 59 29 12 -30 16 hhcurveto
          11 11 16 18 35 -41 50 -38 -119 -119 -107 -127 -74 hvcurveto
          -65 -6 -54 -11 -15 vvcurveto
          -19 22 -37 19 12 12 1 1 12 vhcurveto
          -11 -28 -8 -28 -6 -27 rrcurveto
          -54 -9 -38 -11 -9 vvcurveto
          -17 23 -37 18 15 14 1 2 15 vhcurveto
          -100 6 70 -79 119 hhcurveto
          109 151 91 43 12 -6 11 -11 hvcurveto
          -36 -79 -70 -125 hhcurveto
          -70 -35 43 61 -7 hvcurveto
          endchar
        </CharString>
        <CharString name="F">
          -10 197 313 rmoveto
          129 147 30 43 9 -15 7 -23 -39 -45 -9 -1 -81 hvcurveto
          -20 -1 -17 1 -19 1 rrcurveto
          21 91 18 87 38 vvcurveto
          3 0 3 -1 3 vhcurveto
          30 3 41 6 50 5 rrcurveto
          120 13 96 2 28 vvcurveto
          25 -87 13 -103 -147 -59 -11 -28 -13 vhcurveto
          -4 -5 -3 -8 -11 vvcurveto
          -3 -136 -114 -369 -55 vvcurveto
          -23 37 -51 18 13 16 75 86 22 vhcurveto
          9 37 12 48 12 51 rrcurveto
          endchar
        </CharString>
        <CharString name="G">
          78 461 624 rmoveto
          283 callgsubr
          27 callgsubr
          endchar
        </CharString>
        <CharString name="Gbreve">
          78 453 717 rmoveto
          27 callgsubr
          283 callgsubr
          hvcurveto
          201 193 104 callsubr
        </CharString>
        <CharString name="H">
          137 205 300 rmoveto
          31 7 36 8 42 8 57 10 52 7 45 6 rrcurveto
          -31 -120 -29 -109 -30 vvcurveto
          -33 34 -37 17 18 25 125 125 34 vhcurveto
          25 93 rlineto
          39 8 23 9 16 vvcurveto
          16 -18 8 -28 4 vhcurveto
          27 102 18 79 25 vvcurveto
          44 -43 49 -20 -15 -5 -8 -22 -51 -24 -106 -27 -110 vhcurveto
          -66 -4 -106 -13 -87 -18 rrcurveto
          30 118 19 93 28 vvcurveto
          44 -41 49 -20 -15 -5 -7 -23 -60 -34 -136 -33 -129 vhcurveto
          -32 -10 -20 -10 -9 vvcurveto
          -22 15 -18 17 -6 vhcurveto
          -24 -94 -20 -80 -28 vvcurveto
          -25 38 -46 16 17 25 125 125 34 vhcurveto
          endchar
        </CharString>
        <CharString name="I">
          -34 callgsubr
          endchar
        </CharString>
        <CharString name="Iacute">
          -34 callgsubr
          117 208 rmoveto
          -68 callgsubr
          165 callsubr
          vhcurveto
          endchar
        </CharString>
        <CharString name="Icircumflex">
          -34 callgsubr
          162 214 -44 callsubr
          endchar
        </CharString>
        <CharString name="Idieresis">
          -34 callgsubr
          60 137 -19 callgsubr
          endchar
        </CharString>
        <CharString name="Idotaccent">
          -34 callgsubr
          26 175 158 callgsubr
        </CharString>
        <CharString name="Igrave">
          -34 callgsubr
          -53 225 rmoveto
          286 callsubr
          vhcurveto
          -18 callgsubr
          hvcurveto
          endchar
        </CharString>
        <CharString name="Imacron">
          -34 callgsubr
          92 127 rmoveto
          47 callsubr
          288 callgsubr
          vhcurveto
          endchar
        </CharString>
        <CharString name="Iogonek">
          -223 134 38 rmoveto
          18 43 23 108 26 103 rrcurveto
          42 171 30 126 36 vvcurveto
          44 -43 49 -21 -16 -5 -8 -22 vhcurveto
          -1 -112 -119 -433 -59 vvcurveto
          -6 2 -7 4 -7 vhcurveto
          -49 -28 -66 -83 -52 vvcurveto
          51 callgsubr
          41 84 34 10 41 hvcurveto
          endchar
        </CharString>
        <CharString name="J">
          -65 26 194 rmoveto
          -12 -6 -9 -20 -48 99 -104 90 102 25 91 286 78 hvcurveto
          43 150 52 118 33 vvcurveto
          24 -25 9 -20 -56 -251 -52 -52 -14 13 -11 24 33 99 32 13 87 vhcurveto
          -25 -41 -27 -87 -22 -79 rrcurveto
          -244 -66 -29 -94 -47 -76 -57 99 -26 hhcurveto
          endchar
        </CharString>
        <CharString name="K">
          58 105 20 72 callgsubr
        </CharString>
        <CharString name="L">
          13 281 647 7 callgsubr
        </CharString>
        <CharString name="Lacute">
          13 365 896 rmoveto
          -68 callgsubr
          165 callsubr
          vhcurveto
          -84 -249 7 callgsubr
        </CharString>
        <CharString name="Lcaron">
          13 421 628 rmoveto
          372 callsubr
          -13 10 -5 12 46 94 65 74 40 -37 33 -40 -22 -28 -22 -22 -27 34 5 18 -26 vhcurveto
          -140 19 7 callgsubr
        </CharString>
        <CharString name="Lslash">
          -19 227 376 rmoveto
          107 39 36 15 20 vvcurveto
          11 -10 4 -16 -12 -42 -7 -12 -50 vhcurveto
          24 86 17 74 41 vvcurveto
          40 -41 38 -20 -17 -4 -9 -21 -58 -28 -107 -31 -108 vhcurveto
          -67 -19 -58 -21 -16 vvcurveto
          -16 29 -22 24 7 19 5 7 23 vhcurveto
          -29 -101 -26 -90 -40 vvcurveto
          -48 55 -44 64 138 173 59 57 12 -2 5 -14 vhcurveto
          -26 -118 -49 -154 hhcurveto
          -15 -11 8 16 21 11 44 32 103 hvcurveto
          8 27 8 27 8 26 rrcurveto
          endchar
        </CharString>
        <CharString name="M">
          256 283 643 rmoveto
          31 -3 -59 44 -15 hhcurveto
          -17 -4 -8 -22 hvcurveto
          -117 -129 -409 -72 vvcurveto
          -24 32 -46 16 14 32 123 124 35 vhcurveto
          17 62 24 100 12 76 36 -114 39 -100 22 -32 rrcurveto
          -21 16 21 -10 18 hhcurveto
          41 69 91 229 183 hvcurveto
          -56 -152 -53 -234 -64 vvcurveto
          -42 22 -36 18 22 22 134 155 41 vhcurveto
          44 157 40 127 54 vvcurveto
          28 -35 32 -22 -42 -121 -182 -195 -164 vhcurveto
          -57 122 -54 142 -5 49 rrcurveto
          endchar
        </CharString>
        <CharString name="N">
          144 645 659 -48 callsubr
          endchar
        </CharString>
        <CharString name="NULL">
          endchar
        </CharString>
        <CharString name="Nacute">
          144 463 896 rmoveto
          -68 callgsubr
          165 callsubr
          vhcurveto
          182 -237 -48 callsubr
          endchar
        </CharString>
        <CharString name="Ncaron">
          144 565 943 -60 callsubr
          80 -284 -48 callsubr
          endchar
        </CharString>
        <CharString name="Ntilde">
          144 645 659 -48 callsubr
          -259 276 rmoveto
          230 callgsubr
          22 callsubr
          endchar
        </CharString>
        <CharString name="O">
          134 callgsubr
          endchar
        </CharString>
        <CharString name="OE">
          407 486 377 rmoveto
          -134 -44 -133 -147 -84 hhcurveto
          -40 -40 47 77 196 177 221 80 47 51 -61 -118 -19 -3 -21 -5 -20 hvcurveto
          46 245 rmoveto
          47 -35 -49 32 -58 hhcurveto
          -142 -200 -256 -252 -82 72 -115 93 70 70 37 56 60 hvcurveto
          -5 vlineto
          -48 54 -42 61 137 187 302 callsubr
          -10 vhcurveto
          -25 -126 -49 -155 hhcurveto
          -15 -13 10 17 33 27 81 27 91 hvcurveto
          1 2 rlineto
          123 149 18 51 9 -13 5 -22 hvcurveto
          -59 -38 -10 -96 hhcurveto
          -8 -8 0 1 -6 hvcurveto
          20 74 17 75 56 vvcurveto
          3 vlineto
          29 5 37 8 45 5 rrcurveto
          131 15 95 -1 34 vvcurveto
          23 -86 6 -114 -144 -55 -11 -22 -16 vhcurveto
          -5 -5 -3 -9 -13 vvcurveto
          endchar
        </CharString>
        <CharString name="Oacute">
          80 518 896 rmoveto
          -68 callgsubr
          165 callsubr
          vhcurveto
          -464 -682 -61 callsubr
          endchar
        </CharString>
        <CharString name="Ocircumflex">
          80 563 902 -44 callsubr
          -509 -688 -61 callsubr
          endchar
        </CharString>
        <CharString name="Odieresis">
          80 461 825 -19 callgsubr
          -558 -611 -61 callsubr
          endchar
        </CharString>
        <CharString name="Ograve">
          134 callgsubr
          -54 276 rmoveto
          286 callsubr
          vhcurveto
          -18 callgsubr
          hvcurveto
          endchar
        </CharString>
        <CharString name="Ohungarumlaut">
          80 480 996 -15 callsubr
          -583 -774 -61 callsubr
          endchar
        </CharString>
        <CharString name="Omacron">
          80 493 815 rmoveto
          47 callsubr
          288 callgsubr
          vhcurveto
          -439 -601 -61 callsubr
          endchar
        </CharString>
        <CharString name="Oslash">
          80 505 458 rmoveto
          -147 -173 -215 -102 -21 -22 13 23 -16 vhcurveto
          65 82 102 128 160 183 rrcurveto
          4 -19 3 -23 -25 vvcurveto
          -360 -238 rmoveto
          196 177 221 80 23 24 -14 -28 20 vhcurveto
          -60 -68 -70 -89 -66 -82 -43 -53 -45 -54 -39 -48 rrcurveto
          -1 6 0 6 7 vvcurveto
          436 399 rmoveto
          34 37 9 22 14 vvcurveto
          14 -10 9 -14 -14 -26 -21 -34 -33 vhcurveto
          38 -35 -45 24 -51 hhcurveto
          -142 -200 -256 -252 -30 10 -34 17 -31 hvcurveto
          -27 -37 -18 -27 -11 vvcurveto
          -16 10 -13 17 10 16 17 36 30 vhcurveto
          -30 29 37 -21 40 hhcurveto
          188 184 266 187 46 -11 46 -20 40 hvcurveto
          endchar
        </CharString>
        <CharString name="Otilde">
          134 callgsubr
          39 298 rmoveto
          230 callgsubr
          22 callsubr
          endchar
        </CharString>
        <CharString name="P">
          10 204 340 rmoveto
          35 129 14 68 40 vvcurveto
          14 -4 14 -6 13 vhcurveto
          13 29 38 17 45 hhcurveto
          65 51 -42 -59 -84 -109 -81 -158 -42 hvcurveto
          355 213 rmoveto
          106 -92 71 -127 -78 -120 -36 -35 -11 11 -17 13 -12 vhcurveto
          -8 -182 -115 -290 -68 vvcurveto
          -25 33 -39 19 15 36 125 122 36 vhcurveto
          217 42 160 100 149 vvcurveto
          endchar
        </CharString>
        <CharString name="Q">
          108 247 96 rmoveto
          -44 -58 47 78 115 58 126 67 83 hvcurveto
          -5 -21 -2 -22 -25 vvcurveto
          -83 31 -138 40 -125 vhcurveto
          -22 -30 -30 -13 -27 hhcurveto
          269 365 rmoveto
          -87 -53 -107 -65 -76 vhcurveto
          -29 97 -24 115 128 vvcurveto
          43 8 33 15 21 vhcurveto
          5 12 12 3 11 hhcurveto
          49 64 -61 -114 hvcurveto
          91 9 rmoveto
          127 -97 122 -114 -144 -195 -248 -257 -99 93 -95 93 41 40 12 20 38 vhcurveto
          -108 41 45 -83 32 hhcurveto
          15 10 6 17 33 -38 75 -38 106 hvcurveto
          105 92 73 156 124 vvcurveto
          endchar
        </CharString>
        <CharString name="R">
          51 241 607 rmoveto
          169 callsubr
          227 callsubr
          -47 -308 -9 callsubr
          endchar
        </CharString>
        <CharString name="Racute">
          42 204 352 rmoveto
          227 callsubr
          169 callsubr
          -15 -53 -9 callsubr
          347 716 rmoveto
          165 callsubr
          hvcurveto
          -68 callgsubr
          vhcurveto
          endchar
        </CharString>
        <CharString name="Rcaron">
          42 381 774 53 callsubr
          -177 -422 rmoveto
          227 callsubr
          169 callsubr
          -15 -53 -9 callsubr
          endchar
        </CharString>
        <CharString name="S">
          -2 214 21 rmoveto
          140 114 83 110 hvcurveto
          -21 callsubr
          -51 85 -92 124 hvcurveto
          endchar
        </CharString>
        <CharString name="Sacute">
          -7 444 896 rmoveto
          -68 callgsubr
          165 callsubr
          vhcurveto
          -230 -875 rmoveto
          140 114 83 110 hvcurveto
          -21 callsubr
          -51 85 -92 124 hvcurveto
          endchar
        </CharString>
        <CharString name="Scaron">
          -7 546 943 -60 callsubr
          -332 -922 rmoveto
          140 114 83 110 hvcurveto
          -21 callsubr
          -51 85 -92 124 hvcurveto
          endchar
        </CharString>
        <CharString name="T">
          2 373 714 35 callgsubr
        </CharString>
        <CharString name="Tcaron">
          -12 333 733 53 callsubr
          27 -19 35 callgsubr
        </CharString>
        <CharString name="Thorn">
          -30 214 264 rmoveto
          -11 -1 -10 -1 -11 1 16 61 15 63 13 55 rrcurveto
          10 23 23 6 21 hhcurveto
          48 46 -29 -44 -62 -87 -53 -86 -6 hvcurveto
          87 284 rmoveto
          -16 -20 -3 -5 -20 hvcurveto
          4 23 2 18 11 vvcurveto
          55 -50 34 -20 -19 -4 -9 -22 vhcurveto
          -191 -107 -314 -67 vvcurveto
          -24 27 -39 20 19 19 73 96 26 vhcurveto
          18 20 1 2 18 hvcurveto
          133 12 120 80 107 vvcurveto
          77 -91 85 -79 vhcurveto
          endchar
        </CharString>
        <CharString name="U">
          65 254 40 callsubr
          endchar
        </CharString>
        <CharString name="Uacute">
          59 398 896 rmoveto
          -68 callgsubr
          165 callsubr
          vhcurveto
          -149 -260 -63 callsubr
          endchar
        </CharString>
        <CharString name="Ucircumflex">
          59 443 902 -44 callsubr
          -194 -266 -63 callsubr
          endchar
        </CharString>
        <CharString name="Udieresis">
          59 341 825 -19 callgsubr
          -243 -189 -63 callsubr
          endchar
        </CharString>
        <CharString name="Ugrave">
          32 callsubr
          -21 277 rmoveto
          286 callsubr
          vhcurveto
          -18 callgsubr
          hvcurveto
          endchar
        </CharString>
        <CharString name="Uhungarumlaut">
          32 callsubr
          111 360 -15 callsubr
          endchar
        </CharString>
        <CharString name="Umacron">
          32 callsubr
          124 179 rmoveto
          47 callsubr
          288 callgsubr
          vhcurveto
          endchar
        </CharString>
        <CharString name="Uogonek">
          46 279 17 rmoveto
          156 40 129 252 287 vvcurveto
          81 -60 42 -23 -14 -4 -6 -15 vhcurveto
          -31 9 -31 -74 vvcurveto
          -252 -142 -214 -86 -46 -30 51 75 vhcurveto
          109 81 218 87 vvcurveto
          43 -46 40 -19 -16 -4 -8 -22 vhcurveto
          -126 -84 -196 -161 vvcurveto
          -74 42 -78 61 -30 vhcurveto
          -36 -37 -32 -51 -36 vvcurveto
          51 callgsubr
          34 58 29 25 33 hvcurveto
          endchar
        </CharString>
        <CharString name="Uring">
          59 390 967 225 callsubr
          -7 -56 168 callsubr
          -134 -275 -63 callsubr
          endchar
        </CharString>
        <CharString name="V">
          -1 545 718 rmoveto
          -43 -171 -333 -238 -84 hvcurveto
          -52 199 -13 238 -18 58 rrcurveto
          45 -17 -34 31 -27 hhcurveto
          -11 -6 -9 -22 -69 80 -446 38 -95 hvcurveto
          -32 13 26 -32 17 hhcurveto
          39 41 133 211 106 hvcurveto
          95 191 69 89 45 vvcurveto
          18 -27 18 -21 vhcurveto
          endchar
        </CharString>
        <CharString name="W">
          249 498 719 rmoveto
          -32 -16 -7 -22 -20 35 -43 39 84 38 -120 -103 -142 -62 -149 -77 hvcurveto
          -73 24 300 -57 hhcurveto
          -45 -123 -145 -133 -79 hvcurveto
          15 190 60 267 49 vvcurveto
          36 -54 41 -27 -13 -9 -9 -28 vhcurveto
          -209 -54 -252 -118 vvcurveto
          -45 40 -38 18 27 41 36 118 85 vhcurveto
          31 43 28 39 30 42 rrcurveto
          -161 11 31 -116 91 hhcurveto
          124 106 188 184 175 -72 152 -165 hvcurveto
          endchar
        </CharString>
        <CharString name="X">
          91 312 420 rmoveto
          -51 90 -39 91 70 vvcurveto
          27 -50 21 -36 -11 -3 -12 -15 -73 61 -140 74 -133 vhcurveto
          -92 -120 -83 -98 -33 -36 rrcurveto
          -16 -17 -8 -5 -12 vvcurveto
          -16 29 -22 20 45 66 97 152 116 vhcurveto
          -137 83 88 -113 34 hhcurveto
          12 14 10 23 35 -91 121 -83 134 hvcurveto
          114 147 67 86 36 35 rrcurveto
          27 26 24 7 16 vvcurveto
          19 -37 37 -15 -36 -46 -43 -216 -154 vhcurveto
          endchar
        </CharString>
        <CharString name="Y">
          31 callgsubr
          endchar
        </CharString>
        <CharString name="Yacute">
          31 callgsubr
          77 523 rmoveto
          -68 callgsubr
          165 callsubr
          vhcurveto
          endchar
        </CharString>
        <CharString name="Ydieresis">
          31 callgsubr
          20 452 -19 callgsubr
          endchar
        </CharString>
        <CharString name="Z">
          87 562 571 -24 callgsubr
          endchar
        </CharString>
        <CharString name="Zacute">
          87 438 896 rmoveto
          -68 callgsubr
          165 callsubr
          vhcurveto
          124 -325 -24 callgsubr
          endchar
        </CharString>
        <CharString name="Zcaron">
          87 540 943 -60 callsubr
          22 -372 -24 callgsubr
          endchar
        </CharString>
        <CharString name="Zdotaccent">
          87 562 571 -24 callgsubr
          -215 292 158 callgsubr
        </CharString>
        <CharString name="a">
          -64 343 232 callsubr
          75 45 rmoveto
          374 callsubr
          -132 -158 -256 -119 -57 75 -64 60 54 63 52 61 48 vhcurveto
          -65 3 16 -48 24 hhcurveto
          23 -1 57 62 11 hvcurveto
          14 77 8 42 30 vvcurveto
          8 -5 9 -7 9 vhcurveto
          13 20 12 29 22 vvcurveto
          endchar
        </CharString>
        <CharString name="aacute">
          -61 346 334 -76 callsubr
          207 241 rmoveto
          165 callsubr
          hvcurveto
          -68 callgsubr
          vhcurveto
          endchar
        </CharString>
        <CharString name="abreve">
          -61 346 334 -76 callsubr
          226 185 104 callsubr
        </CharString>
        <CharString name="acircumflex">
          -61 346 334 -76 callsubr
          158 170 -44 callsubr
          endchar
        </CharString>
        <CharString name="acute">
          63 771 rmoveto
          -68 callgsubr
          165 callsubr
          vhcurveto
          endchar
        </CharString>
        <CharString name="adieresis">
          -61 330 578 rmoveto
          12 14 15 11 27 -35 73 -23 -21 -23 -30 -22 -27 45 -47 31 hvcurveto
          16 -244 -76 callsubr
          149 193 rmoveto
          -21 -24 -30 -22 -27 46 -47 30 394 callsubr
          27 -35 73 -23 hvcurveto
          endchar
        </CharString>
        <CharString name="ae">
          210 314 511 rmoveto
          -142 -143 -254 -119 -61 73 -62 55 63 53 55 72 54 hvcurveto
          -76 14 68 -51 88 hhcurveto
          301 callsubr
          -8 8 -18 hvcurveto
          376 callsubr
          28 9 27 hvcurveto
          -9 38 41 -7 47 hhcurveto
          173 callgsubr
          -54 -52 -36 -47 -42 hvcurveto
          44 -20 -45 39 -48 hhcurveto
          123 -213 rmoveto
          72 35 57 62 52 hhcurveto
          35 39 -48 -33 -39 -56 -23 -83 -22 -29 3 6 -28 hvcurveto
          -114 130 rmoveto
          31 12 -30 -53 2 hvcurveto
          -12 -20 -9 -22 -6 -20 rrcurveto
          -117 -57 -70 -68 -61 hhcurveto
          -20 -22 14 24 83 119 209 93 hvcurveto
          endchar
        </CharString>
        <CharString name="agrave">
          -61 346 334 -76 callsubr
          67 170 rmoveto
          39 -39 -18 28 -19 hhcurveto
          -25 -23 -31 -25 286 callsubr
          hvcurveto
          -27 40 24 -26 17 hhcurveto
          14 13 14 15 19 -13 12 -56 59 hvcurveto
          endchar
        </CharString>
        <CharString name="amacron">
          -61 346 334 -76 callsubr
          74 140 callsubr
        </CharString>
        <CharString name="ampersand">
          171 104 111 rmoveto
          28 67 54 78 65 vhcurveto
          18 -31 20 -31 23 -28 rrcurveto
          -45 -73 -67 -35 -40 hhcurveto
          -15 -11 9 14 hvcurveto
          163 376 rmoveto
          62 35 56 51 35 15 -26 -30 -46 -54 -58 -67 -59 vhcurveto
          -10 35 -5 34 32 vvcurveto
          302 -396 rmoveto
          -50 -48 21 35 -42 hvcurveto
          119 80 103 90 26 vvcurveto
          18 -8 15 -23 -18 -114 -89 -79 -117 vhcurveto
          -24 30 -21 35 -16 36 rrcurveto
          93 81 89 91 76 vvcurveto
          48 -23 76 -96 -115 -79 -90 -97 -51 13 -57 23 -56 vhcurveto
          -99 -81 -101 -78 -48 vvcurveto
          -52 63 -62 52 56 91 43 55 90 vhcurveto
          -53 57 66 -34 66 hhcurveto
          68 30 20 27 19 -20 5 -65 hvcurveto
          endchar
        </CharString>
        <CharString name="aogonek">
          -61 346 232 callsubr
          25 -297 rmoveto
          6 22 2 36 7 38 rrcurveto
          14 77 8 42 30 vvcurveto
          8 -5 9 -7 9 vhcurveto
          13 20 12 29 22 vvcurveto
          374 callsubr
          -132 -158 -256 -119 -57 75 -64 60 54 63 52 61 48 vhcurveto
          1 -26 4 -23 5 -19 rrcurveto
          -49 -21 -76 -91 -55 vvcurveto
          51 callgsubr
          44 94 35 1 45 hvcurveto
          endchar
        </CharString>
        <CharString name="approxequal">
          56 212 325 101 callgsubr
          53 230 101 callgsubr
          endchar
        </CharString>
        <CharString name="aring">
          -61 346 334 -76 callsubr
          91 93 rmoveto
          -15 -11 16 20 30 18 20 15 16 11 -16 -21 -29 -17 -20 -17 hvcurveto
          14 142 225 callsubr
          endchar
        </CharString>
        <CharString name="asciicircum">
          -111 334 683 rmoveto
          -37 88 -2 32 -18 19 rrcurveto
          12 -11 -34 11 -19 hhcurveto
          -45 -113 -190 -67 -14 19 -17 19 25 13 44 55 30 hvcurveto
          20 37 20 28 27 28 rrcurveto
          -70 34 64 -126 34 hhcurveto
          11 5 4 14 13 -18 40 -24 59 hvcurveto
          endchar
        </CharString>
        <CharString name="asciitilde">
          61 239 430 101 callgsubr
          endchar
        </CharString>
        <CharString name="asterisk">
          -176 271 663 rmoveto
          40 17 70 37 9 vvcurveto
          13 -18 13 -12 -13 -37 -41 -25 -40 vhcurveto
          7 25 11 35 10 vvcurveto
          16 -27 21 -12 -9 -4 -3 -12 -13 1 -44 -1 -34 vhcurveto
          -18 9 -29 35 -4 8 rrcurveto
          13 -6 -32 6 -19 hhcurveto
          -10 0 -5 -7 -16 65 -51 39 -15 hvcurveto
          -43 -27 -69 -20 -11 vvcurveto
          -11 13 -12 12 10 62 33 22 23 vhcurveto
          -6 -28 -18 -48 -11 vvcurveto
          -9 12 -13 10 14 16 76 31 4 vhcurveto
          -26 30 41 -26 15 hhcurveto
          9 13 9 9 11 -58 23 -32 27 hvcurveto
          endchar
        </CharString>
        <CharString name="at">
          432 605 354 rmoveto
          -10 -1 -5 -6 -2 -8 rrcurveto
          -124 -29 -107 -92 -54 hhcurveto
          -23 -25 18 25 79 131 201 78 26 16 -40 -45 4 hvcurveto
          2 369 rmoveto
          -340 -224 -346 -257 -159 126 -133 173 107 164 55 57 10 -4 4 -9 hvcurveto
          -29 -78 -48 -152 hhcurveto
          -132 -75 87 129 227 203 294 272 151 66 -107 -136 -144 -116 -114 -47 -21 -10 20 17 hvcurveto
          40 33 50 27 vvcurveto
          11 -7 11 -8 9 vhcurveto
          11 16 10 23 21 vvcurveto
          51 -56 77 -62 -129 -153 -239 -116 -55 74 -63 59 45 57 42 52 49 vhcurveto
          -41 9 31 -32 43 hhcurveto
          117 158 163 180 181 -116 136 -190 hvcurveto
          endchar
        </CharString>
        <CharString name="atilde">
          -61 346 334 -76 callsubr
          228 191 rmoveto
          -37 -7 -63 -7 -35 hvcurveto
          7 -35 -8 75 -70 hhcurveto
          230 callgsubr
          35 7 58 23 47 hvcurveto
          -55 36 38 -33 38 hhcurveto
          52 49 65 45 21 -9 12 -16 hvcurveto
          endchar
        </CharString>
        <CharString name="b">
          -8 233 92 rmoveto
          -29 -38 19 41 -32 hvcurveto
          141 65 107 133 81 hhcurveto
          27 9 -23 -36 -133 -105 -142 -85 hvcurveto
          -127 -11 rmoveto
          1 2 rlineto
          -43 41 46 -26 51 hhcurveto
          135 126 211 140 72 -47 77 -65 -68 -79 -68 -93 -69 hvcurveto
          39 165 15 137 49 vvcurveto
          40 -42 383 callgsubr
          -297 -126 -324 -65 vvcurveto
          -23 33 -37 19 8 11 27 40 13 vhcurveto
          endchar
        </CharString>
        <CharString name="backslash">
          67 474 -77 rmoveto
          16 31 39 18 49 -133 314 -183 424 hvcurveto
          20 -9 -1 9 -14 hhcurveto
          -15 -42 -52 -29 -54 99 -174 82 -197 hvcurveto
          -276 114 39 -91 16 hhcurveto
          endchar
        </CharString>
        <CharString name="bar">
          -165 67 -74 rmoveto
          -22 36 -39 19 20 75 376 122 29 vhcurveto
          37 156 44 189 33 vvcurveto
          40 -45 47 -20 -18 -4 -9 -21 vhcurveto
          -100 -173 -718 -54 vvcurveto
          endchar
        </CharString>
        <CharString name="braceleft">
          -112 183 338 rmoveto
          74 43 53 50 59 -44 46 -1 112 hvcurveto
          83 58 39 55 58 7 -32 -47 -26 1 -16 13 21 26 44 32 68 -55 59 -81 -97 -87 -70 -106 vhcurveto
          -108 47 -64 -52 vvcurveto
          -33 -22 -21 -36 vhcurveto
          -32 -34 36 -19 hhcurveto
          -8 -5 -14 -9 -18 11 -18 17 -14 hvcurveto
          7 -11 8 -13 -12 -100 -67 -51 -112 vvcurveto
          -88 72 -79 97 48 46 24 27 21 -16 6 -42 -79 -38 26 63 vhcurveto
          106 54 51 72 vvcurveto
          14 -2 12 -3 11 vhcurveto
          endchar
        </CharString>
        <CharString name="braceright">
          5 424 370 rmoveto
          -16 2 -17 1 -15 3 rrcurveto
          -23 7 -18 17 26 69 183 90 129 vvcurveto
          70 -91 78 -81 -80 -92 -61 -45 -15 30 -34 16 vhcurveto
          27 23 82 68 hhcurveto
          50 40 -34 -48 hvcurveto
          -99 -175 -93 -92 vvcurveto
          -47 32 -37 40 -19 vhcurveto
          -101 -74 58 -242 -101 -85 9 45 -38 hhcurveto
          -12 -5 -10 -14 -40 64 -50 77 202 -114 341 64 113 hvcurveto
          22 9 16 16 18 vvcurveto
          11 -12 1 -21 2 vhcurveto
          endchar
        </CharString>
        <CharString name="bracketleft">
          -80 269 759 rmoveto
          -1 -2 0 -3 -3 -136 -193 -512 -84 vvcurveto
          -48 55 -36 59 55 118 41 37 11 -4 7 -15 vhcurveto
          -25 -75 -13 -51 hhcurveto
          -14 -7 6 13 21 16 55 48 150 hvcurveto
          50 153 70 227 65 vvcurveto
          3 0 2 -1 3 vhcurveto
          13 3 14 3 16 3 rrcurveto
          101 14 52 -2 31 vvcurveto
          30 -70 4 -54 -94 -61 -7 -35 -2 vhcurveto
          endchar
        </CharString>
        <CharString name="bracketright">
          -83 410 711 rmoveto
          33 -44 10 -71 -78 -89 -20 -37 -15 20 -5 24 -2 vhcurveto
          -2 27 31 1 31 22 17 -1 13 hhcurveto
          -1 -4 0 -3 -4 vvcurveto
          -116 -118 -474 -10 -41 vhcurveto
          -16 -3 -9 -6 -18 -50 -49 12 -36 hhcurveto
          -14 -10 -4 -14 -40 103 -38 66 71 30 23 55 14 hvcurveto
          32 134 99 431 138 vvcurveto
          2 vlineto
          endchar
        </CharString>
        <CharString name="breve">
          176 696 104 callsubr
        </CharString>
        <CharString name="brokenbar">
          -164 120 233 rmoveto
          -101 -52 -152 -54 vvcurveto
          -22 36 -39 19 25 59 272 38 41 -45 383 callgsubr
          121 565 rmoveto
          -100 -53 -152 -55 vvcurveto
          -22 36 -39 19 26 59 272 39 40 -45 47 -21 -17 -4 -9 -21 vhcurveto
          endchar
        </CharString>
        <CharString name="bullet">
          -296 50 347 rmoveto
          -38 67 -70 43 17 22 22 12 36 -51 116 -32 -31 -35 -45 -33 vhcurveto
          endchar
        </CharString>
        <CharString name="c">
          -88 312 511 61 callgsubr
        </CharString>
        <CharString name="cacute">
          -86 357 675 rmoveto
          -68 callgsubr
          165 callsubr
          vhcurveto
          -41 -164 61 callgsubr
        </CharString>
        <CharString name="caron">
          165 722 104 callgsubr
        </CharString>
        <CharString name="ccaron">
          -86 459 722 -60 callsubr
          -143 -211 61 callgsubr
        </CharString>
        <CharString name="ccedilla">
          -86 176 -33 rmoveto
          10 17 8 17 6 14 rrcurveto
          78 4 112 65 37 vvcurveto
          13 -6 6 -13 vhcurveto
          -33 -25 -42 -118 hhcurveto
          -48 -26 27 40 94 125 167 73 hvcurveto
          36 17 -36 26 hhcurveto
          9 8 8 11 31 -42 71 -61 -131 -149 -210 -138 -59 48 -54 57 -23 hvcurveto
          -15 -36 -23 -40 -17 11 callgsubr
        </CharString>
        <CharString name="cedilla">
          -12 -56 rmoveto
          19 33 13 32 13 vvcurveto
          17 -13 7 -18 -13 -14 -5 -16 -5 vhcurveto
          -13 -39 -33 -54 -21 11 callgsubr
        </CharString>
        <CharString name="cent">
          -51 137 177 rmoveto
          76 79 128 74 43 vhcurveto
          -30 -100 -31 -122 -21 -94 rrcurveto
          -43 4 -28 28 37 vvcurveto
          246 339 rmoveto
          8 26 7 16 15 vvcurveto
          19 -9 21 -18 -13 -18 -37 -56 -20 vhcurveto
          -126 -12 -146 -201 -132 vvcurveto
          -68 73 -65 69 -13 vhcurveto
          -8 -37 -5 -26 -7 vvcurveto
          -13 16 -17 12 10 15 39 61 19 vhcurveto
          77 13 96 53 33 vvcurveto
          13 -7 6 -12 -28 -27 -27 -9 -76 vhcurveto
          27 97 30 121 30 105 rrcurveto
          -13 28 27 -30 22 hhcurveto
          10 6 7 12 29 -31 46 -41 22 hvcurveto
          endchar
        </CharString>
        <CharString name="circumflex">
          108 176 callgsubr
          endchar
        </CharString>
        <CharString name="colon">
          -287 39 99 rmoveto
          -33 55 -73 31 16 12 15 14 35 -35 111 -36 -20 -23 -41 -28 vhcurveto
          76 345 rmoveto
          -34 55 -74 32 16 12 15 15 34 -35 112 -37 -19 -24 -41 -27 vhcurveto
          endchar
        </CharString>
        <CharString name="comma">
          -305 27 -176 96 callgsubr
        </CharString>
        <CharString name="copyright">
          175 452 543 rmoveto
          -101 -117 -159 -97 -49 57 -54 52 63 89 57 27 7 -5 10 -9 hvcurveto
          -19 -47 -41 -73 hhcurveto
          -24 -20 17 24 89 107 110 49 hvcurveto
          16 6 -7 12 hhcurveto
          7 6 4 10 20 -27 32 -22 hvcurveto
          170 -130 rmoveto
          -193 -119 -107 -187 -98 -71 63 115 200 174 115 137 91 73 -80 -113 vhcurveto
          -295 -353 rmoveto
          338 callsubr
          338 callgsubr
          hvcurveto
          endchar
        </CharString>
        <CharString name="currency">
          67 213 287 rmoveto
          63 45 72 66 52 36 -48 -55 1 vhcurveto
          -58 -44 -74 -67 -49 -40 42 58 vhcurveto
          325 207 rmoveto
          19 -32 28 -19 -18 -34 -27 -44 -38 vhcurveto
          10 -21 -23 5 -26 hhcurveto
          -29 -26 -7 -12 -24 hvcurveto
          -8 15 -6 14 -3 9 rrcurveto
          25 -9 -48 12 -31 hhcurveto
          -14 -1 -8 -13 -15 30 -39 28 -51 hvcurveto
          -30 -36 -18 -47 -46 vvcurveto
          -35 9 -31 16 -25 vhcurveto
          -46 -48 -32 -28 -8 vvcurveto
          -17 26 -28 23 16 32 31 43 39 vhcurveto
          -12 22 26 -6 27 hhcurveto
          24 23 5 9 20 hvcurveto
          -43 33 32 -27 19 hhcurveto
          13 11 9 13 13 -21 32 -28 44 hvcurveto
          39 39 23 56 55 vvcurveto
          31 -8 29 -14 23 vhcurveto
          42 41 34 28 15 vvcurveto
          endchar
        </CharString>
        <CharString name="d">
          -34 349 253 callsubr
          110 491 rmoveto
          -18 -4 -10 -20 hvcurveto
          -4 -95 -24 -123 -28 -117 188 callgsubr
          47 184 36 184 29 vvcurveto
          40 -43 47 -20 vhcurveto
          endchar
        </CharString>
        <CharString name="dagger">
          -130 417 423 rmoveto
          179 callsubr
          -33 -214 -52 -251 -40 vvcurveto
          -23 33 -37 19 18 34 185 136 27 vhcurveto
          348 callsubr
          endchar
        </CharString>
        <CharString name="daggerdbl">
          -130 164 132 rmoveto
          348 callsubr
          179 callsubr
          -14 -89 -17 -96 -15 -84 rrcurveto
          -97 -9 -88 -14 -14 vvcurveto
          -17 23 -35 18 30 42 5 6 58 vhcurveto
          -15 -80 -10 -60 -18 vvcurveto
          -23 33 -37 19 14 24 113 114 23 vhcurveto
          146 17 70 14 23 vvcurveto
          19 -39 7 -43 -30 -43 -2 -3 -47 vhcurveto
          endchar
        </CharString>
        <CharString name="dcaron">
          199 375 292 rmoveto
          -2 -9 rlineto
          -111 -44 -115 -77 -43 hhcurveto
          -23 -21 15 25 99 94 194 91 35 28 -56 -72 hvcurveto
          110 491 rmoveto
          -17 -4 -10 -20 hvcurveto
          -4 -97 -25 -122 -27 -116 rrcurveto
          51 -18 -34 34 -50 hhcurveto
          -147 -114 -257 -116 -55 53 -68 61 54 65 46 56 54 hvcurveto
          -5 -22 -3 -17 -10 vvcurveto
          -26 29 -27 18 21 44 171 121 30 vhcurveto
          47 184 35 184 29 vvcurveto
          40 -42 47 -21 vhcurveto
          170 -15 rmoveto
          -21 -29 -22 -21 -29 35 6 292 callgsubr
          endchar
        </CharString>
        <CharString name="dcroat">
          -25 376 253 callsubr
          162 299 rmoveto
          120 12 36 5 20 vvcurveto
          20 -47 4 -104 vhcurveto
          4 22 2 15 7 vvcurveto
          40 -43 383 callgsubr
          -1 -31 -4 -35 -5 -36 rrcurveto
          -58 -3 -48 -7 -17 vvcurveto
          -18 27 -31 27 11 12 1 2 17 vhcurveto
          -9 -52 -12 -55 -13 -53 188 callgsubr
          27 107 24 108 15 76 rrcurveto
          endchar
        </CharString>
        <CharString name="degree">
          -194 260 725 rmoveto
          -101 -80 -107 -88 -65 42 -50 65 100 80 107 88 66 -41 49 -65 hvcurveto
          -19 -71 rmoveto
          27 17 -26 -33 -46 -33 -66 -48 -27 -18 24 33 46 34 68 48 hvcurveto
          endchar
        </CharString>
        <CharString name="dieresis">
          6 726 -19 callgsubr
          endchar
        </CharString>
        <CharString name="divide">
          67 102 280 rmoveto
          199 305 25 54 16 -28 6 -40 -81 -107 -15 -3 -159 hvcurveto
          -1 -60 -48 0 378 callgsubr
          99 -143 rmoveto
          -32 55 -56 34 14 18 17 11 29 -41 93 -27 -24 -29 -37 -25 vhcurveto
          88 396 rmoveto
          -31 55 -57 34 14 18 17 10 30 -41 94 -27 -25 -28 -37 -26 vhcurveto
          endchar
        </CharString>
        <CharString name="dollar">
          1 276 401 rmoveto
          -44 31 -34 27 21 vvcurveto
          27 58 33 66 23 vhcurveto
          -13 -46 -15 -54 -18 -62 rrcurveto
          117 -219 rmoveto
          -45 -62 -30 -75 -10 vhcurveto
          14 49 17 60 20 71 rrcurveto
          48 -34 38 -31 -30 vvcurveto
          39 508 rmoveto
          7 23 3 18 13 vvcurveto
          18 -5 17 -17 1 vhcurveto
          -23 -18 -35 -80 -26 hvcurveto
          -76 -20 -90 -38 -44 -44 rrcurveto
          -16 -16 -13 -45 -33 vvcurveto
          -56 69 -51 69 -48 vhcurveto
          -20 -69 -25 -82 -18 -70 rrcurveto
          6 -76 -39 88 -30 hhcurveto
          -13 -8 -13 -24 -43 56 -78 90 -19 hvcurveto
          -5 -21 -2 -17 -12 vvcurveto
          -16 -1 9 -15 13 hhcurveto
          14 13 26 51 18 hvcurveto
          121 6 134 65 -1 102 rrcurveto
          70 -77 61 -73 52 vhcurveto
          19 66 22 73 25 81 rrcurveto
          2 15 15 2 14 25 10 -9 15 hhcurveto
          8 6 4 12 32 -23 53 -42 hvcurveto
          -4 -4 0 -5 hhcurveto
          endchar
        </CharString>
        <CharString name="dotaccent">
          -28 738 158 callgsubr
        </CharString>
        <CharString name="dotlessi">
          -273 216 200 callsubr
          endchar
        </CharString>
        <CharString name="dvA.aInitial">
          349 719 645 rmoveto
          -94 callsubr
          109 -104 callsubr
        </CharString>
        <CharString name="dvAA.aInitial">
          619 719 645 rmoveto
          -94 callsubr
          171 -79 callgsubr
        </CharString>
        <CharString name="dvAU.aInitial">
          619 1138 -7 callgsubr
          -355 hlineto
          -94 callsubr
          168 -79 callgsubr
        </CharString>
        <CharString name="dvAcandra.aInitial">
          349 719 645 rmoveto
          -94 callsubr
          109 -102 callsubr
          60 239 rmoveto
          5 callsubr
          164 callgsubr
          vhcurveto
          endchar
        </CharString>
        <CharString name="dvB_DA_MatraU">
          345 758 142 callgsubr
          -632 14 -41 callsubr
          683 -22 callsubr
          -78 -101 -103 -94 -49 hvcurveto
          -20 -7 -32 -28 -41 -29 -44 53 -51 79 -36 65 -82 callgsubr
          79 103 52 51 64 hvcurveto
          0 vlineto
          -84 83 -42 114 vhcurveto
          -98 callgsubr
        </CharString>
        <CharString name="dvB_DA_MatraUU">
          347 758 183 -50 callgsubr
          -368 412 -41 callsubr
          683 58 callgsubr
          -79 -101 -103 -94 -49 hvcurveto
          -20 -7 -32 -28 -41 -29 -44 53 -51 79 -36 65 -82 callgsubr
          79 103 52 51 64 hvcurveto
          0 vlineto
          276 callsubr
          -96 callsubr
        </CharString>
        <CharString name="dvDA_MatraU">
          -21 391 142 callgsubr
          -377 203 callsubr
          384 -22 callsubr
          -108 346 callsubr
          83 -42 114 hvcurveto
          -98 callgsubr
        </CharString>
        <CharString name="dvDA_MatraUU">
          -20 391 183 -50 callgsubr
          -112 860 -106 callsubr
          383 58 callgsubr
          -109 346 callsubr
          84 -42 113 hvcurveto
          -96 callsubr
        </CharString>
        <CharString name="dvDDH_DDHA">
          29 324 206 rmoveto
          44 21 21 52 33 18 -12 -16 -28 -55 -19 -68 -8 vhcurveto
          -1 6 0 6 6 vvcurveto
          -86 -416 rmoveto
          25 28 15 26 37 23 -20 -21 -26 -32 -20 -52 -9 vhcurveto
          -21 17 -9 19 20 vvcurveto
          -167 855 -106 callsubr
          350 hlineto
          -10 -29 -4 -36 -28 vvcurveto
          10 -19 -20 7 -16 hhcurveto
          -100 -198 -156 -103 -46 31 -37 45 -18 hvcurveto
          -16 37 43 -8 55 hhcurveto
          13 hlineto
          7 -29 9 -31 12 -27 rrcurveto
          3 -15 -16 1 -18 hhcurveto
          -119 -159 -109 -107 -109 101 -45 115 118 104 50 72 56 -52 46 -76 -73 -43 -35 -49 -27 12 -25 20 -23 hvcurveto
          -8 hlineto
          -88 -55 29 54 73 115 85 96 hvcurveto
          57 17 -13 28 hhcurveto
          11 10 8 15 hvcurveto
          1 vlineto
          2 vlineto
          22 -31 54 -19 63 vhcurveto
          103 16 71 48 56 vvcurveto
          50 -43 40 -73 -89 -42 -49 -78 -6 0 -6 1 -7 vhcurveto
          -2 hlineto
          -87 -43 21 33 66 153 120 65 44 15 -32 -5 25 hvcurveto
          -1 1 2 0 1 385 callsubr
          3 hlineto
          21 3 5 15 26 vvcurveto
          77 9 38 3 30 vhcurveto
          178 -107 callgsubr
        </CharString>
        <CharString name="dvDD_GA">
          -57 71 -123 -18 callsubr
        </CharString>
        <CharString name="dvG_DA_MatraU">
          352 765 142 callgsubr
          -568 -4 rmoveto
          -96 callgsubr
          412 -22 callsubr
          -108 346 callsubr
          83 -42 114 hvcurveto
          -98 callgsubr
        </CharString>
        <CharString name="dvG_DA_MatraUU">
          353 764 183 -50 callgsubr
          -303 394 rmoveto
          -96 callgsubr
          411 58 callgsubr
          -109 346 callsubr
          84 -42 113 hvcurveto
          -96 callsubr
        </CharString>
        <CharString name="dvJ_DA_MatraU">
          452 864 142 callgsubr
          -736 203 callsubr
          743 -22 callsubr
          -32 -36 -17 -27 -34 hvcurveto
          -25 -38 -82 -66 -120 -34 -29 6 -23 hhcurveto
          -15 -8 -9 -15 -14 12 -11 18 -9 hvcurveto
          7 -8 6 -8 -9 -26 callgsubr
          9 -3 9 -4 10 vhcurveto
          9 hlineto
          35 40 8 14 38 hvcurveto
          -23 -41 -15 -40 -30 vvcurveto
          -84 83 -42 114 vhcurveto
          -98 callgsubr
        </CharString>
        <CharString name="dvJ_DA_MatraUU">
          453 864 183 -50 callgsubr
          -472 860 -106 callsubr
          743 58 callgsubr
          -32 -35 -17 -26 -34 hvcurveto
          -23 -37 -82 -69 -123 -34 -29 6 -23 hhcurveto
          -15 -8 -9 -15 -14 12 -11 18 -9 hvcurveto
          7 -8 6 -8 -9 -26 callgsubr
          9 -3 9 -4 10 vhcurveto
          9 hlineto
          35 40 8 14 38 hvcurveto
          -23 -41 -15 -40 -30 vvcurveto
          276 callsubr
          -96 callsubr
        </CharString>
        <CharString name="dvK_DA_MatraU">
          478 861 229 callgsubr
          -39 -45 -26 -38 -41 hvcurveto
          -48 -26 -86 -51 -92 -46 10 43 rcurveline
          149 callgsubr
          388 77 callgsubr
          -731 177 callsubr
          761 -16 -5 callsubr
          -11 16 31 18 20 18 5 rrcurveto
          -795 462 147 callgsubr
          49 24 49 26 44 25 rrcurveto
          -19 -35 -11 -34 -26 vvcurveto
          -84 83 -42 114 vhcurveto
          -98 callgsubr
        </CharString>
        <CharString name="dvK_DA_MatraUU">
          480 862 449 rmoveto
          10 -21 -21 6 -18 hhcurveto
          -39 -45 -26 -37 -42 hvcurveto
          -47 -27 -87 -51 -92 -46 10 43 rcurveline
          149 callgsubr
          388 hlineto
          207 callgsubr
          -732 177 callsubr
          761 -16 -50 callgsubr
          -531 860 147 callgsubr
          49 24 49 26 44 25 rrcurveto
          -19 -35 -11 -34 -26 vvcurveto
          276 callsubr
          -96 callsubr
        </CharString>
        <CharString name="dvL_DA_MatraU">
          431 844 142 callgsubr
          -742 462 -74 callgsubr
          749 -22 callsubr
          -46 -53 -35 -48 -46 hvcurveto
          -56 -16 -86 -37 -61 -36 rrcurveto
          -102 callgsubr
          20 9 rlineto
          -23 -41 -15 -40 -30 vvcurveto
          -84 83 -42 114 vhcurveto
          -98 callgsubr
        </CharString>
        <CharString name="dvL_DA_MatraUU">
          432 843 183 -50 callgsubr
          -477 860 -74 callgsubr
          748 58 callgsubr
          -46 -54 -35 -48 -46 hvcurveto
          -56 -17 -86 -36 -60 -36 rrcurveto
          -102 callgsubr
          19 8 rlineto
          -23 -40 -15 -40 -30 vvcurveto
          276 callsubr
          -96 callsubr
        </CharString>
        <CharString name="dvM_DA_MatraU">
          381 763 229 callgsubr
          -56 160 callgsubr
          85 callsubr
          -593 -303 -34 callsubr
          623 35 -5 callsubr
          -11 16 31 18 20 18 5 rrcurveto
          -690 462 81 callgsubr
          47 38 -2 -2 29 hvcurveto
          -27 -44 -17 -44 -33 vvcurveto
          -84 83 -42 114 vhcurveto
          -98 callgsubr
        </CharString>
        <CharString name="dvM_DA_MatraUU">
          382 764 449 rmoveto
          10 -21 -21 6 -18 hhcurveto
          -57 160 callgsubr
          207 callgsubr
          -594 -303 -34 callsubr
          623 35 -50 callgsubr
          -426 860 81 callgsubr
          47 38 -2 -2 29 hvcurveto
          -27 -44 -17 -44 -33 vvcurveto
          276 callsubr
          -96 callsubr
        </CharString>
        <CharString name="dvNG_GA">
          35 517 370 rmoveto
          -15 382 callgsubr
          12 8 9 16 28 -33 62 -23 hvcurveto
          -453 -493 -18 callsubr
        </CharString>
        <CharString name="dvNG_MA">
          -8 514 375 rmoveto
          -15 382 callgsubr
          13 7 9 16 27 -33 63 -23 hvcurveto
          -328 -371 rmoveto
          7 45 3 43 1 34 rrcurveto
          -8 24 27 -4 29 hhcurveto
          29 26 4 7 23 hvcurveto
          -11 -30 -10 -37 -9 -39 -35 -2 -52 -6 -36 -5 rrcurveto
          -137 -161 rmoveto
          -18 -17 33 19 19 36 12 49 8 hvcurveto
          -52 -12 -18 -39 -20 hhcurveto
          -53 800 -64 callgsubr
          399 hlineto
          -5 -22 -3 -24 198 callgsubr
          24 -12 hvcurveto
          67 -37 128 317 callgsubr
          -76 203 callgsubr
          -39 23 -36 38 -26 hvcurveto
          -3 -14 -2 -16 -19 vvcurveto
          -31 -3 -40 -6 -38 vhcurveto
          -99 -16 -64 -22 -50 vvcurveto
          -54 56 -73 47 55 34 76 87 20 vhcurveto
          46 5 51 5 41 7 rrcurveto
          0 vlineto
          -15 -76 -9 -71 -18 vvcurveto
          -31 4 -26 15 26 16 79 74 13 vhcurveto
          13 84 38 139 3 44 rrcurveto
          22 20 12 25 27 127 -227 -7 32 vvcurveto
          27 101 22 39 vhcurveto
          32 22 -15 18 hhcurveto
          22 299 callsubr
          217 -70 callsubr
        </CharString>
        <CharString name="dvNY_CA">
          585 91 -54 callsubr
          936 -9 callgsubr
          -31 -22 -26 -26 -17 -28 -31 -7 -47 -12 -33 -6 -37 -8 -35 -4 -28 -5 rrcurveto
          6 24 4 24 23 -29 callgsubr
          102 76 65 78 40 vhcurveto
          6 hlineto
          46 92 13 20 67 hvcurveto
          -9 vlineto
          -63 41 -43 82 90 84 41 71 64 vhcurveto
          55 callgsubr
        </CharString>
        <CharString name="dvN_DA_MatraU">
          363 775 142 callgsubr
          -501 48 -80 callsubr
          693 -22 callsubr
          -49 -58 -40 -54 -48 hvcurveto
          14 -52 -86 3 -64 -77 callgsubr
          53 54 -1 39 hhcurveto
          -36 -52 -25 -56 -39 vvcurveto
          -84 83 -42 114 vhcurveto
          -98 callgsubr
        </CharString>
        <CharString name="dvN_DA_MatraUU">
          364 775 183 -50 callgsubr
          -237 446 -80 callsubr
          693 58 callgsubr
          -49 -58 -40 -54 -49 hvcurveto
          14 -52 -86 3 -64 -77 callgsubr
          53 54 -1 39 hhcurveto
          -36 -52 -25 -56 -39 vvcurveto
          276 callsubr
          -96 callsubr
        </CharString>
        <CharString name="dvO.aInitial">
          619 1138 166 callsubr
          -342 hlineto
          -94 callsubr
          170 -79 callgsubr
        </CharString>
        <CharString name="dvOcandra.aInitial">
          619 719 645 rmoveto
          -94 callsubr
          171 -85 callsubr
          47 239 rmoveto
          5 callsubr
          164 callgsubr
          vhcurveto
          endchar
        </CharString>
        <CharString name="dvOshort.aInitial">
          450 1131 645 -21 callgsubr
          -353 hlineto
          -94 callsubr
          159 -79 callgsubr
        </CharString>
        <CharString name="dvSHA_MatraVocalicR">
          266 328 535 rmoveto
          52 44 35 48 38 18 -21 -29 -47 -32 -46 -47 -39 vhcurveto
          -43 26 -26 32 37 vvcurveto
          331 110 -106 callsubr
          37 hlineto
          -11 -66 -13 -65 -13 -68 -72 1 -71 12 -57 21 rrcurveto
          51 48 33 56 56 vvcurveto
          73 -48 46 -75 -91 -70 -72 -80 -55 30 -46 48 -36 vhcurveto
          -31 -57 -68 -20 -62 -24 -24 6 -16 hhcurveto
          -14 -9 -3 -14 -25 44 -30 48 81 90 32 48 73 hvcurveto
          70 -34 88 -19 89 -4 -19 -98 -22 -99 -7 -43 rrcurveto
          -89 -17 -118 -97 -79 vvcurveto
          -69 65 -33 100 64 79 16 31 12 -13 17 -23 vhcurveto
          -32 -14 -15 -65 hhcurveto
          -59 -36 15 27 49 104 83 73 hvcurveto
          1 hlineto
          2 hlineto
          32 26 -64 callsubr
          59 callgsubr
          125 -107 callgsubr
        </CharString>
        <CharString name="dvSH_VA.aSimp">
          452 -78 callgsubr
          557 -197 -74 callsubr
          -72 245 callsubr
          374 -43 callsubr
          -131 -86 -175 -128 241 callgsubr
          362 callgsubr
          hvcurveto
          -99 callsubr
        </CharString>
        <CharString name="dvS_DA_MatraU">
          423 806 229 callgsubr
          -53 380 callsubr
          -64 -16 -86 327 callsubr
          -21 -31 -16 -44 -50 vvcurveto
          30 -268 -5 callsubr
          -11 16 31 18 20 18 5 rrcurveto
          -747 462 rmoveto
          -90 callgsubr
          36 2 36 9 32 15 74 1 91 9 72 15 rrcurveto
          -23 -40 -14 -38 -30 vvcurveto
          -84 83 -42 114 vhcurveto
          -98 callgsubr
        </CharString>
        <CharString name="dvS_DA_MatraUU">
          424 807 449 rmoveto
          10 -21 -21 6 -18 hhcurveto
          -54 380 callsubr
          -63 -16 -87 327 callsubr
          207 callgsubr
          29 -268 -50 callgsubr
          -483 860 rmoveto
          -90 callgsubr
          36 2 36 9 32 15 74 1 91 9 72 15 rrcurveto
          -23 -40 -14 -38 -30 vvcurveto
          276 callsubr
          -96 callsubr
        </CharString>
        <CharString name="dvTTH_TTHA">
          56 246 185 rmoveto
          -49 -35 10 26 62 144 117 82 46 41 -46 -39 -58 -135 -72 -94 hvcurveto
          -119 -428 rmoveto
          -48 359 callgsubr
          82 46 41 -47 -38 -59 -135 -71 -94 hvcurveto
          -94 888 -106 callsubr
          404 hlineto
          -1 -3 -22 -35 -15 -37 -4 -34 rlinecurve
          -1 hlineto
          -121 -184 -147 -101 -62 58 -39 91 21 22 2 4 21 hvcurveto
          -3 -19 -1 -24 -14 -35 -3 -8 rcurveline
          -6 hlineto
          -120 -184 -146 -102 -61 57 -40 91 149 156 98 93 52 -39 63 -53 28 hvcurveto
          20 30 18 53 2 36 rrcurveto
          95 35 75 67 65 vvcurveto
          51 -37 61 -51 29 349 callgsubr
          143 -107 callgsubr
        </CharString>
        <CharString name="dvTT_GA">
          14 84 -127 rmoveto
          -25 -24 33 21 21 19 10 43 16 18 -2 -4 20 hvcurveto
          -49 -17 -23 -30 -27 hhcurveto
          -34 772 -106 callsubr
          393 308 callsubr
          -47 28 -33 48 -19 hvcurveto
          -5 -23 -4 -27 -5 -27 -2 -10 -2 -9 -2 -10 rrcurveto
          5 -23 -23 3 -27 hhcurveto
          -71 -54 -27 -53 -55 55 -72 64 115 49 202 88 5 hvcurveto
          -1 12 13 -1 14 hhcurveto
          26 25 2 5 23 hvcurveto
          -41 -88 -34 -144 -75 90 callgsubr
          147 -70 callsubr
        </CharString>
        <CharString name="dvT_KH_NA">
          614 1067 576 149 callsubr
          -69 -43 34 39 -35 hvcurveto
          120 29 84 93 101 vvcurveto
          31 -7 29 -13 24 vhcurveto
          184 -277 rmoveto
          244 callgsubr
          -20 -41 -23 -45 hvcurveto
          -202 -368 rmoveto
          -29 -11 -26 -33 -26 -35 17 24 27 39 28 52 21 vhcurveto
          10 -19 4 -23 -20 vvcurveto
          -225 714 rmoveto
          -1 0 -445 129 callsubr
          431 hlineto
          -1 -3 -1 -3 -3 vvcurveto
          -20 33 -35 20 vhcurveto
          21 17 43 55 hhcurveto
          41 18 -23 -43 -84 -76 -54 -99 -20 hvcurveto
          39 -24 -127 24 -98 hhcurveto
          -1 callgsubr
          38 31 -3 -4 27 vhcurveto
          8 -34 43 -22 47 -3 rrcurveto
          -70 53 78 -66 105 hhcurveto
          91 106 33 65 88 hvcurveto
          -13 -62 -13 -53 -6 -30 rrcurveto
          8 -31 -29 2 -30 hhcurveto
          -127 -187 -72 -89 -57 67 -50 66 72 29 52 57 28 -5 31 -12 26 hvcurveto
          9 34 36 5 32 hhcurveto
          35 43 -2 -14 36 hvcurveto
          0 vlineto
          -2 4 3 -1 3 hhcurveto
          21 37 -73 callgsubr
          32 hvcurveto
          21 90 27 -73 callsubr
          107 -70 callsubr
        </CharString>
        <CharString name="dvT_S_NA">
          670 1102 154 callsubr
          -756 591 -64 callgsubr
          449 hlineto
          -40 callsubr
          hvcurveto
          -51 395 callgsubr
          19 -37 -58 12 -52 hhcurveto
          -132 -84 -44 -104 -106 115 -108 65 302 callgsubr
          38 -135 38 107 vvcurveto
          61 51 22 95 44 40 -9 -7 35 vhcurveto
          10 -30 26 -52 32 -56 rrcurveto
          34 callsubr
        </CharString>
        <CharString name="e">
          -83 279 432 22 callgsubr
        </CharString>
        <CharString name="eacute">
          -95 210 289 -43 callgsubr
          161 241 rmoveto
          165 callsubr
          hvcurveto
          -68 callgsubr
          vhcurveto
          endchar
        </CharString>
        <CharString name="ecaron">
          -95 210 289 -43 callgsubr
          169 211 104 callgsubr
        </CharString>
        <CharString name="ecircumflex">
          -95 210 289 -43 callgsubr
          112 170 -44 callsubr
          endchar
        </CharString>
        <CharString name="edieresis">
          -95 403 579 27 callsubr
          -43 -290 -43 callgsubr
          endchar
        </CharString>
        <CharString name="edotaccent">
          -95 323 567 rmoveto
          13 15 15 9 26 -35 81 -24 -22 -25 -33 -23 -29 50 -46 28 hvcurveto
          -48 -135 22 callgsubr
        </CharString>
        <CharString name="egrave">
          -95 251 615 rmoveto
          -18 callgsubr
          286 callsubr
          hvcurveto
          24 -183 22 callgsubr
        </CharString>
        <CharString name="eight">
          69 408 230 rmoveto
          -73 -106 -59 -66 -29 -27 25 23 41 75 61 87 69 vhcurveto
          38 -34 28 -30 -23 vvcurveto
          194 378 rmoveto
          76 -58 45 -90 -119 -123 -46 -40 -19 38 -25 21 vhcurveto
          36 70 49 83 hhcurveto
          42 12 -20 -18 -46 -82 -67 -92 -74 hvcurveto
          -62 51 -68 50 -53 49 rrcurveto
          18 -19 -14 19 -12 hhcurveto
          -13 -7 -31 -23 -46 97 -72 87 -67 hvcurveto
          -96 -79 -89 -83 -69 vvcurveto
          -63 86 -55 56 109 156 92 103 49 -39 50 -54 51 vhcurveto
          101 81 96 86 74 vvcurveto
          endchar
        </CharString>
        <CharString name="ellipsis">
          133 56 83 171 callgsubr
          222 hmoveto
          -32 54 394 callgsubr
          -26 -27 -37 -25 vhcurveto
          222 hmoveto
          -32 55 394 callgsubr
          -25 -29 -37 -25 vhcurveto
          endchar
        </CharString>
        <CharString name="emacron">
          -95 210 289 -43 callgsubr
          28 140 callsubr
        </CharString>
        <CharString name="emdash">
          384 790 366 rmoveto
          -315 -408 -26 -48 -21 19 -29 22 hvcurveto
          37 3 122 21 134 13 rrcurveto
          242 21 246 -2 40 vvcurveto
          15 -27 13 -72 vhcurveto
          endchar
        </CharString>
        <CharString name="endash">
          77 572 348 rmoveto
          15 -19 10 -42 -149 -295 -53 -30 -22 25 -26 21 24 92 24 15 90 vhcurveto
          142 24 112 15 -1 28 rrcurveto
          endchar
        </CharString>
        <CharString name="eogonek">
          -95 275 432 rmoveto
          33 40 -49 -32 -39 -56 -23 -82 -23 -30 3 6 -27 hvcurveto
          72 35 58 62 52 hhcurveto
          72 -307 rmoveto
          -2 hlineto
          376 callsubr
          27 9 28 hvcurveto
          -10 37 42 -6 47 hhcurveto
          173 callgsubr
          -120 -134 -189 -142 -95 71 -70 105 12 13 1 3 13 hvcurveto
          -14 -24 -9 -23 -19 vvcurveto
          51 callgsubr
          hvcurveto
          44 95 35 45 vvcurveto
          17 -18 10 -15 vhcurveto
          endchar
        </CharString>
        <CharString name="equal">
          98 597 458 rmoveto
          24 -47 7 -64 -78 -318 -21 -32 -1 vhcurveto
          -17 20 -36 19 35 132 13 13 113 vhcurveto
          123 14 66 11 24 vvcurveto
          -27 -182 rmoveto
          17 -29 8 -45 -49 -390 -35 -26 -16 20 -36 18 -1 vhcurveto
          43 119 11 10 80 hvcurveto
          134 18 99 22 28 vvcurveto
          endchar
        </CharString>
        <CharString name="eth">
          254 callgsubr
          307 549 rmoveto
          9 -9 7 -14 -12 -30 -12 -18 -46 vhcurveto
          56 -37 -49 36 -49 hhcurveto
          308 callgsubr
          10 -9 8 -10 8 -12 rrcurveto
          -59 -22 -48 -16 -24 vvcurveto
          -11 12 -7 13 15 45 14 18 48 vhcurveto
          13 -32 9 -37 3 -42 264 callsubr
          64 -15 62 -24 51 hvcurveto
          47 22 38 23 14 vvcurveto
          endchar
        </CharString>
        <CharString name="exclam">
          -162 299 748 rmoveto
          19 -60 43 -25 -9 -7 -8 -18 -276 -59 -199 3 -23 vhcurveto
          -24 23 -27 21 38 75 414 99 vhcurveto
          -115 -726 rmoveto
          29 -40 92 -25 -23 -28 -36 -24 -31 54 -55 33 13 16 16 9 vhcurveto
          endchar
        </CharString>
        <CharString name="exclamdown">
          -179 82 3 rmoveto
          -19 60 -43 25 9 7 8 18 276 59 199 -3 23 vhcurveto
          24 -23 27 -21 -38 -75 -414 -99 vhcurveto
          115 726 rmoveto
          -29 40 -92 25 23 28 36 24 31 -54 55 -33 -13 -16 -16 -9 vhcurveto
          endchar
        </CharString>
        <CharString name="f">
          -157 231 386 rmoveto
          102 17 54 9 28 vvcurveto
          15 -22 13 -39 -25 -27 -1 -4 -30 vhcurveto
          8 35 rlineto
          101 24 22 107 50 52 -8 -108 41 hhcurveto
          15 13 16 42 61 -44 67 -70 -95 -49 -79 -181 -32 hvcurveto
          -5 -26 -5 -24 -5 -24 -25 -4 -27 -7 -28 -7 rrcurveto
          -28 -8 -17 -10 -12 vvcurveto
          -23 27 -22 23 14 17 4 6 26 vhcurveto
          -41 -177 -37 -102 -22 vvcurveto
          -20 26 -33 17 31 48 196 176 43 vhcurveto
          endchar
        </CharString>
        <CharString name="fi">
          -5 255 394 rmoveto
          63 10 69 12 32 1 rrcurveto
          -22 -99 -67 -220 -35 vvcurveto
          -26 13 -21 21 17 12 11 39 11 vhcurveto
          53 179 55 152 42 vvcurveto
          32 -22 17 -41 -23 -82 -5 -11 -86 vhcurveto
          6 26 rlineto
          101 25 21 107 51 52 47 -118 43 hhcurveto
          15 10 20 33 61 -98 82 -71 -95 -48 -73 -187 -32 hvcurveto
          -4 -22 -4 -22 -4 -20 -36 -6 -33 -7 -26 -8 rrcurveto
          -22 -6 -12 -10 -9 vvcurveto
          -22 25 -25 25 9 23 4 5 28 vhcurveto
          -41 -179 -40 -107 -24 vvcurveto
          -22 29 -31 14 32 49 201 177 42 vhcurveto
          endchar
        </CharString>
        <CharString name="five">
          4 590 685 rmoveto
          24 -61 7 -85 -77 -60 -9 -9 -31 vhcurveto
          -39 -9 -83 -130 -62 -129 208 -37 -92 vvcurveto
          -64 -104 -77 -68 vhcurveto
          -68 -59 91 -18 hhcurveto
          -10 -6 -14 -15 -57 82 -83 97 116 132 115 113 hvcurveto
          104 -206 69 74 vvcurveto
          28 44 90 29 7 vhcurveto
          71 16 196 20 29 vvcurveto
          endchar
        </CharString>
        <CharString name="fl">
          10 117 463 rmoveto
          -32 -3 -38 -7 -21 vvcurveto
          -16 24 -30 26 11 12 0 1 14 vhcurveto
          -32 -147 -34 -123 -9 -43 -1 -16 11 -13 8 -3 7 -16 21 3 18 26 38 51 38 155 27 138 75 12 82 24 45 39 rrcurveto
          -28 -194 -68 -171 -38 vvcurveto
          -30 22 -26 21 57 107 541 155 44 -38 29 -25 -20 -5 -57 -43 -147 -79 -33 -130 -22 vhcurveto
          6 34 5 32 4 25 rrcurveto
          86 13 15 47 32 35 -3 -43 25 hhcurveto
          15 9 12 27 40 -30 42 -57 -67 -53 -44 -113 -14 hvcurveto
          -7 -53 -9 -54 -10 -52 rrcurveto
          endchar
        </CharString>
        <CharString name="florin">
          -94 285 367 rmoveto
          105 17 49 16 26 vvcurveto
          16 -21 11 -39 -22 -26 -1 -3 -28 vhcurveto
          167 36 28 88 44 52 -8 -106 41 hhcurveto
          16 11 16 42 61 -43 67 -70 -110 -41 -77 -270 -60 hvcurveto
          -71 -12 -60 -17 -20 vvcurveto
          -23 26 -32 24 14 19 6 7 28 vhcurveto
          -316 -69 -23 -83 -38 -43 -15 37 -13 hhcurveto
          -9 -7 -8 -18 -44 51 -42 39 103 42 77 395 83 hvcurveto
          endchar
        </CharString>
        <CharString name="four">
          18 441 532 rmoveto
          -12 -9 -9 -23 -55 -5 -51 -7 -47 hvcurveto
          -15 -45 -83 -38 -63 hhcurveto
          -36 -20 14 41 hvcurveto
          104 212 196 35 vvcurveto
          22 -26 18 -22 -44 -209 -255 -124 -84 63 -46 74 58 70 19 24 53 vhcurveto
          -27 -110 -35 -76 -38 vvcurveto
          -23 18 -23 14 46 103 363 114 29 -49 38 -19 vhcurveto
          endchar
        </CharString>
        <CharString name="fraction">
          157 callsubr
        </CharString>
        <CharString name="g">
          -58 105 219 callgsubr
          322 149 rmoveto
          12 -5 11 -7 10 vhcurveto
          133 callgsubr
          endchar
        </CharString>
        <CharString name="gbreve">
          -62 101 219 callgsubr
          310 182 rmoveto
          133 callgsubr
          12 -5 11 -7 10 vhcurveto
          87 378 104 callsubr
        </CharString>
        <CharString name="germandbls">
          52 398 367 rmoveto
          28 125 24 109 vvcurveto
          81 -77 101 -90 -119 -65 -81 -112 -20 vhcurveto
          -49 -262 -54 -135 -53 vvcurveto
          -23 24 -29 19 40 54 231 246 50 vhcurveto
          80 16 40 55 55 hhcurveto
          37 55 -44 -61 hvcurveto
          -77 -136 -28 -41 -68 136 -31 -89 vvcurveto
          -63 -75 -34 -53 vhcurveto
          -20 -17 2 -13 hhcurveto
          -17 -9 -5 -16 -29 30 -26 60 98 100 63 105 hvcurveto
          110 -125 50 22 vvcurveto
          endchar
        </CharString>
        <CharString name="grave">
          -107 788 rmoveto
          286 callsubr
          vhcurveto
          -18 callgsubr
          hvcurveto
          endchar
        </CharString>
        <CharString name="greater">
          28 155 543 rmoveto
          -14 -9 -5 -11 -15 35 -45 27 -9 hvcurveto
          61 -18 153 -80 -30 -27 -322 -139 -48 vvcurveto
          -13 9 -7 21 33 50 16 74 131 vhcurveto
          96 53 80 41 41 vvcurveto
          15 -13 25 -19 19 vhcurveto
          -70 68 -151 94 -98 1 rrcurveto
          endchar
        </CharString>
        <CharString name="greaterequal">
          30 158 560 rmoveto
          -14 -8 -5 -11 -15 23 -41 22 -3 hvcurveto
          69 -9 174 -46 -30 -29 -339 -82 -44 vvcurveto
          -13 10 -7 21 36 72 20 29 81 vhcurveto
          89 31 94 41 15 27 8 16 -2 34 -10 14 -37 52 -177 70 -127 1 rrcurveto
          -100 -467 rmoveto
          -13 27 -9 28 98 265 73 27 22 -23 24 -18 -23 -48 -22 -30 -106 vhcurveto
          -113 -33 -87 -18 -21 vvcurveto
          endchar
        </CharString>
        <CharString name="guillemotleft">
          124 352 497 rmoveto
          -54 -171 -79 -44 -54 hvcurveto
          -14 -10 -21 -34 -20 vvcurveto
          -52 241 -107 56 24 11 278 callgsubr
          -25 19 -26 vhcurveto
          311 -23 rmoveto
          -57 -186 -59 -40 -55 hvcurveto
          -17 -12 -22 -30 -17 vvcurveto
          -56 230 -96 70 22 10 5 14 vhcurveto
          34 -247 63 35 vvcurveto
          27 122 40 127 26 vhcurveto
          19 4 36 8 17 vvcurveto
          13 -25 24 -27 vhcurveto
          endchar
        </CharString>
        <CharString name="guillemotright">
          300 174 474 rmoveto
          -18 -29 -27 -13 -12 17 -7 22 -4 hvcurveto
          86 -16 108 -40 -27 -35 -275 -83 -35 vvcurveto
          -10 10 -7 18 70 261 111 56 68 -209 81 -61 vhcurveto
          283 23 rmoveto
          -18 -24 -23 -13 -12 16 -7 22 -7 hvcurveto
          84 -24 102 365 callgsubr
          58 184 81 45 57 vhcurveto
          12 11 9 371 callgsubr
        </CharString>
        <CharString name="guilsinglleft">
          45 399 497 rmoveto
          -54 -172 -79 -44 -54 hvcurveto
          -13 -10 -21 -34 -20 vvcurveto
          -52 240 -107 56 24 12 278 callgsubr
          -26 19 -25 vhcurveto
          endchar
        </CharString>
        <CharString name="guilsinglright">
          58 216 497 rmoveto
          -17 -25 -23 -13 -12 16 -7 23 -7 hvcurveto
          82 -24 103 365 callgsubr
          59 184 81 45 56 vhcurveto
          13 11 8 371 callgsubr
        </CharString>
        <CharString name="h">
          3 173 791 rmoveto
          -18 -6 -11 -28 -37 -16 -138 -36 -180 hvcurveto
          -32 -166 -42 -121 -33 vvcurveto
          -23 35 -39 19 19 41 74 82 52 vhcurveto
          125 81 63 101 48 hhcurveto
          12 16 -17 -25 -27 -9 -40 -12 -42 hvcurveto
          -22 -82 -34 -76 -43 vvcurveto
          -21 8 -9 14 42 43 109 117 32 vhcurveto
          15 54 10 49 39 vvcurveto
          53 -62 75 -33 -62 -85 -95 -247 -136 vhcurveto
          75 224 42 233 77 vvcurveto
          37 -37 51 -25 vhcurveto
          endchar
        </CharString>
        <CharString name="hungarumlaut">
          25 871 -15 callsubr
          endchar
        </CharString>
        <CharString name="hyphen">
          -74 225 callgsubr
        </CharString>
        <CharString name="i">
          -295 154 511 rmoveto
          -28 -14 -115 -124 -31 hvcurveto
          -23 -96 -30 -91 -30 vvcurveto
          -22 15 -17 19 14 16 11 39 13 vhcurveto
          61 190 41 159 29 vvcurveto
          27 -26 40 -27 vhcurveto
          116 90 rmoveto
          34 -39 74 -24 -22 -26 -30 -24 -29 51 -51 32 13 15 12 14 vhcurveto
          endchar
        </CharString>
        <CharString name="iacute">
          -295 237 675 rmoveto
          -68 callgsubr
          165 callsubr
          vhcurveto
          -22 -231 4 callgsubr
          endchar
        </CharString>
        <CharString name="icircumflex">
          -295 282 176 callgsubr
          -67 -237 4 callgsubr
          endchar
        </CharString>
        <CharString name="idieresis">
          -295 180 605 -19 callgsubr
          -116 -161 4 callgsubr
          endchar
        </CharString>
        <CharString name="igrave">
          187 callsubr
          -147 248 rmoveto
          286 callsubr
          vhcurveto
          -18 callgsubr
          hvcurveto
          endchar
        </CharString>
        <CharString name="imacron">
          187 callsubr
          -2 150 rmoveto
          47 callsubr
          288 callgsubr
          vhcurveto
          endchar
        </CharString>
        <CharString name="infinity">
          219 521 162 rmoveto
          -44 -37 34 48 -28 hvcurveto
          75 86 79 73 36 hhcurveto
          16 12 -14 -22 -81 -51 -113 -69 hvcurveto
          -366 7 rmoveto
          -24 -10 14 17 39 52 140 62 53 19 -66 -39 23 hvcurveto
          -58 -68 -64 -47 -43 hhcurveto
          460 312 rmoveto
          -53 -93 -85 -81 -92 hvcurveto
          63 -15 -47 90 -85 hhcurveto
          -116 -82 -186 -85 -63 69 -48 60 52 74 53 62 75 hvcurveto
          -66 38 53 -52 80 hhcurveto
          104 91 148 126 64 -56 60 -57 hvcurveto
          endchar
        </CharString>
        <CharString name="integral">
          -49 508 695 rmoveto
          44 -51 43 -39 -101 -26 -72 -376 -86 vhcurveto
          -305 -70 -13 -82 -42 -35 -14 37 -14 hhcurveto
          -9 -6 -8 -18 -44 51 -42 39 100 34 85 369 80 hvcurveto
          310 67 22 71 36 38 9 -38 14 hhcurveto
          9 7 8 18 hvcurveto
          endchar
        </CharString>
        <CharString name="iogonek">
          -295 92 -84 rmoveto
          -15 -14 -12 -21 hhcurveto
          -22 -17 6 13 37 69 31 20 36 hvcurveto
          7 8 7 12 6 19 rrcurveto
          61 190 42 159 29 vvcurveto
          27 -27 40 -26 -24 -10 -68 -143 -33 vhcurveto
          -18 -80 -36 -115 -5 -41 rrcurveto
          -49 -29 -65 -82 -51 334 callsubr
        </CharString>
        <CharString name="itfLogo">
          1115 147 hmoveto
          220 callsubr
          236 -634 rmoveto
          220 callsubr
          236 -634 rmoveto
          220 callsubr
          -410 vmoveto
          196 185 -196 hlineto
          endchar
        </CharString>
        <CharString name="itfStar">
          139 663 452 rmoveto
          -28 -200 -6 -2 -34 hvcurveto
          -66 246 -8 -27 -53 -188 -8 -31 rlinecurve
          -261 8 25 -15 168 -108 28 -17 rlinecurve
          -96 -247 24 20 152 128 29 20 rlinecurve
          204 -168 -11 28 -71 189 -12 30 rlinecurve
          endchar
        </CharString>
        <CharString name="j">
          -279 283 601 rmoveto
          34 -38 74 -25 -22 -26 -30 -24 -29 52 -51 32 11 16 12 14 vhcurveto
          -152 -139 rmoveto
          -356 -95 -31 -282 -77 hhcurveto
          -25 -20 16 25 -20 hvcurveto
          24 -21 -18 28 -15 hhcurveto
          -13 -17 -31 -17 -36 74 -78 71 76 51 51 106 29 hvcurveto
          87 342 46 158 31 vvcurveto
          34 -31 34 -22 -10 -8 -12 -37 -11 vhcurveto
          endchar
        </CharString>
        <CharString name="k">
          -64 473 457 95 callgsubr
        </CharString>
        <CharString name="l">
          -288 150 219 115 callgsubr
        </CharString>
        <CharString name="lacute">
          -299 273 915 rmoveto
          -68 callgsubr
          165 callsubr
          vhcurveto
          -125 -696 115 callgsubr
        </CharString>
        <CharString name="lcaron">
          -85 282 565 rmoveto
          47 94 64 74 40 -38 33 -40 306 callgsubr
          vhcurveto
          -133 -346 201 callgsubr
        </CharString>
        <CharString name="less">
          6 491 542 rmoveto
          -71 -243 -123 -52 -62 hvcurveto
          -16 -13 -18 -41 -21 vvcurveto
          -61 288 -134 70 24 14 6 15 vhcurveto
          36 -289 110 40 vvcurveto
          32 222 97 96 36 vhcurveto
          18 7 15 5 15 vvcurveto
          13 -16 33 -32 vhcurveto
          endchar
        </CharString>
        <CharString name="lessequal">
          -10 463 560 rmoveto
          -77 -220 -67 -47 -61 hvcurveto
          -18 -13 -20 -36 -20 vvcurveto
          -61 291 -86 66 28 13 8 16 vhcurveto
          36 -300 71 25 vvcurveto
          31 196 40 118 30 vhcurveto
          19 5 14 7 15 vvcurveto
          13 -17 33 -32 vhcurveto
          -9 -463 rmoveto
          21 -97 17 -109 30 vhcurveto
          29 -107 -48 23 -22 hhcurveto
          -19 -23 -25 -22 -25 240 -70 130 27 28 8 14 hvcurveto
          endchar
        </CharString>
        <CharString name="logicalnot">
          -37 26 483 rmoveto
          -13 -5 -6 -13 -25 44 -43 55 hvcurveto
          32 237 3 30 hhcurveto
          30 29 -6 -17 hvcurveto
          -100 -115 -152 -27 vvcurveto
          -11 7 -7 12 58 127 212 83 41 -20 44 -33 10 vhcurveto
          9 -35 -81 1 -82 -96 -169 4 -12 hhcurveto
          endchar
        </CharString>
        <CharString name="lozenge">
          -111 249 580 rmoveto
          -36 -127 -190 -63 -24 63 -148 23 -47 hvcurveto
          -11 6 39 -11 19 hhcurveto
          36 126 183 77 12 -11 18 -18 42 hvcurveto
          -29 71 -11 52 -16 17 rrcurveto
          11 -11 -35 11 -18 hhcurveto
          86 -235 rmoveto
          -26 -65 -38 -71 -57 -59 -13 40 -32 92 -15 36 20 59 37 67 55 56 16 -40 27 -69 26 -46 rrcurveto
          endchar
        </CharString>
        <CharString name="lslash">
          -171 384 463 rmoveto
          12 -10 4 -16 -12 -38 -7 -11 -47 vhcurveto
          16 95 10 87 64 vvcurveto
          39 -47 45 -17 -16 -4 -8 -18 -107 -15 -115 -19 -105 vhcurveto
          -68 -20 -60 -22 -16 vvcurveto
          -16 30 -23 24 9 23 8 9 26 vhcurveto
          -31 -149 -35 -114 -20 vvcurveto
          -21 33 -39 19 18 28 107 97 24 vhcurveto
          15 57 13 59 12 58 rrcurveto
          98 35 37 16 19 vvcurveto
          endchar
        </CharString>
        <CharString name="m">
          263 678 511 rmoveto
          -63 -73 -78 -151 -78 hvcurveto
          8 41 4 38 27 vvcurveto
          56 -62 67 -29 -78 -71 -129 -226 -121 vhcurveto
          36 110 30 112 68 vvcurveto
          30 -35 39 -30 -34 28 -125 -158 -46 vhcurveto
          -22 -76 -20 -56 -26 vvcurveto
          -18 34 -41 20 20 52 89 72 47 vhcurveto
          142 91 47 94 38 hhcurveto
          13 16 -20 -30 hvcurveto
          -153 -70 -107 -40 vvcurveto
          -19 27 -27 15 28 43 106 47 28 vhcurveto
          157 95 48 86 40 hhcurveto
          11 9 -18 -38 hvcurveto
          -126 -69 -120 -65 vvcurveto
          -21 7 -9 14 64 65 260 100 71 -37 65 -40 vhcurveto
          endchar
        </CharString>
        <CharString name="macron">
          38 594 rmoveto
          47 callsubr
          288 callgsubr
          vhcurveto
          endchar
        </CharString>
        <CharString name="minus">
          67 102 280 rmoveto
          161 328 28 54 16 -29 6 -40 -54 -150 -19 -2 -125 hvcurveto
          -2 -61 -49 1 378 callgsubr
          endchar
        </CharString>
        <CharString name="multiply">
          -45 503 504 rmoveto
          19 -31 26 -20 -35 -63 -72 -97 -92 vhcurveto
          -40 54 -31 49 27 vvcurveto
          23 -56 16 -32 -15 -3 -8 -12 -25 55 -92 66 -90 vhcurveto
          -94 -91 -71 -45 -18 vvcurveto
          -16 27 -28 24 22 62 62 75 77 vhcurveto
          -76 61 62 -61 33 hhcurveto
          14 11 8 14 18 -63 74 -61 79 hvcurveto
          94 92 99 82 13 vvcurveto
          endchar
        </CharString>
        <CharString name="n">
          0 388 511 -58 callgsubr
        </CharString>
        <CharString name="nacute">
          -1 314 562 131 callsubr
          74 -51 -58 callgsubr
        </CharString>
        <CharString name="ncaron">
          -1 302 553 53 callsubr
          86 -42 -58 callgsubr
        </CharString>
        <CharString name="nine">
          -45 207 360 rmoveto
          -31 -28 21 34 75 105 152 74 26 14 -23 -28 hvcurveto
          -25 -9 -22 -20 vvcurveto
          -9 8 -7 15 -2 vhcurveto
          -56 -40 -56 -90 -78 hhcurveto
          230 191 rmoveto
          5 16 2 18 18 vvcurveto
          59 -38 64 -75 -123 -139 -181 -125 -66 65 -70 68 42 48 23 33 43 vhcurveto
          -30 -97 -24 -106 -57 vvcurveto
          -42 10 -33 24 29 13 164 156 51 vhcurveto
          29 87 33 65 32 vvcurveto
          20 -11 18 -22 4 vhcurveto
          endchar
        </CharString>
        <CharString name="notequal">
          60 408 409 rmoveto
          122 18 67 7 24 vvcurveto
          27 -61 5 -50 -12 -21 -1 -1 -27 vhcurveto
          25 57 rlineto
          10 28 7 21 14 vvcurveto
          17 -9 9 -14 -27 -30 -50 -102 -46 vhcurveto
          -115 -9 -137 -16 -1 -21 rrcurveto
          -17 20 -36 19 23 80 7 7 75 vhcurveto
          -18 -43 -30 -71 rlineto
          -103 -10 -96 -13 -13 vvcurveto
          -17 18 -36 18 -1 vhcurveto
          24 51 3 4 53 hvcurveto
          -27 -62 -15 -40 -18 vvcurveto
          -13 10 -12 14 18 36 62 90 42 vhcurveto
          13 1 12 2 10 1 183 25 51 13 1 24 rrcurveto
          18 -29 8 -45 1 vhcurveto
          -17 -65 -4 -6 -75 hvcurveto
          17 37 17 40 17 40 rrcurveto
          endchar
        </CharString>
        <CharString name="ntilde">
          -1 188 566 rmoveto
          22 callsubr
          230 callgsubr
          hvcurveto
          200 -55 -58 callgsubr
        </CharString>
        <CharString name="numbersign">
          123 337 474 rmoveto
          42 5 38 5 34 4 -16 -76 -20 -82 -18 -73 -45 -3 -49 -4 -47 -5 22 82 21 77 16 67 rrcurveto
          -83 -311 rmoveto
          16 2 17 3 18 2 34 4 32 4 28 4 -17 -70 -11 -51 2 -11 rrcurveto
          -26 14 -29 18 20 20 46 91 24 vhcurveto
          16 61 rlineto
          99 13 47 10 22 vvcurveto
          16 -8 12 -56 -14 -22 0 -1 -26 vhcurveto
          23 87 21 82 16 69 rrcurveto
          81 11 40 10 20 vvcurveto
          16 -9 13 -54 -11 -14 0 -1 -18 vhcurveto
          7 36 4 29 19 vvcurveto
          40 -50 35 -18 -16 -3 -9 -23 -32 -6 -46 -10 -53 vhcurveto
          -42 -2 -46 -4 -45 -4 rrcurveto
          9 43 5 34 21 vvcurveto
          40 -51 35 -17 -17 -2 -9 -23 -37 -8 -54 -12 -62 vhcurveto
          -75 -11 -56 -16 -20 vvcurveto
          -19 17 -30 17 11 28 4 7 40 vhcurveto
          -17 -77 -20 -79 -17 -69 rrcurveto
          -66 -11 -48 -14 -19 vvcurveto
          -19 19 -30 15 10 20 3 4 28 vhcurveto
          -11 -49 -8 -34 2 -7 rrcurveto
          -37 21 -28 16 20 16 59 86 24 vhcurveto
          endchar
        </CharString>
        <CharString name="o">
          -80 139 callsubr
          endchar
        </CharString>
        <CharString name="oacute">
          -81 350 675 rmoveto
          -68 callgsubr
          165 callsubr
          vhcurveto
          67 -332 -59 callgsubr
          endchar
        </CharString>
        <CharString name="ocircumflex">
          -81 395 176 callgsubr
          22 -338 -59 callgsubr
          endchar
        </CharString>
        <CharString name="odieresis">
          -81 293 605 -19 callgsubr
          -27 -262 -59 callgsubr
          endchar
        </CharString>
        <CharString name="oe">
          373 561 511 rmoveto
          -56 -58 -41 -57 -46 hvcurveto
          55 -21 -45 43 -59 hhcurveto
          -120 -120 -177 -157 -90 50 -72 69 65 60 36 53 46 hvcurveto
          -55 26 59 -34 72 hhcurveto
          301 callsubr
          -7 8 -19 hvcurveto
          191 callsubr
          26 49 26 6 25 10 24 hvcurveto
          -9 37 41 -6 46 hhcurveto
          173 callgsubr
          hvcurveto
          -271 -61 rmoveto
          29 -19 14 -48 -42 vvcurveto
          -103 -74 -134 -99 -21 vhcurveto
          -30 15 -8 37 38 vvcurveto
          104 71 146 97 27 vhcurveto
          277 -18 rmoveto
          33 40 -49 -32 -39 -56 -23 -82 -22 -30 2 7 -27 hvcurveto
          72 35 57 62 52 hhcurveto
          endchar
        </CharString>
        <CharString name="ogonek">
          60 24 rmoveto
          17 -18 10 -15 -45 -98 -109 -63 51 callgsubr
          hvcurveto
          44 95 35 45 vvcurveto
          endchar
        </CharString>
        <CharString name="ograve">
          138 callsubr
          -110 242 rmoveto
          286 callsubr
          vhcurveto
          -18 callgsubr
          hvcurveto
          endchar
        </CharString>
        <CharString name="ohungarumlaut">
          -81 312 775 -15 callsubr
          -52 -424 -59 callgsubr
          endchar
        </CharString>
        <CharString name="omacron">
          -81 325 594 rmoveto
          47 callsubr
          288 callgsubr
          vhcurveto
          92 -251 -59 callgsubr
          endchar
        </CharString>
        <CharString name="one">
          -219 220 343 rmoveto
          31 122 20 128 58 vvcurveto
          24 -43 51 -30 -11 -10 -8 -23 -2 vhcurveto
          -23 -359 -84 -201 -68 vvcurveto
          -27 27 -33 18 34 28 165 171 45 vhcurveto
          endchar
        </CharString>
        <CharString name="onehalf">
          254 147 297 rmoveto
          22 -1 15 110 20 111 15 74 10 68 1 52 rrcurveto
          16 -41 35 -20 -8 -8 -5 -15 vhcurveto
          -197 -48 -167 -36 vvcurveto
          -23 27 -22 15 vhcurveto
          412 461 rmoveto
          -11 -3 -6 -18 -12 279 callsubr
          123 173 145 162 50 vvcurveto
          29 -26 36 -14 vhcurveto
          78 -688 rmoveto
          -32 -97 -17 -9 -56 hvcurveto
          112 67 114 104 111 vvcurveto
          62 -42 53 -72 -63 -64 -54 -34 -15 35 -19 12 vhcurveto
          15 24 51 45 hhcurveto
          24 14 -19 -30 hvcurveto
          -124 -234 -114 -41 vvcurveto
          -30 41 -30 27 52 191 34 34 17 -21 3 -25 vhcurveto
          endchar
        </CharString>
        <CharString name="onequarter">
          250 161 297 rmoveto
          23 -1 14 110 21 111 rrcurveto
          14 74 11 67 53 vvcurveto
          16 -41 35 -20 -7 -9 -5 -15 -190 -46 -157 -2 -53 vhcurveto
          -23 28 -22 14 vhcurveto
          412 461 rmoveto
          -10 -3 -6 -18 -13 hvcurveto
          -267 -376 -211 -296 -35 vvcurveto
          -16 21 -25 11 21 54 76 246 169 vhcurveto
          123 173 145 163 49 vvcurveto
          27 -24 38 -16 340 callsubr
          -10 -33 -46 -25 -42 323 callsubr
          -146 -189 -82 -56 40 -35 59 35 40 9 13 32 vhcurveto
          -17 -71 -21 -49 -25 vvcurveto
          -18 11 -20 16 39 65 243 75 21 -37 32 -15 vhcurveto
          endchar
        </CharString>
        <CharString name="onesuperior">
          -379 179 681 rmoveto
          13 -35 381 callgsubr
          -143 -38 -140 -30 vvcurveto
          -20 20 -19 11 21 12 83 84 15 vhcurveto
          11 63 11 57 41 vvcurveto
          endchar
        </CharString>
        <CharString name="ordfeminine">
          -59 200 473 rmoveto
          -26 -12 14 26 61 66 130 68 28 19 -26 -23 4 hvcurveto
          -110 -30 -70 -72 -47 hhcurveto
          206 193 rmoveto
          37 -51 68 -61 -120 -81 -182 -79 -47 50 -54 53 43 47 31 44 36 vhcurveto
          -41 4 19 -34 19 hhcurveto
          15 2 25 34 hvcurveto
          99 19 23 37 vvcurveto
          2 0 3 -1 3 vhcurveto
          4 11 3 11 9 vvcurveto
          endchar
        </CharString>
        <CharString name="ordmasculine">
          -81 403 622 rmoveto
          67 -38 82 -73 -107 -77 -113 -104 -71 43 -72 60 119 73 120 91 vhcurveto
          -227 -71 rmoveto
          65 38 76 77 19 vhcurveto
          33 -16 12 -34 -40 vvcurveto
          -76 -49 -65 -73 -12 vhcurveto
          -23 17 -15 29 37 vvcurveto
          endchar
        </CharString>
        <CharString name="oslash">
          -76 370 351 rmoveto
          -92 -91 -177 -114 -5 vhcurveto
          -12 3 -10 7 -9 11 47 51 73 81 116 130 rrcurveto
          -3 0 -3 -3 vvcurveto
          -257 -184 rmoveto
          104 92 168 101 11 vhcurveto
          13 -3 12 -8 10 -12 -32 -35 -37 -46 -47 -54 -41 -48 -38 -44 -33 -38 rrcurveto
          326 275 rmoveto
          29 33 7 13 10 vvcurveto
          12 -9 8 -12 -20 -21 -13 -23 -25 vhcurveto
          21 -22 -29 13 -33 hhcurveto
          -137 -131 -183 -151 -31 8 -29 13 -25 hvcurveto
          -23 -29 -14 -21 -8 vvcurveto
          -10 4 -9 16 10 11 6 28 27 vhcurveto
          -21 23 27 -13 27 hhcurveto
          145 134 176 152 28 -6 28 -11 24 hvcurveto
          endchar
        </CharString>
        <CharString name="otilde">
          138 callsubr
          -17 264 rmoveto
          230 callgsubr
          22 callsubr
          endchar
        </CharString>
        <CharString name="p">
          -55 104 95 rmoveto
          23 92 rlineto
          0 vlineto
          158 58 111 83 42 hhcurveto
          29 10 -40 -43 -124 -156 -126 -107 hvcurveto
          244 419 rmoveto
          -59 -66 -43 -73 -56 hvcurveto
          3 14 1 12 9 vvcurveto
          47 -50 38 -19 -18 -4 -10 -20 vhcurveto
          -185 -128 -437 -47 vvcurveto
          -23 26 -38 19 24 33 172 92 22 vhcurveto
          -3 11 12 -2 15 hhcurveto
          139 201 180 141 85 -47 91 -59 hvcurveto
          endchar
        </CharString>
        <CharString name="paragraph">
          -12 70 466 rmoveto
          -44 44 -54 50 27 30 15 22 28 vhcurveto
          -30 -138 -58 -186 -23 vvcurveto
          -21 28 -22 16 16 33 102 97 26 vhcurveto
          51 190 38 183 1 110 rrcurveto
          3 0 4 -1 4 vhcurveto
          40 6 34 7 20 6 rrcurveto
          -25 -312 -112 -321 -36 vvcurveto
          -21 29 -22 15 15 33 102 97 27 vhcurveto
          47 177 42 199 1 110 rrcurveto
          36 -31 39 -17 6 vhcurveto
          4 -10 -16 2 -19 hhcurveto
          -44 -104 -12 -20 -48 hvcurveto
          -103 -45 -73 -148 -96 vvcurveto
          endchar
        </CharString>
        <CharString name="parenleft">
          -48 169 261 rmoveto
          366 382 147 55 vvcurveto
          23 -25 23 -24 -72 -350 -241 -362 -245 215 -126 121 20 9 9 12 vhcurveto
          56 -276 26 257 vvcurveto
          endchar
        </CharString>
        <CharString name="parenright">
          -29 -9 -87 rmoveto
          66 370 255 403 -1 hvcurveto
          168 -117 122 -81 -31 -25 -13 -30 vhcurveto
          -58 161 -12 -211 -355 -365 -203 -49 vvcurveto
          -11 10 -6 13 vhcurveto
          endchar
        </CharString>
        <CharString name="partialdiff">
          254 callgsubr
          61 627 rmoveto
          308 callgsubr
          43 -41 27 -65 7 -84 264 callsubr
          167 -101 147 -99 hvcurveto
          endchar
        </CharString>
        <CharString name="percent">
          357 12 callgsubr
          endchar
        </CharString>
        <CharString name="period">
          -296 56 83 171 callgsubr
          endchar
        </CharString>
        <CharString name="periodcentered">
          -296 56 334 171 callgsubr
          endchar
        </CharString>
        <CharString name="perthousand">
          662 12 callgsubr
          266 -314 rmoveto
          -27 -13 34 34 80 62 88 37 20 20 -37 -55 -75 -64 -69 -35 hvcurveto
          65 314 rmoveto
          -90 -95 -128 -125 -69 48 -71 57 93 99 115 115 79 -45 84 -67 hvcurveto
          endchar
        </CharString>
        <CharString name="pi">
          184 724 513 rmoveto
          44 -93 5 -91 -140 -321 -13 -42 -20 29 -36 21 21 37 3 4 50 vhcurveto
          -2 -26 -2 -30 -4 -30 rrcurveto
          -19 -253 -89 -29 -32 vvcurveto
          -26 24 -17 28 62 89 212 193 14 -2 15 -4 14 vhcurveto
          54 4 61 4 67 2 rrcurveto
          -29 -60 -17 -97 -89 vvcurveto
          -132 52 -80 57 23 18 11 16 vhcurveto
          39 -67 4 142 vvcurveto
          144 34 53 11 51 vhcurveto
          101 3 41 8 27 vvcurveto
          endchar
        </CharString>
        <CharString name="plus">
          67 606 362 rmoveto
          16 -28 6 -41 -31 -63 -6 -6 -71 vhcurveto
          14 63 10 45 24 vvcurveto
          22 -51 51 -24 -11 -9 -8 -22 -1 vhcurveto
          -6 -72 -6 -60 -6 -49 rrcurveto
          -2 -25 -24 -1 -24 hhcurveto
          -2 -61 -49 1 -16 hhcurveto
          -18 -10 -7 -15 -25 28 -35 34 43 54 2 4 57 hvcurveto
          -14 -93 -11 -40 -22 vvcurveto
          -30 28 -31 18 21 9 67 156 32 vhcurveto
          131 13 121 23 33 vvcurveto
          endchar
        </CharString>
        <CharString name="plusminus">
          67 495 152 rmoveto
          -65 -181 -20 -150 hhcurveto
          -14 -6 -7 -10 -19 26 -36 28 79 349 18 55 14 -27 5 -39 hvcurveto
          48 335 rmoveto
          -39 -45 -6 -5 -60 hvcurveto
          11 55 7 39 17 vvcurveto
          20 -49 46 -23 -10 -9 -7 -19 -44 -6 -57 -8 -57 vhcurveto
          -1 -24 -25 -1 -28 hhcurveto
          -1 -48 -38 1 -20 hhcurveto
          -16 -10 -6 -14 -23 30 -39 31 38 48 2 3 49 hvcurveto
          -11 -66 -10 -55 -14 vvcurveto
          -31 28 -28 18 19 14 76 126 25 vhcurveto
          117 13 105 22 29 vvcurveto
          17 -25 8 -36 vhcurveto
          endchar
        </CharString>
        <CharString name="product">
          -34 343 751 rmoveto
          -124 -90 -6 -43 hvcurveto
          -144 -102 -425 -56 vvcurveto
          -23 31 -37 16 34 86 462 178 19 vhcurveto
          74 14 86 7 77 1 rrcurveto
          -8 -152 -93 -402 -48 vvcurveto
          -23 30 -37 17 42 98 582 51 89 -62 12 -131 vhcurveto
          endchar
        </CharString>
        <CharString name="q">
          -59 396 -78 rmoveto
          -21 -43 -16 -33 -49 hvcurveto
          84 236 64 145 37 vvcurveto
          17 -39 26 -18 -13 -6 -3 -12 -3 vhcurveto
          -140 -36 -121 -81 -63 hhcurveto
          -22 -16 17 21 83 140 212 93 hvcurveto
          37 21 -45 27 hhcurveto
          12 5 10 11 36 -56 68 -60 -139 -158 -250 -120 -56 65 -70 53 39 58 27 45 47 hvcurveto
          -65 -178 -28 -69 -23 vvcurveto
          -24 20 -38 21 20 55 51 43 73 vhcurveto
          32 19 18 13 14 vvcurveto
          13 -14 14 -14 vhcurveto
          endchar
        </CharString>
        <CharString name="question">
          -9 497 636 214 callsubr
          -201 -97 -124 vvcurveto
          -34 8 -30 17 20 11 31 51 22 vhcurveto
          42 100 168 96 119 vvcurveto
          -362 -553 rmoveto
          -31 54 -55 33 13 16 16 9 29 -40 92 -25 -24 -27 -36 -24 vhcurveto
          endchar
        </CharString>
        <CharString name="questiondown">
          -153 -3 60 rmoveto
          -96 71 -56 88 82 78 67 74 22 -35 40 -13 -12 -17 -7 -7 -3 vhcurveto
          -4 -11 4 -5 -19 vvcurveto
          -39 -37 -28 -42 -38 -35 27 42 vhcurveto
          108 201 97 124 vvcurveto
          34 -8 30 -17 -20 -11 -31 -51 -22 vhcurveto
          -42 -100 -168 -96 -119 vvcurveto
          362 553 rmoveto
          31 -54 55 -33 -13 -16 -16 -9 -29 40 -92 25 24 27 36 24 vhcurveto
          endchar
        </CharString>
</ttFont>
